<?xml version="1.0" encoding="utf-8"?>
<!-- Generator: Adobe Illustrator 25.0.1, SVG Export Plug-In . SVG Version: 6.00 Build 0)  -->
<svg version="1.1" id="Layer_1" xmlns="http://www.w3.org/2000/svg" xmlns:xlink="http://www.w3.org/1999/xlink" x="0px" y="0px"
	 viewBox="0 0 556 467.8" style="enable-background:new 0 0 556 467.8;" xml:space="preserve">
<style type="text/css">
	.st0{fill:#9EF2EB;stroke:#000000;stroke-width:3;stroke-miterlimit:10;}
	.st1{fill:#FFC5FF;stroke:#000000;stroke-width:3;stroke-miterlimit:10;}
	.st2{fill:#FC943F;stroke:#000000;stroke-width:3;stroke-miterlimit:10;}
	.st3{stroke:#000000;stroke-width:3;stroke-miterlimit:10;}
	.st4{fill:#FFFFFF;stroke:#000000;stroke-width:3;stroke-miterlimit:10;}
	.st5{fill:#B7F8F3;stroke:#000000;stroke-width:3;stroke-miterlimit:10;}
	.st6{display:none;stroke:#000000;stroke-width:3;stroke-miterlimit:10;}
	.st7{fill:none;stroke:#000000;stroke-width:3;stroke-miterlimit:10;}
</style>
<g id="Foundation:-niceverynice.com">
	<g id="Main-Page" transform="translate(-654.000000, -228.000000)">
		<g id="Build-a-website" transform="translate(654.000000, 228.000000)">
			<rect id="Rectangle" x="300.4" y="196.4" class="st0" width="254" height="269.3"/>
			<rect id="Rectangle_4_" x="110.6" y="262.3" class="st1" width="398.5" height="52.7"/>
			<g>
				<rect id="Rectangle_1_" x="459.5" y="50.8" class="st2" width="49.6" height="49.6"/>
				<rect id="Rectangle_2_" x="409.9" y="50.8" class="st0" width="49.6" height="49.6"/>
				<rect id="Rectangle_3_" x="360.2" y="50.8" class="st1" width="49.6" height="49.6"/>
				<rect id="Rectangle_5_" x="110.6" y="50.8" class="st3" width="249.6" height="49.6"/>
				<rect id="Rectangle_6_" x="110.6" y="100.5" class="st4" width="398.5" height="161.9"/>
				<rect id="Rectangle_7_" x="382.3" y="119.8" class="st4" width="104.8" height="123.2"/>
			</g>
			<circle id="Oval_1_" class="st0" cx="395.4" cy="285.2" r="20"/>
			<circle id="Oval_2_" class="st2" cx="493" cy="285.2" r="20"/>
			<polygon id="Path" class="st1" points="247.5,408.7 309.8,315.2 372.3,408.7 			"/>
			<rect id="Rectangle_8_" x="356.3" y="331.2" class="st4" width="179.9" height="43"/>
			<polygon id="Path_3_" class="st2" points="356.1,335 395.4,374.2 356.3,374.2 			"/>
			<polygon id="Path_4_" class="st2" points="401.2,331.2 444.1,374.1 493,374.1 450.8,331.1 			"/>
			<polygon id="Path_5_" class="st2" points="498.9,331.1 536.2,368.4 536.2,331.2 			"/>
			<rect id="Rectangle_9_" x="356.3" y="384.4" class="st4" width="179.9" height="43"/>
			<polygon id="Path_6_" class="st2" points="356.3,388.5 395.4,427.5 356.3,427.5 			"/>
			<polygon id="Path_7_" class="st2" points="401.2,384.4 444.1,427.4 493,427.4 450.1,384.3 			"/>
			<polygon id="Path_8_" class="st2" points="498.9,384.3 536.2,421.7 536.2,384.4 			"/>
			<g>
				<circle id="Oval" class="st5" cx="177.8" cy="276.6" r="58.6"/>
				<polygon id="Path_1_" class="st2" points="233.8,304.1 109.8,444.3 233.8,444.2 				"/>
				<path id="Path_2_" class="st1" d="M81.3,332.9l21-24.5l-2.5-2.5c-3.3-3.2-3.4-8.5-0.2-11.8c5.3-5.9,11.7-1.2,13,0.2
					c1.4,1.8,14.9,16,14.9,16l-48.1,57.1h6.2c0,0,9.1,1.7,11.9,8.8c1.2,3.7,1.2,7.7,0.1,11.4l-16.8,35.7L96,444.2H47l22.9-48.6
					l-13.6-0.5l-26.9,31.2l10.6,18H14.8L2.1,425.1L81.3,332.9z"/>
				<circle id="Oval_3_" class="st1" cx="66" cy="324.3" r="16"/>
			</g>
			<path id="Shape" class="st3" d="M309.8,276.3c-6.9,0-12.6,5.6-12.6,12.6s5.6,12.6,12.6,12.6s12.6-5.6,12.6-12.6
				c0-3.3-1.3-6.5-3.7-8.9C316.4,277.6,313.2,276.2,309.8,276.3L309.8,276.3z M309.8,298.2c-3.8,0-7.3-2.3-8.7-5.8
				c-1.5-3.5-0.7-7.6,2-10.3c2.7-2.7,6.8-3.5,10.3-2c3.5,1.5,5.8,4.9,5.8,8.7C319.3,293.9,315,298.1,309.8,298.2L309.8,298.2z"/>
			<path id="Shape_1_" class="st6" d="M510.6,137.8V49.3H109v134.3C91.6,189,77.6,202,70.9,218.9c-6.7,16.9-5.3,36,3.7,51.8
				l-12.4-13.3c-1.9-2-4.6-3.2-7.4-3.2c-2.8,0-5.5,1.2-7.4,3.2l-0.1,0.1c-3.8,4-3.6,10.3,0.3,14.1L49,273l-17,19.8
				c0.3-1.4,0.5-2.8,0.5-4.1c0.1-7.8-5-14.7-12.4-17c-7.5-2.3-15.5,0.5-19.9,7s-4,15,1,21.1s13.2,8.1,20.5,5.1l-7.9,9.1l0,0
				L-51,389.4l13.8,21h28.9L-19.8,391l25.4-29.6h10.8l-23.1,48.8h54.6l-16.4-22.5l15.9-33.6c2.6-5.1,2.4-11.1-0.6-16
				c-3-4.9-8.2-7.8-13.9-7.8h-1.2l46.1-54.8c7.7,10.9,18.7,19,31.4,23v18.1H138L55,410.2h129v-93.6h122.9l-62.5,93.6h130.7
				l-62.5-93.6h79.3v93.6H649V137.8H510.6z M0.4,288.8c0-5.8,3.5-11.1,8.9-13.3s11.6-1,15.7,3.1c4.1,4.1,5.4,10.3,3.1,15.7
				c-2.2,5.4-7.5,8.9-13.3,8.9c-3.8,0-7.5-1.5-10.2-4.2C1.9,296.3,0.3,292.6,0.4,288.8L0.4,288.8z M-23.6,390.6l9.8,16.5h-21.7
				l-11.6-17.5L-8.9,345c-0.1,2.5,0.4,5.1,1.4,7.4c1.8,4,5.2,7.1,9.4,8.3L-23.6,390.6z M24.8,333.4h8c4.6,0,8.9,2.4,11.3,6.3
				c2.4,3.9,2.6,8.9,0.4,13L28,388l13.9,19.1H-1.6l23.1-48.8H6.8c-4.8,0-9.2-2.8-11.2-7.2c-2.1-4.4-1.4-9.6,1.9-13.2l55.9-65.1
				l-3.4-3.4c-2.7-2.7-2.8-7-0.2-9.8l0.1-0.1c1.3-1.4,3.2-2.2,5.1-2.2c1.9,0,3.8,0.8,5.1,2.3L74.2,275L24.8,333.4z M250.4,407.1
				l59.6-89.3l59.6,89.3H250.4z M562.4,266.5c-10.2,0-18.5-8.3-18.5-18.5s8.3-18.5,18.5-18.5c10.2,0,18.5,8.3,18.5,18.5
				C580.9,258.2,572.6,266.5,562.4,266.5L562.4,266.5z M592.6,290.4v31.9l-31.9-31.9H592.6z M556.4,290.4l36.3,36.3v3.6h-40.9
				L512,290.5L556.4,290.4L556.4,290.4z M458.6,343.6l39.9,39.9h-44.5l-38-38v-1.9H458.6z M507.4,343.6l39.9,39.9h-44.5l-39.9-39.9
				H507.4z M415.9,349.8l33.6,33.6h-33.6V349.8z M560.9,386.6v20.5H457.4v-20.5H560.9z M551.7,383.5l-39.9-39.9h44.5l36.3,36.3v3.6
				L551.7,383.5L551.7,383.5z M592.6,375.5l-31.9-31.9h31.9V375.5z M457.4,340.5v-7.2h103.5v7.2H457.4z M455.9,266.5
				c-10.2,0-18.5-8.3-18.5-18.5s8.3-18.5,18.5-18.5c10.2,0,18.5,8.3,18.5,18.5C474.3,258.2,466,266.5,455.9,266.5L455.9,266.5z
				 M458.6,290.4l39.9,39.9h-44.5l-38-38v-1.9H458.6z M507.4,290.4l39.9,39.9h-44.5l-39.9-39.9H507.4z M415.9,296.6l33.6,33.6h-33.6
				V296.6z M457.4,287.3v-17.6c4.9-0.3,9.5-2.3,13.1-5.6h37v23.2L457.4,287.3z M507.5,96.7l-21.1-21.1l21.1-21.1V96.7z M484.3,73.5
				l-21.1-21.1h42.1L484.3,73.5z M482.1,75.6L461,96.7V54.6L482.1,75.6z M484.3,77.8l21.1,21.1h-42.1L484.3,77.8z M457.9,52.4v46.5
				h-46.5V52.4H457.9z M408.3,52.4v46.5h-46.5V52.4H408.3z M112.1,52.4h246.5v46.5H112.1V52.4z M112.1,102h395.4v158.8h-34.4
				c2.8-3.7,4.3-8.2,4.3-12.8c0-11.9-9.7-21.6-21.6-21.6s-21.6,9.7-21.6,21.6c0,4.6,1.5,9.1,4.3,12.8H183.7
				c1.8-5.2,2.9-10.6,3.2-16.1h52.2V118.5H131.2v62.6c-1.4-0.1-2.9-0.2-4.4-0.2c-5,0-9.9,0.6-14.7,1.9V102z M134.3,181.4v-59.8H236
				v120.1h-49v-0.5C187.1,210.8,164.5,185.2,134.3,181.4L134.3,181.4z M69.8,241.1c0-31.5,25.6-57.1,57.1-57.1s57.1,25.6,57.1,57.1
				s-25.6,57.1-57.1,57.1C95.4,298.1,69.8,272.6,69.8,241.1z M112.1,313.6v-14.1c4.8,1.2,9.8,1.8,14.7,1.9c12.2,0,24-3.7,34-10.6
				l-20.2,22.8H112.1z M181,407.1H62l80.1-90.5h0.3v-0.4l38.6-43.6V407.1z M309.8,312.4l-0.8,1.2H184.1v-49.1l-3.8,4.4
				c0.9-1.6,1.6-3.3,2.3-5h258.7c3.6,3.3,8.2,5.3,13.1,5.6v17.6h-41.5v26.4H310.8L309.8,312.4z M395.1,316.7h17.6v16.6h41.5v7.2
				h-41.5v46.1h41.5v20.5h-59.2V316.7z M646,407.1h-82v-20.5h31.8v-46.1h-31.9v-7.2h31.9v-46.1h-31.9v-17.6
				c11.6-0.8,20.4-10.7,20-22.3s-10-20.8-21.6-20.8s-21.2,9.2-21.6,20.8c-0.4,11.6,8.4,21.5,20,22.3v17.6h-50.1V140.9h135.2v266.2
				L646,407.1z"/>
		</g>
	</g>
</g>
<line class="st7" x1="395.4" y1="427.5" x2="395.4" y2="465.8"/>
<line class="st7" x1="493" y1="427.5" x2="493" y2="465.8"/>
<line class="st7" x1="395.4" y1="305.3" x2="395.4" y2="331.1"/>
<line class="st7" x1="493" y1="306.2" x2="493" y2="332.1"/>
</svg>
