<?xml version="1.0" encoding="UTF-8"?>
<svg width="700px" height="362px" viewBox="0 0 700 362" version="1.1" xmlns="http://www.w3.org/2000/svg" xmlns:xlink="http://www.w3.org/1999/xlink">
    <title>Build a website</title>
    <g id="Foundation:-niceverynice.com" stroke="none" stroke-width="1" fill="none" fill-rule="evenodd">
        <g id="Main-Page" transform="translate(-654.000000, -228.000000)" fill-rule="nonzero">
            <g id="Build-a-website" transform="translate(654.000000, 228.000000)">
                <rect id="Rectangle" fill="#9EF2EB" x="444.596552" y="90.5896552" width="253.950345" height="269.311724"></rect>
                <rect id="Rectangle" fill="#FC943F" x="510.497931" y="2.0637931" width="49.6082759" height="49.6082759"></rect>
                <rect id="Rectangle" fill="#9EF2EB" x="460.889655" y="2.0637931" width="49.6082759" height="49.6082759"></rect>
                <rect id="Rectangle" fill="#FFC5FF" x="411.177586" y="2.0637931" width="49.6082759" height="49.6082759"></rect>
                <rect id="Rectangle" fill="#FFC5FF" x="161.586552" y="213.57" width="398.517241" height="52.7196552"></rect>
                <rect id="Rectangle" fill="#000000" x="161.586552" y="2.0637931" width="249.593448" height="49.6082759"></rect>
                <rect id="Rectangle" fill="#FFFFFF" x="161.586552" y="51.672069" width="398.517241" height="161.897931"></rect>
                <rect id="Rectangle" fill="#FFFFFF" x="183.795862" y="71.2865517" width="104.818966" height="123.187931"></rect>
                <circle id="Oval" fill="#B7F8F3" cx="177.568276" cy="192.294828" r="58.6358621"></circle>
                <circle id="Oval" fill="#9EF2EB" cx="506.865172" cy="199.248966" r="20.0296552"></circle>
                <circle id="Oval" fill="#FC943F" cx="613.446207" cy="199.248966" r="20.0296552"></circle>
                <polygon id="Path" fill="#FFC5FF" points="298.472759 359.901379 360.845172 266.393448 423.321379 359.901379"></polygon>
                <rect id="Rectangle" fill="#FFFFFF" x="465.352759" y="240.034828" width="179.851724" height="42.9655172"></rect>
                <polygon id="Path" fill="#FC943F" points="233.60931 219.797586 109.593448 360.005172 233.60931 359.901379"></polygon>
                <path d="M81.0527586,248.647241 L102.016552,224.154483 L99.5255172,221.663448 C96.2394724,218.438509 96.1470772,213.174127 99.317931,209.835862 C104.611379,203.919655 111.044138,208.590345 112.289655,210.043448 C113.737931,211.807931 127.235862,226.025172 127.235862,226.025172 L79.1844828,283.101724 L85.412069,283.101724 C85.412069,283.101724 94.5434483,284.762414 97.3458621,291.924138 C98.5365137,295.630629 98.5727105,299.611436 97.4496552,303.338966 L80.6375862,339.041379 L95.7889655,359.901379 L46.8058621,359.901379 L69.7368966,311.331034 L56.14,310.812069 L29.2672414,342.048966 L39.8517241,360.005172 L14.6324138,360.005172 L1.86827586,340.805862 L81.0527586,248.647241 Z" id="Path" fill="#FFC5FF"></path>
                <polygon id="Path" fill="#FC943F" points="465.145172 243.872759 504.374138 282.997931 465.352759 282.997931"></polygon>
                <polygon id="Path" fill="#FC943F" points="510.186552 240.034828 553.149655 282.894138 602.031379 282.894138 559.792414 239.931034"></polygon>
                <polygon id="Path" fill="#FC943F" points="607.947586 239.931034 645.204483 277.187931 645.204483 240.034828"></polygon>
                <rect id="Rectangle" fill="#FFFFFF" x="465.352759" y="293.273448" width="179.851724" height="42.9655172"></rect>
                <polygon id="Path" fill="#FC943F" points="465.352759 297.321379 504.374138 336.342759 465.352759 336.342759"></polygon>
                <polygon id="Path" fill="#FC943F" points="510.186552 293.273448 553.149655 336.238966 602.031379 336.238966 559.169655 293.169655"></polygon>
                <polygon id="Path" fill="#FC943F" points="607.947586 293.169655 645.204483 330.530345 645.204483 293.273448"></polygon>
                <circle id="Oval" fill="#FFC5FF" cx="65.7975862" cy="240.034828" r="15.9817241"></circle>
                <path d="M360.845172,227.475851 C353.913047,227.475851 348.293448,233.09546 348.293448,240.027586 C348.293448,246.959712 353.913047,252.57931 360.845172,252.57931 C367.777298,252.57931 373.396908,246.959712 373.396908,240.027586 C373.401389,236.697287 372.080421,233.502096 369.725542,231.147217 C367.370663,228.792337 364.175472,227.47137 360.845172,227.475851 L360.845172,227.475851 Z M360.845172,249.373793 C357.024737,249.373793 353.580532,247.072289 352.11874,243.542574 C350.656949,240.012859 351.46548,235.950132 354.167281,233.249022 C356.869082,230.547911 360.932015,229.740418 364.461356,231.203112 C367.990698,232.665806 370.291321,236.110599 370.290345,239.931034 C370.270485,245.138819 366.052962,249.355265 360.845172,249.373793 L360.845172,249.373793 Z" id="Shape" fill="#000000"></path>
                <path d="M561.66069,89.0327586 L561.66069,0.509310345 L160.034483,0.509310345 L160.034483,134.80069 C142.626675,140.186959 128.602386,153.179768 121.904515,170.126219 C115.206643,187.072669 116.558495,206.142705 125.58,221.974828 L113.228621,208.698966 C111.327742,206.651701 108.660228,205.488416 105.866552,205.488416 C103.072875,205.488416 100.405361,206.651701 98.5044828,208.698966 L98.4006897,208.802759 C94.646879,212.808248 94.7852539,219.080172 98.712069,222.916207 L100.061379,224.265517 L83.0344828,244.080345 C83.3664425,242.721797 83.540582,241.329492 83.5534483,239.931034 C83.612734,232.132841 78.5539633,225.21747 71.1039627,222.912512 C63.6539621,220.607554 55.573785,223.45786 51.2188853,229.927032 C46.8639855,236.396205 47.2637873,244.95504 52.2027855,250.990075 C57.1417838,257.025109 65.4524836,259.109762 72.6551724,256.120345 L64.7693103,265.251724 L64.7693103,265.251724 L0,340.598276 L13.802069,361.559655 L42.6541379,361.559655 L31.2368966,342.24931 L56.6637931,312.673103 L67.4582759,312.673103 L44.3148276,361.448621 L98.9027586,361.448621 L82.5058621,338.930345 L98.3837931,305.303793 C100.972727,300.242998 100.743469,294.200009 97.7785375,289.349915 C94.813606,284.499821 89.5397322,281.540677 83.8551724,281.537586 L82.6096552,281.537586 L128.688966,226.744483 C136.352529,237.672423 147.404083,245.769996 160.133448,249.784138 L160.133448,267.841724 L188.985517,267.841724 L106.064483,361.455862 L235.062414,361.455862 L235.062414,267.846552 L357.938966,267.846552 L295.462759,361.455862 L426.123793,361.455862 L363.647586,267.846552 L442.931034,267.846552 L442.931034,361.455862 L700,361.455862 L700,89.0327586 L561.66069,89.0327586 Z M51.3703156,240.034828 C51.3693685,234.199334 54.8838339,228.937897 60.2748472,226.704074 C65.6658605,224.47025 71.8716701,225.703988 75.9983327,229.82996 C80.1249953,233.955932 81.3597713,240.161535 79.12685,245.552922 C76.8939287,250.944309 71.6330803,254.459689 65.7975862,254.459689 C61.9691078,254.468008 58.2949936,252.951014 55.5876177,250.244091 C52.8802417,247.537168 51.3626325,243.863307 51.3703156,240.034828 L51.3703156,240.034828 Z M27.3989655,341.841379 L37.1531034,358.344483 L15.4627586,358.344483 L3.84034483,340.805862 L42.1351724,296.172414 C42.0011648,298.710037 42.4987857,301.241269 43.5834483,303.53931 C45.3605191,307.558346 48.812925,310.594204 53.0262069,311.842759 L27.3989655,341.841379 Z M75.8631034,284.658621 L83.8551724,284.658621 C88.4696321,284.659899 92.7524251,287.057202 95.1662069,290.99 C97.5791649,294.939124 97.7368666,299.866383 95.5813793,303.961724 L78.9768966,339.248966 L92.8827586,358.344483 L49.4006897,358.344483 L72.5417241,309.566552 L57.8175862,309.566552 C52.9974214,309.594776 48.6096666,306.790885 46.6103448,302.404828 C44.5239327,298.036083 45.2602003,292.842258 48.4786207,289.225517 L104.415862,224.154483 L100.99069,220.731724 C98.292334,218.071715 98.2003305,213.747546 100.783103,210.975172 L100.886897,210.871379 C102.194766,209.455034 104.045228,208.664614 105.972759,208.697891 C107.908826,208.684826 109.755688,209.511818 111.034483,210.965517 L125.254138,226.22069 L75.8631034,284.658621 Z M301.378966,358.344483 L360.948966,269.092069 L420.518966,358.344483 L301.378966,358.344483 Z M613.446207,217.724138 C603.243984,217.724138 594.973448,209.453602 594.973448,199.251379 C594.973448,189.049156 603.243984,180.778621 613.446207,180.778621 C623.64843,180.778621 631.918966,189.049156 631.918966,199.251379 C631.895077,209.443691 623.638519,217.70025 613.446207,217.724138 L613.446207,217.724138 Z M643.647586,241.591724 L643.647586,273.453793 L611.785517,241.591724 L643.647586,241.591724 Z M607.44069,241.591724 L643.758621,277.914483 L643.758621,281.535172 L602.868966,281.535172 L563.017241,241.683448 L607.431034,241.683448 L607.44069,241.591724 Z M509.575862,294.832759 L549.427586,334.684483 L504.893103,334.684483 L466.909655,296.701034 L466.909655,294.832759 L509.575862,294.832759 Z M558.455172,294.832759 L598.306897,334.684483 L553.772414,334.684483 L513.92069,294.832759 L558.455172,294.832759 Z M466.921724,301.060345 L500.545862,334.684483 L466.921724,334.684483 L466.921724,301.060345 Z M611.901379,337.798276 L611.901379,358.346897 L508.422069,358.346897 L508.422069,337.798276 L611.901379,337.798276 Z M602.77,334.684483 L562.918276,294.832759 L607.44069,294.832759 L643.758621,331.153103 L643.758621,334.773793 L602.757931,334.773793 L602.77,334.684483 Z M643.659655,326.692414 L611.797586,294.830345 L643.659655,294.830345 L643.659655,326.692414 Z M508.434138,291.718966 L508.434138,284.557241 L611.896552,284.557241 L611.896552,291.718966 L508.434138,291.718966 Z M506.877241,217.724138 C496.675019,217.724138 488.404483,209.453602 488.404483,199.251379 C488.404483,189.049156 496.675019,180.778621 506.877241,180.778621 C517.079464,180.778621 525.35,189.049156 525.35,199.251379 C525.32741,209.44894 517.062746,217.708208 506.865172,217.724138 L506.877241,217.724138 Z M509.575862,241.591724 L549.427586,281.443448 L504.893103,281.443448 L466.909655,243.46 L466.909655,241.591724 L509.575862,241.591724 Z M558.455172,241.591724 L598.306897,281.443448 L553.772414,281.443448 L513.92069,241.591724 L558.455172,241.591724 Z M466.921724,247.81931 L500.545862,281.443448 L466.921724,281.443448 L466.921724,247.81931 Z M508.438966,238.480345 L508.438966,220.837931 C513.308904,220.5146 517.92221,218.537104 521.514483,215.233103 L558.551724,215.233103 L558.551724,238.482759 L508.438966,238.480345 Z M558.551724,47.9355172 L537.484138,26.867931 L558.551724,5.79310345 L558.551724,47.9355172 Z M535.304483,24.6882759 L514.232069,3.62068966 L556.37931,3.62068966 L535.304483,24.6882759 Z M533.132069,26.8606897 L512.064483,47.9282759 L512.064483,5.79310345 L533.132069,26.8606897 Z M535.304483,29.0331034 L556.372069,50.1006897 L514.232069,50.1006897 L535.304483,29.0331034 Z M508.941034,3.62068966 L508.941034,50.1151724 L462.446552,50.1151724 L462.446552,3.62068966 L508.941034,3.62068966 Z M459.332759,3.62068966 L459.332759,50.1151724 L412.838276,50.1151724 L412.838276,3.62068966 L459.332759,3.62068966 Z M163.143448,3.62068966 L409.62069,3.62068966 L409.62069,50.1151724 L163.143448,50.1151724 L163.143448,3.62068966 Z M163.143448,53.2289655 L558.551724,53.2289655 L558.551724,212.013103 L524.196207,212.013103 C526.962557,208.333078 528.456267,203.852797 528.451724,199.248966 C528.451723,187.327043 518.787095,177.662415 506.865172,177.662415 C494.94325,177.662415 485.278621,187.327043 485.278621,199.248966 C485.257401,203.855479 486.752837,208.34094 489.534138,212.013103 L234.751034,212.013103 C236.566686,206.827068 237.649661,201.413006 237.968621,195.927586 L290.171724,195.927586 L290.171724,69.7296552 L182.241379,69.7296552 L182.241379,132.309655 C180.793103,132.205862 179.344828,132.102069 177.882069,132.102069 C172.91018,132.089883 167.957407,132.717802 163.143448,133.970345 L163.143448,53.2289655 Z M185.350345,132.621034 L185.350345,72.8434483 L287.055517,72.8434483 L287.055517,192.917586 L238.072414,192.917586 L238.072414,192.398621 C238.077487,162.033204 215.480701,136.411236 185.352759,132.621034 L185.350345,132.621034 Z M120.80069,192.294828 C120.80069,160.770985 146.355813,135.215862 177.879655,135.215862 C209.403497,135.215862 234.958621,160.770985 234.958621,192.294828 C234.958621,223.81867 209.403497,249.373793 177.879655,249.373793 C146.378955,249.317992 120.85649,223.795527 120.80069,192.294828 Z M163.143448,264.836552 L163.143448,250.723103 C167.963389,251.931548 172.910641,252.558767 177.879655,252.591379 C190.036288,252.600096 201.907465,248.907402 211.914138,242.004483 L191.676897,264.836552 L163.143448,264.836552 Z M232.052414,358.344483 L113.016207,358.344483 L193.134828,267.846552 L193.446207,267.846552 L193.446207,267.431379 L232.052414,223.843103 L232.052414,358.344483 Z M360.845172,263.586207 L360.014828,264.831724 L235.166207,264.831724 L235.166207,215.749655 L231.325862,220.108966 C232.211044,218.507975 232.974353,216.842573 233.60931,215.126897 L492.334138,215.126897 C495.915658,218.448959 500.536424,220.429287 505.412069,220.731724 L505.412069,238.374138 L463.894828,238.374138 L463.894828,264.732759 L361.77931,264.732759 L360.845172,263.586207 Z M446.153448,267.945517 L463.795862,267.945517 L463.795862,284.55 L505.313103,284.55 L505.313103,291.711724 L463.795862,291.711724 L463.795862,337.791034 L505.313103,337.791034 L505.313103,358.339655 L446.153448,358.339655 L446.153448,267.945517 Z M696.99,358.339655 L615.003103,358.339655 L615.003103,337.791034 L646.761379,337.791034 L646.761379,291.711724 L614.89931,291.711724 L614.89931,284.55 L646.761379,284.55 L646.761379,238.482759 L614.89931,238.482759 L614.89931,220.840345 C626.487833,220.002358 635.334173,210.142269 634.914907,198.531055 C634.49564,186.919841 624.961195,177.723459 613.342414,177.723459 C601.723633,177.723459 592.189187,186.919841 591.769921,198.531055 C591.350655,210.142269 600.196995,220.002358 611.785517,220.840345 L611.785517,238.482759 L561.66069,238.482759 L561.66069,92.1465517 L696.886207,92.1465517 L696.886207,358.344483 L696.99,358.339655 Z" id="Shape" fill="#000000"></path>
            </g>
        </g>
    </g>
</svg>