<?xml version="1.0" encoding="UTF-8"?>
<svg width="480px" height="356px" viewBox="0 0 480 356" version="1.1" xmlns="http://www.w3.org/2000/svg" xmlns:xlink="http://www.w3.org/1999/xlink">
    <title>Downloading_1</title>
    <g id="Foundation:-niceverynice.com" stroke="none" stroke-width="1" fill="none" fill-rule="evenodd">
        <g id="Main-Page" transform="translate(-755.000000, -2819.000000)">
            <g id="Block-with-Featires" transform="translate(126.000000, 2794.000000)">
                <g id="Downloading_1" transform="translate(629.000000, 25.000000)">
                    <polygon id="Rectangle" fill="#FF553E" fill-rule="nonzero" transform="translate(85.378958, 209.715467) rotate(-4.749000) translate(-85.378958, -209.715467) " points="68.6010861 192.931181 102.157902 192.930107 102.156829 226.499753 68.6000128 226.500827"></polygon>
                    <polygon id="Rectangle" fill="#000000" fill-rule="nonzero" transform="translate(151.093084, 204.263573) rotate(-4.749000) translate(-151.093084, -204.263573) " points="101.925511 187.480323 200.26173 187.477178 200.260656 221.046824 101.924438 221.049969"></polygon>
                    <polyline id="Path" fill="#9EF2EB" fill-rule="nonzero" points="402.114221 290.74996 424.232365 337.428278 410.759659 343.974177 402.114221 326.362474 397.364071 353.48026 330.622407 353.48026 338.097946 332.673594 367.146879 332.673594 371.897029 304.698783"></polyline>
                    <path d="M234.202204,168.788189 L174.118708,147.339286 C168.802941,145.421446 166.020369,139.578311 167.879678,134.237923 L186.972751,80.5047492 C188.889707,75.1843403 194.728478,72.3995653 200.064862,74.2605272 L409.305495,148.82804 L447.724783,162.555469 L472.188346,171.290807 C477.504113,173.208648 480.286685,179.051782 478.427376,184.392171 L459.334303,238.125344 C457.417347,243.445753 451.578576,246.230528 446.242192,244.369566 L402.20942,228.688353 L234.202204,168.788189 Z" id="Path" fill="#FFFFFF" fill-rule="nonzero"></path>
                    <polygon id="Rectangle" fill="#000000" fill-rule="nonzero" transform="translate(249.617906, 133.127000) rotate(-70.391000) translate(-249.617906, -133.127000) " points="238.526356 77.6147077 260.723061 77.6119885 260.709455 188.639292 238.512751 188.642012"></polygon>
                    <polyline id="Path" fill="#0189D1" fill-rule="nonzero" points="349.543568 210.79116 303.611418 310.664341 264.896266 291.204693 308.73279 196.156651"></polyline>
                    <line x1="363.485477" y1="215.075313" x2="273.858921" y2="183.212304" id="Path"></line>
                    <path d="M363.017075,213.920548 C360.726581,217.565355 361.762085,222.377332 365.347712,224.750996 C369.23156,227.087747 374.668621,225.53046 377.622833,221.403403 C374.748818,225.609227 375.447682,230.904659 379.33153,233.164284 C381.462442,234.376755 384.012914,234.60362 386.32344,233.786214 L380.807818,244.923525 L402.323651,290.480325 L358.82553,310.664341 L335.520803,263.776708 C331.786618,256.248969 331.643466,247.43289 335.131272,239.787267 L349.270576,209.100999 L363.017075,213.920548 Z" id="Path" fill="#0189D1" fill-rule="nonzero"></path>
                    <polyline id="Path" fill="#9EF2EB" fill-rule="nonzero" points="299.751037 308.798667 279.651927 354.475979 264.850868 347.752453 275.056345 324.17859 251.451462 340.950766 203.153527 316.373829 221.928124 300.839211 244.441556 312.276858 271.473431 294.732837"></polyline>
                    <path d="M237.525994,185.203742 L224.06639,180.810593 L236.150066,164.475095 C238.778648,161.114056 243.112271,159.608335 247.238047,160.622567 L247.391107,160.69887 C251.062933,161.854791 252.063461,165.554712 249.609669,168.868243 L237.525994,185.203742 Z" id="Path" fill="#FFC5FF" fill-rule="nonzero"></path>
                    <path d="M252.464328,190.182337 L239.004149,185.797454 L251.089788,169.456455 C253.718408,166.093684 258.052803,164.586798 262.17957,165.601005 L262.332655,165.678959 C266.003466,166.835269 266.997711,170.534811 264.549967,173.849458 L252.464328,190.182337 Z" id="Path" fill="#FFC5FF" fill-rule="nonzero"></path>
                    <path d="M266.405662,195.160932 L252.946058,190.769395 L265.029734,174.432227 C267.659083,171.071251 271.993082,169.565614 276.119326,170.579688 L276.270775,170.657615 C279.942601,171.813539 280.943129,175.511847 278.489337,178.825388 L266.405662,195.160932 Z" id="Path" fill="#FFC5FF" fill-rule="nonzero"></path>
                    <polygon id="Rectangle" fill="#FFFFFF" fill-rule="nonzero" transform="translate(138.516216, 255.908484) rotate(-4.749000) translate(-138.516216, -255.908484) " points="72.5699557 222.223617 204.46463 222.219398 204.462476 289.593351 72.5678017 289.59757"></polygon>
                    <polygon id="Rectangle" fill="#000000" fill-rule="nonzero" transform="translate(138.701686, 257.304512) rotate(-4.749000) translate(-138.701686, -257.304512) " points="89.5338297 249.400636 187.870048 249.397491 187.869542 265.208388 89.5333242 265.211534"></polygon>
                    <polygon id="Rectangle" fill="#FFC5FF" fill-rule="nonzero" transform="translate(129.417574, 258.062598) rotate(-4.749000) translate(-129.417574, -258.062598) " points="89.4759148 250.158426 169.359739 250.155871 169.359233 265.966769 89.4754093 265.969324"></polygon>
                    <polygon id="Rectangle" fill="#9EF2EB" fill-rule="nonzero" transform="translate(375.146810, 177.924314) rotate(-70.391000) translate(-375.146810, -177.924314) " points="364.05798 100.221981 386.254685 100.219262 386.235641 255.626648 364.038936 255.629367"></polygon>
                    <path d="M455.199802,152.066868 L402.395422,228.155673 L411.663263,231.405813 L411.586141,231.48409 L406.212171,238.527417 C403.330739,242.707099 397.800883,244.17806 393.90537,241.855833 C390.009857,239.533606 389.310831,234.269457 392.190623,230.168053 C390.92566,232.008987 389.095044,233.393498 386.972539,234.114534 C384.662162,234.969241 382.087061,234.742142 379.964226,233.496469 C376.068713,231.174242 375.369687,225.910093 378.249478,221.808688 C375.368046,225.98837 369.83819,227.457701 365.942677,225.137105 C362.127569,222.814878 361.348138,217.550729 364.229571,213.449324 L373.264404,200.522153 L409.405376,148.899899 L304.73029,111.824178 L345.306634,82.6446805 L444.451863,118.635935 C450.919146,121.014954 455.924699,126.219921 458.023552,132.748299 C460.122405,139.276677 459.08094,146.401813 455.199802,152.066868 Z" id="Path" fill="#FFC5FF" fill-rule="nonzero"></path>
                    <polygon id="Path" fill="#FFFFFF" fill-rule="nonzero" points="66.3816957 64.7759248 69.4135729 9.95719042 101.599628 60.8097495 152.365145 57.7773702 96.5464994 96.500412 109.37342 153.340733 66.3816957 100.543584 18.1026128 131.180281 45.2355393 81.6481424 5.97510373 49.2241273"></polygon>
                    <path d="M410.680341,106.792894 L406.455214,105.237913 L418.190944,78.7180324 C420.974273,79.7647579 424.102781,79.3246788 426.484588,77.551387 C429.917667,75.0261975 431.147246,70.4825182 429.451902,66.5862316 C428.736486,64.6957287 427.303495,63.159616 425.460864,62.3079858 L428.59303,55.231102 L393.225937,39.8287617 L387.906201,50.6431708 L376.795257,51.8868279 C374.388158,52.3251108 372.603655,54.3562959 372.491002,56.7860829 C372.197756,58.9095821 373.43306,60.9491591 375.458317,61.685338 C376.455321,62.0650198 377.530062,62.1988318 378.590482,62.0753121 C380.23899,61.8409999 382.423263,61.6083263 382.423263,61.6083263 L376.399615,73.8974276 C375.275451,76.5907184 375.418701,79.642072 376.790311,82.219607 C378.445167,85.0746449 381.535704,86.804413 384.849867,86.7305264 C386.414301,86.7305264 393.690816,86.6518762 393.690816,86.6518762 L388.605169,98.5510033 L384.849867,97.1516843 L391.422469,115.503409 L410.680341,106.792894 Z" id="Path" fill="#FFFFFF" fill-rule="nonzero"></path>
                    <path d="M392.365145,38.5609914 L393.46528,36.3463673 C398.112793,27.1545174 409.50793,23.3054215 419.023533,27.7131959 L419.33833,27.8660951 C428.628051,32.244518 432.718502,42.9545608 428.616576,52.1593631 L427.909109,53.7688283 L392.365145,38.5609914 Z" id="Path" fill="#9EF2EB" fill-rule="nonzero"></path>
                    <path d="M284.170517,5.43919438 L277.341879,17.5771484 L277.341879,17.5771484 C286.859046,22.962375 291.06109,34.4887995 287.252375,44.7621511 C283.443661,55.0355026 272.754478,61.007016 262.042002,58.8459294 C251.329527,56.6848427 243.77284,47.0324897 244.219602,36.0809129 C244.666364,25.1293362 252.983992,16.1285741 263.836677,14.8526698 L262.284863,0.995719042 C244.507408,3.02166039 230.843997,17.7242231 230.075452,35.6547707 C229.306907,53.5853183 241.66185,69.409992 259.200349,72.959028 C276.738847,76.508064 294.243666,66.725719 300.465292,49.89864 C306.686917,33.0715609 299.774583,14.2053542 284.170517,5.42443201 L284.170517,5.43919438 Z" id="Path" fill="#FFC5FF" fill-rule="nonzero"></path>
                    <path d="M282.821577,5.69875522 L275.985744,17.9229428 C272.665652,16.0326183 268.920366,15.0338338 265.108323,15.0221761 C264.175271,15.0221761 263.320792,15.1014681 262.466313,15.1873678 L260.912863,1.23197101 C262.331515,1.07288287 263.757876,0.994018239 265.185259,0.995719042 C271.363026,1.03704507 277.430028,2.65490906 282.821577,5.69875522 L282.821577,5.69875522 Z" id="Path" fill="#000000" fill-rule="nonzero"></path>
                    <polygon id="Path" fill="#0189D1" fill-rule="nonzero" points="414.601657 107.850428 403.8182 133.518215 367.282254 119.988793 377.987262 94.5523063 367.282254 90.6104329 351.53527 128.260211 408.162309 148.362137 412.506417 142.177305 425.228216 111.715745"></polygon>
                    <path d="M202.52883,218.119821 L202.52883,218.119821 L199.5742,182.216585 L101.485381,190.430196 L101.485381,190.430196 L65.7261411,193.396588 L68.5297574,226.95143 L68.5297574,226.95143 L74.2962119,296.724275 L208.13278,285.537679 L202.52883,218.119821 Z M101.636396,192.776942 L197.464921,184.798994 L200.03545,216.086194 L124.62014,222.348578 L104.285715,224.067437 L102.961055,208.424661 L101.636396,192.776942 Z M88.7821101,225.316618 L72.4216628,226.646551 L85.1987996,211.549261 L100.234587,224.37726 L88.7821101,225.316618 Z M101.792334,222.500193 L86.7565466,209.672194 L99.5336833,194.576553 L100.702404,208.584517 L101.792334,222.500193 Z M84.9640705,208.185702 L69.9282827,195.357703 L97.7412073,193.010957 L84.9640705,208.185702 Z M83.4063235,209.985313 L70.6291868,225.080955 L68.2917455,197.157314 L83.4063235,209.985313 Z M71.0182131,229.148208 L102.183002,226.567447 L102.183002,226.567447 L157.030799,221.953059 L200.270179,218.353836 L205.645966,283.433189 L76.4727899,294.227561 L71.0182131,229.148208 Z" id="Shape" fill="#000000" fill-rule="nonzero"></path>
                    <path d="M187.739017,244.946884 L169.333137,246.473819 L169.333137,246.473819 L87.6348548,253.118959 L89.107456,270.83558 L170.805739,264.192048 L170.805739,264.192048 L189.211618,262.665114 L187.739017,244.946884 Z M91.2852697,268.315897 L90.197181,255.180079 L167.237135,248.917879 L168.323587,262.053696 L91.2852697,268.315897 Z M170.65357,261.82522 L169.567117,248.689402 L185.643015,247.390945 L186.729467,260.526762 L170.65357,261.82522 Z" id="Shape" fill="#000000" fill-rule="nonzero"></path>
                    <path d="M478.901259,176.074648 C477.608636,173.348341 475.283419,171.248461 472.439077,170.238718 L449.390791,162.06612 L455.852973,152.719449 C459.969934,146.759452 461.091409,139.229054 458.889657,132.328948 C456.727745,125.41843 451.454749,119.917422 444.639717,117.462822 L407.964905,104.077406 L418.7106,79.6448798 C421.027841,80.3634973 423.540089,80.0817201 425.640343,78.8676303 C427.918661,77.5671526 429.658457,75.4973887 430.547271,73.0300604 C432.146406,68.7192362 430.604878,63.8737923 426.808425,61.2778515 L430.156817,53.5709474 C434.523169,43.6353307 430.215985,32.0290752 420.423349,27.342877 L420.113283,27.1789003 C410.108329,22.4222451 398.136415,26.5875425 393.249045,36.5255712 L392.937337,37.0699738 L371.050571,7.96575234 L369.181968,9.36611321 L391.762693,39.4082813 L387.090367,49.0583091 L376.968086,50.2258231 C373.575037,50.5354195 371.069443,53.5263101 371.360638,56.9193513 L371.360638,56.9964203 C371.470177,58.6884462 372.260607,60.2640092 373.551695,61.3638507 C374.842782,62.4636922 376.52446,62.9940493 378.213274,62.8339903 L380.472331,62.6011434 L375.41119,72.8742826 C373.825698,76.0324288 374.03296,79.7937861 375.955858,82.758797 C377.832338,85.7170449 381.093936,87.5085668 384.59835,87.505922 L384.677097,87.505922 L391.8398,87.4288529 L387.946741,96.690256 L344.96396,80.9681716 L304.39609,110.30688 L200.599236,73.3416161 C194.66607,71.2559484 188.161396,74.3503025 186.039229,80.2679912 L166.961108,133.888367 C164.867531,139.819442 167.965506,146.326132 173.890851,148.442937 L232.368761,169.300771 L222.791147,181.908938 L238.832584,187.046328 L238.832584,187.046328 L252.536216,191.481897 L252.536216,191.481897 L266.241489,195.919106 L274.729768,184.555522 L306.965213,195.996175 L263.048951,290.869804 L269.201067,293.905013 L244.438391,310.015722 L221.857666,298.49636 L201.153746,315.777862 L251.610938,341.694377 L272.401807,326.751182 L263.445968,347.764794 L280.265031,355.471698 L300.35538,309.558227 L304.015479,311.425921 L331.649142,251.490804 C331.490707,256.214586 332.535622,260.901158 334.685826,265.110707 L358.51338,312.975501 L370.971824,307.21664 L366.767058,332.044349 L337.878364,332.044349 L329.624685,355.165062 L398.927037,355.165062 L403.20891,330.650548 L410.839174,346.138145 L426.335943,338.50995 L403.753577,290.879643 L403.753577,290.879643 L382.426243,245.738502 L387.487383,235.465363 C388.021862,235.236797 388.54229,234.976709 389.045919,234.686473 C388.91472,235.74815 388.940701,236.823352 389.123026,237.87746 C389.567696,240.151054 390.953927,242.130506 392.938978,243.326405 C394.352561,244.162158 395.969079,244.592755 397.611305,244.570988 C401.282535,244.501555 404.698348,242.678642 406.798464,239.668085 L411.703751,233.207404 L445.576479,245.271168 C446.796866,245.728865 448.088973,245.96595 449.392431,245.971349 C451.085603,245.954303 452.756482,245.583425 454.297718,244.882544 C457.026297,243.590515 459.127878,241.265739 460.138127,238.421862 L479.214607,184.801487 C480.361888,181.981308 480.247852,178.805368 478.901259,176.074648 L478.901259,176.074648 Z M408.665426,147.590258 L353.841053,128.054076 L368.791514,92.3317558 L377.279793,95.4473127 L366.616126,121.053912 L405.471248,135.529773 L416.298971,109.690327 L424.785609,112.805884 L412.481378,142.146232 L408.665426,147.590258 Z M379.463384,96.2229225 L383.90111,97.8626893 L390.674999,116.929898 L410.609495,107.668495 L414.034993,108.913078 L404.147312,132.573274 L369.65117,119.73226 L379.463384,96.2229225 Z M419.020667,29.2892802 L419.332374,29.4450581 C428.011329,33.571786 431.81261,43.8646779 427.89776,52.6379201 L427.663159,53.1839625 L394.648446,38.7081009 L395.27186,37.5405869 C399.590932,28.7529888 410.179499,25.0740877 419.020667,29.2892802 L419.020667,29.2892802 Z M389.198492,99.7254644 L395.348967,85.093825 L384.603271,85.170894 L384.526165,85.170894 C381.818838,85.1608673 379.299747,83.7847377 377.829382,81.5125742 C376.347388,79.2219043 376.199209,76.3153945 377.440568,73.8860187 L378.529903,71.5509907 C380.413331,72.7454798 382.546334,73.4911069 384.764047,73.7302408 C385.228581,73.7956583 385.697789,73.821987 386.166729,73.8089496 C389.179259,73.8335403 392.11286,72.8467171 394.497514,71.0065881 L393.096472,69.1388937 C390.773091,70.8738967 387.884971,71.6786213 384.998647,71.3952129 C383.067146,71.2332752 381.213169,70.5622071 379.6258,69.4504494 L384.383436,59.7987818 L377.919613,60.4989623 C376.8716,60.5992094 375.828809,60.2614759 375.038782,59.565935 C374.233679,58.8758825 373.73079,57.898258 373.637741,56.8422823 L373.637741,56.7635734 C373.470612,54.6161682 375.071421,52.7376159 377.219092,52.5608511 L388.588202,51.2375592 L393.649342,40.8086422 L426.731319,55.3632126 L424.551009,60.3431844 C422.135476,59.6340449 419.532909,59.9732676 417.380103,61.2778515 L418.548185,63.3013238 C420.211673,62.2967647 422.231356,62.0691366 424.076886,62.6782124 C427.871125,64.2165615 429.715023,68.5247063 428.207826,72.32988 C427.573777,74.2938015 426.207167,75.9381044 424.391874,76.9212271 C422.762087,77.8649882 420.805148,78.0632747 419.019026,77.4656297 C416.230504,76.4237763 414.393824,73.7474601 414.425447,70.7721015 L412.089283,70.8508103 C412.078833,74.0917693 413.722858,77.1142406 416.449903,78.8676303 L404.69198,105.563034 L407.416957,106.57477 L391.921828,113.812701 L386.704834,99.025284 L389.198492,99.7254644 Z M345.280589,83.6918243 L366.607923,91.4757975 L351.657462,127.276827 L306.970135,111.398964 L345.280589,83.6918243 Z M237.987693,165.568662 C239.887146,163.204109 242.740367,161.806433 245.77381,161.754564 C246.513092,161.732425 247.25066,161.83782 247.95412,162.06612 L248.109974,162.143189 C249.341779,162.452929 250.336142,163.359367 250.757844,164.556926 C251.124547,165.990207 250.743991,167.511692 249.745616,168.60387 L237.908946,184.403024 L226.541477,180.744704 L237.987693,165.568662 Z M251.683123,169.927162 C253.583233,167.562538 256.436969,166.164905 259.470881,166.113064 C260.210155,166.091057 260.9477,166.196448 261.65119,166.42462 L261.807044,166.501689 C263.038368,166.811645 264.032139,167.718105 264.453274,168.915426 C264.821521,170.348703 264.440781,171.870922 263.441046,172.96237 L251.606016,188.761524 L240.236906,185.103204 L251.683123,169.927162 Z M265.463862,193.197093 L254.096392,189.538773 L265.463862,174.362731 C267.364411,171.998655 270.217873,170.601156 273.25162,170.548634 C273.990894,170.526626 274.728439,170.632018 275.431929,170.860189 L275.587783,170.938898 C276.81873,171.248533 277.812422,172.154306 278.234013,173.350995 C278.60257,174.784271 278.221793,176.306638 277.221785,177.39794 L265.463862,193.197093 Z M279.169135,178.721231 C280.590897,177.011712 281.085422,174.714852 280.49307,172.572106 C279.808362,170.670071 278.241356,169.219414 276.291585,168.682579 L276.127529,168.60551 C275.175858,168.287424 274.177947,168.129498 273.174513,168.138176 C270.983621,168.162533 268.836185,168.752226 266.940369,169.850093 C266.944817,169.271268 266.866368,168.694786 266.707409,168.138176 C266.022493,166.234728 264.454033,164.783246 262.502643,164.24701 L262.34679,164.168301 C261.394831,163.851567 260.397056,163.694217 259.393774,163.702607 C257.202768,163.726147 255.055127,164.315896 253.15963,165.414524 C253.164078,164.835699 253.085629,164.259217 252.92667,163.702607 C252.240299,161.799784 250.672556,160.348354 248.721904,159.809801 L248.566051,159.732732 C247.61438,159.414646 246.616469,159.25672 245.613035,159.265398 C241.834354,159.281972 238.27355,161.035806 235.958315,164.020722 L233.543405,167.288777 L174.364974,146.196456 C169.644634,144.508867 167.174351,139.327457 168.836273,134.600025 L187.914394,80.97965 C188.725133,78.715705 190.405178,76.8680805 192.582675,75.8457205 C194.760172,74.8233604 197.255539,74.7105811 199.516463,75.5323446 L407.108531,149.469431 L392.158069,170.950376 L368.791514,162.615442 L346.835844,154.828189 L346.835844,154.828189 L325.889121,147.355772 L325.889121,147.355772 L306.038294,140.273619 L306.038294,140.273619 L200.366276,102.599976 L192.112597,125.720688 L297.782976,163.389412 L297.782976,163.389412 L319.819033,171.250454 L319.819033,171.250454 L340.764116,178.721231 L340.764116,178.721231 L361.710839,186.193649 L361.710839,186.193649 L377.673528,191.873801 L362.873999,213.12026 C362.796893,213.197329 362.796893,213.276038 362.718146,213.353107 L276.127529,182.535329 L279.169135,178.721231 Z M379.227143,189.929038 L362.719786,184.014399 L363.810761,180.97919 L369.416569,165.334175 L391.063813,173.041079 L379.227143,189.929038 Z M360.46237,183.23551 L341.773063,176.541981 L345.121454,167.19531 L348.476408,157.860118 L367.164074,164.553646 L361.24656,181.130049 L360.46237,183.23551 Z M339.515647,175.763092 L320.82798,169.071204 L324.176372,159.724533 L327.524763,150.377862 L346.21243,157.07139 L342.864038,166.418061 L339.515647,175.763092 Z M318.647671,168.369383 L299.960004,161.677495 L306.655147,142.997271 L325.344453,149.690799 L321.996062,159.03747 L318.647671,168.369383 Z M297.700947,160.898606 L195.306776,124.397396 L202.001918,105.715533 L304.39609,142.218382 L297.700947,160.898606 Z M279.090387,352.357781 L266.47609,346.59892 L277.845199,319.980585 L251.448522,338.970724 L205.427416,315.310529 L222.24648,301.302001 L244.672992,312.742654 L271.698005,295.152875 L298.329283,308.461223 L279.090387,352.357781 Z M302.917941,308.151307 L266.169304,289.785918 L309.229192,196.781623 L348.005566,210.555665 L302.917941,308.151307 Z M411.931789,342.861891 L402.198322,323.094502 L396.981328,352.746406 L332.973077,352.746406 L339.591113,334.300669 L368.870261,334.300669 L373.696801,305.972057 L402.273788,292.740778 L423.376365,337.258808 L411.931789,342.861891 Z M379.850557,245.731943 L401.177891,290.717306 L359.681461,309.866503 L336.866136,264.025182 C333.264426,256.82102 333.149646,248.36765 336.554428,241.068446 L350.259701,211.337833 L361.861771,215.463487 C361.143175,217.267073 360.954226,219.238122 361.317104,221.145279 C361.761816,223.417979 363.147365,225.396713 365.131415,226.592584 C366.520725,227.417626 368.109006,227.847955 369.724995,227.837167 C371.613347,227.816875 373.464305,227.308462 375.097843,226.361377 C374.966668,227.423054 374.992649,228.498254 375.174949,229.552363 C375.618691,231.825929 377.005222,233.805214 378.990901,234.999669 C380.379851,235.825562 381.968373,236.255956 383.584481,236.244252 C383.89817,236.256926 384.212228,236.231043 384.519603,236.167183 L379.850557,245.731943 Z M404.923299,238.415303 C402.354176,242.073623 397.525995,243.475624 394.259632,241.452151 C392.843903,240.576943 391.835939,239.173442 391.459189,237.552786 C391.043394,235.371456 391.550651,233.115435 392.860231,231.321672 L390.914522,229.99838 C388.345398,233.6567 383.517218,235.0587 380.250855,233.033588 C378.835886,232.161016 377.827395,230.760556 377.448771,229.142422 C377.032171,226.961078 377.5395,224.704739 378.849813,222.911308 L376.902463,221.588016 C374.33334,225.246336 369.50516,226.646697 366.238796,224.623224 C364.823837,223.750296 363.814935,222.350085 363.435072,220.732058 C363.019141,218.55049 363.527051,216.294208 364.837754,214.500944 L414.427087,143.308827 L426.806785,113.578215 L443.704595,119.72734 C449.824775,121.968456 454.566312,126.909217 456.551853,133.114397 C458.575578,139.299268 457.565889,146.075663 453.826876,151.402716 L430.858978,184.791648 L430.703124,184.714579 L430.468524,185.41476 L400.255894,229.1539 L409.443053,232.423595 L404.923299,238.415303 Z M420.108361,204.481968 L427.426918,193.897273 L423.300899,205.572413 L420.108361,204.481968 Z M432.099245,187.671079 L450.786911,194.364607 L444.090128,213.043191 L425.402462,206.351303 L432.099245,187.671079 Z M477.106482,184.014399 L458.028361,237.634774 C457.228539,239.907004 455.543338,241.75935 453.356034,242.770524 C451.183091,243.789694 448.700023,243.929534 446.426291,243.160788 L403.833965,227.983107 L418.705679,206.425092 L424.623194,208.527273 L424.623194,208.527273 L445.569917,215.998051 L453.823595,192.877339 L433.186939,185.572177 L448.060293,164.014163 L471.731994,172.419608 C474.005218,173.218331 475.858529,174.902179 476.87024,177.088024 C477.838464,179.280803 477.919602,181.763129 477.096638,184.014399 L477.106482,184.014399 Z" id="Shape" fill="#000000" fill-rule="nonzero"></path>
                    <path d="M248.119281,69.8668925 C256.745963,74.7391131 266.95733,75.9710476 276.494168,73.2901366 C286.031006,70.6092256 294.107144,64.2364704 298.935779,55.5818109 C303.797292,46.9608829 305.024253,36.7566627 302.34506,27.22796 C299.665868,17.6992574 293.301509,9.63202764 284.660802,4.81203565 C276.03412,-0.0601849273 265.822753,-1.29211939 256.285915,1.38879158 C246.749077,4.06970255 238.672939,10.4424578 233.844304,19.0971172 C228.982791,27.7180452 227.75583,37.9222655 230.435023,47.4509681 C233.114215,56.9796708 239.478574,65.0469005 248.119281,69.8668925 L248.119281,69.8668925 Z M282.41159,6.2104493 L276.752599,16.3019255 C273.526548,14.6786783 269.967501,13.8281438 266.356532,13.8174924 C265.810486,13.8041893 265.264193,13.8304269 264.72193,13.8959998 L263.325981,2.40610996 C264.33453,2.3292381 265.343079,2.25073067 266.351628,2.25073067 C271.939007,2.30972959 277.436495,3.66518154 282.41159,6.2104493 L282.41159,6.2104493 Z M266.351628,16.1465368 C275.876852,16.137608 284.226703,22.515978 286.728501,31.7122397 C289.230299,40.9085015 285.263476,50.6415391 277.047917,55.464622 C268.832358,60.2877049 258.405918,59.0044762 251.603363,52.3330467 C244.800808,45.6616173 243.3095,35.2568231 247.963994,26.9413182 C251.700293,20.2895228 258.725783,16.1650897 266.351628,16.1465368 L266.351628,16.1465368 Z M235.861403,20.1831367 C241.129395,10.786594 250.430874,4.34319478 261.075134,2.71686855 L262.472719,14.2051228 C251.277969,16.0653243 243.005658,25.6563116 242.803899,37.009318 C242.60214,48.3623244 250.528438,58.241526 261.650014,60.4987913 C272.771589,62.7560566 283.918581,56.7480219 288.153873,46.2136722 C292.389164,35.6793225 288.505617,23.621149 278.920081,17.5433243 L284.583976,7.45184807 C300.707054,17.23498 306.16542,38.0529148 296.91868,54.4957915 C290.69122,65.525465 279.012226,72.3470446 266.351628,72.3496901 C250.707243,72.3066647 236.991684,61.8796739 232.757294,46.8102409 C230.14013,37.8806222 231.260474,28.2702928 235.861403,20.1831367 L235.861403,20.1831367 Z" id="Shape" fill="#000000" fill-rule="nonzero"></path>
                    <ellipse id="Oval" fill="#000000" fill-rule="nonzero" cx="394.854772" cy="53.2709688" rx="2.48962656" ry="2.48929761"></ellipse>
                    <path d="M400.968287,54.284299 C400.895537,54.8357894 400.739652,55.3746643 400.505352,55.8846164 L402.664092,56.7559854 C402.986091,56.037748 403.194074,55.2786965 403.281339,54.5032898 C403.634576,51.122842 401.506295,47.9483746 398.115957,46.798795 L397.344398,48.8340312 C399.732456,49.6554592 401.224807,51.8999307 400.968287,54.284299 L400.968287,54.284299 Z" id="Path" fill="#000000" fill-rule="nonzero"></path>
                    <polygon id="Rectangle" fill="#000000" fill-rule="nonzero" transform="translate(397.758777, 69.672302) rotate(-8.685000) translate(-397.758777, -69.672302) " points="396.591238 62.7015053 398.927123 62.7013701 398.926316 76.6430991 396.590431 76.6432342"></polygon>
                    <path d="M96.6680547,97.5775952 L155.352697,57.0046544 L101.026726,60.1852435 L67.2462016,6.9700333 L64.1305222,63.9100957 L0,47.3795316 L42.5798593,82.4493668 L13.6991506,135.046765 L64.9897938,102.541341 L110.521349,158.319328 L96.6680547,97.5775952 Z M20.0026621,128.304766 L45.4544836,81.9851904 L9.49626301,52.3514494 L66.2344257,66.9354145 L69.1156093,14.4164689 L99.7804544,62.5911156 L147.179778,59.8011538 L94.0213669,96.5756933 L105.929822,149.248275 L65.3735143,99.5944743 L20.0026621,128.304766 Z" id="Shape" fill="#000000" fill-rule="nonzero"></path>
                </g>
            </g>
        </g>
    </g>
</svg>