<?xml version="1.0" encoding="UTF-8"?>
<svg width="480px" height="464px" viewBox="0 0 480 464" version="1.1" xmlns="http://www.w3.org/2000/svg" xmlns:xlink="http://www.w3.org/1999/xlink">
    <title>Coding website</title>
    <g id="Foundation:-niceverynice.com" stroke="none" stroke-width="1" fill="none" fill-rule="evenodd">
        <g id="Main-Page" transform="translate(-165.000000, -2025.000000)" fill-rule="nonzero">
            <g id="Block-with-Quote" transform="translate(0.000000, 1881.000000)">
                <g id="Coding-website" transform="translate(165.000000, 144.000000)">
                    <circle id="Oval" fill="#FFFFFF" cx="47.8947368" cy="160.526316" r="6.84210526"></circle>
                    <path d="M451.578947,191.578947 L451.578947,436.238924 C451.560685,450.518882 439.977754,462.089758 425.685659,462.105263 L26.9492335,462.105263 C12.6554664,462.092493 1.06998598,450.520551 1.05263158,436.238924 L1.05263158,191.578947 L451.578947,191.578947 Z" id="Path" fill="#FFFFFF"></path>
                    <rect id="Rectangle" fill="#52BBEF" x="416.842105" y="287.368421" width="48.4210526" height="62.1052632"></rect>
                    <rect id="Rectangle" fill="#FFFFFF" x="465.263158" y="287.368421" width="13.6842105" height="62.1052632"></rect>
                    <rect id="Rectangle" fill="#FFC5FF" x="355.789474" y="287.368421" width="62.1052632" height="62.1052632"></rect>
                    <rect id="Rectangle" fill="#FFC5FF" x="355.789474" y="348.421053" width="62.1052632" height="62.1052632"></rect>
                    <path d="M451.578947,176.185034 L451.578947,191.578947 L1.05263158,191.578947 L1.05263158,176.185034 C1.06815846,162.019215 12.6539061,150.539896 26.9492332,150.526316 L425.685653,150.526316 C432.554463,150.521526 439.143334,153.223307 444.000317,158.036289 C448.8573,162.849271 451.583781,169.378451 451.578947,176.185034 L451.578947,176.185034 Z" id="Path" fill="#FFDB43"></path>
                    <ellipse id="Oval" fill="#000000" cx="75.7894737" cy="224.736842" rx="10.5263158" ry="10"></ellipse>
                    <ellipse id="Oval" fill="#000000" cx="58.9473684" cy="239.473684" rx="10.5263158" ry="10"></ellipse>
                    <ellipse id="Oval" fill="#000000" cx="40" cy="230" rx="10.5263158" ry="10"></ellipse>
                    <circle id="Oval" fill="#FFFFFF" cx="56.8421053" cy="170.526316" r="8.42105263"></circle>
                    <circle id="Oval" fill="#FFFFFF" cx="85.2631579" cy="170.526316" r="8.42105263"></circle>
                    <path d="M171.49512,295.943973 L144.807491,310.188152 L130.506066,283.897788 L156.602618,283.897788 L156.602618,267.368421 L93.9418356,267.368421 L84.2105263,303.727435 L101.911471,303.727435 L103.607103,297.40985 L124.530904,330.763076 C129.202499,337.942069 137.10541,342.387148 145.687503,342.662838 C150.495316,342.714039 155.237953,341.552106 159.4738,339.285234 L174.954077,331.129956 L188.81302,360 L227.368421,341.634585 L205.25256,306.743094 C205.25256,306.743094 202.671963,300.205052 192.131638,295.577093 C185.491447,292.884535 178.034696,293.017103 171.49512,295.943973 L171.49512,295.943973 Z" id="Path" fill="#FFC5FF"></path>
                    <path d="M371.006956,443.157895 L406.88778,443.157895 C412.385402,443.157895 416.842105,438.730324 416.842105,433.268639 L416.842105,433.047151 C416.842105,427.585466 412.385402,423.157895 406.88778,423.157895 L371.006956,423.157895 C365.509335,423.157895 361.052632,427.585466 361.052632,433.047151 L361.052632,433.268639 C361.052632,438.730324 365.509335,443.157895 371.006956,443.157895 Z" id="Path" fill="#52BBEF"></path>
                    <path d="M230.962907,443.157895 L333.247619,443.157895 C335.875988,443.157895 338.396705,442.115994 340.255242,440.261399 C342.113779,438.406803 343.157895,435.891432 343.157895,433.268639 L343.157895,433.047151 C343.157895,427.585466 338.720913,423.157895 333.247619,423.157895 L230.962907,423.157895 C225.489613,423.157895 221.052632,427.585466 221.052632,433.047151 L221.052632,433.268639 C221.078917,438.719422 225.500538,443.131665 230.962907,443.157895 Z" id="Path" fill="#FFDB43"></path>
                    <path d="M39.3687739,443.157895 L193.261151,443.157895 C198.726326,443.157895 203.157895,438.730591 203.157895,433.268639 L203.157895,433.047151 C203.157895,427.585198 198.726326,423.157895 193.261151,423.157895 L39.3687739,423.157895 C33.9038668,423.157895 29.4736842,427.585466 29.4736842,433.047151 L29.4736842,433.268639 C29.4736842,438.730324 33.9038668,443.157895 39.3687739,443.157895 Z" id="Path" fill="#52BBEF"></path>
                    <path d="M276.271287,403.157895 L289.969699,403.157895 C295.509281,403.157895 300,398.73064 300,393.269423 L300,393.046302 C300,390.423733 298.943239,387.908578 297.062193,386.054142 C295.181146,384.199706 292.6299,383.157895 289.969699,383.157895 L276.346729,383.157895 C273.686527,383.157895 271.135281,384.199706 269.254234,386.054142 C267.373188,387.908578 266.316427,390.423733 266.316427,393.046302 L266.316427,393.267771 C266.286329,395.88657 267.322977,398.407843 269.194178,400.266864 C271.06538,402.125885 273.614756,403.167294 276.271287,403.157895 Z" id="Path" fill="#52BBEF"></path>
                    <path d="M157.318029,403.157895 L238.471444,403.157895 C243.966461,403.157895 248.421053,398.73069 248.421053,393.269456 L248.421053,393.046334 C248.421053,390.423757 247.372793,387.908593 245.50688,386.054151 C243.640966,384.199709 241.110245,383.157895 238.471444,383.157895 L157.318029,383.157895 C154.679229,383.157895 152.148507,384.199709 150.282594,386.054151 C148.41668,387.908593 147.368421,390.423757 147.368421,393.046334 L147.368421,393.267803 C147.393902,398.718782 151.833336,403.131659 157.318029,403.157895 Z" id="Path" fill="#FFC5FF"></path>
                    <path d="M39.3921221,403.157895 L119.555247,403.157895 C125.033048,403.157895 129.473684,398.73069 129.473684,393.269456 L129.473684,393.046334 C129.473684,390.423757 128.428709,387.908593 126.568641,386.054151 C124.708573,384.199709 122.18578,383.157895 119.555247,383.157895 L39.3921221,383.157895 C36.7615888,383.157895 34.2387954,384.199709 32.3787275,386.054151 C30.5186596,387.908593 29.4736842,390.423757 29.4736842,393.046334 L29.4736842,393.267803 C29.4736842,395.890666 30.5180258,398.406254 32.3781413,400.261054 C34.2382569,402.115853 36.7613016,403.157895 39.3921221,403.157895 L39.3921221,403.157895 Z" id="Path" fill="#FFDB43"></path>
                    <path d="M39.3589836,363.157895 L160.641016,363.157895 C166.100516,363.157895 170.526316,358.730324 170.526316,353.268639 L170.526316,353.047151 C170.526316,347.585466 166.100516,343.157895 160.641016,343.157895 L39.3589836,343.157895 C33.8994835,343.157895 29.4736842,347.585466 29.4736842,353.047151 L29.4736842,353.268639 C29.4736842,358.730324 33.8994835,363.157895 39.3589836,363.157895 Z" id="Path" fill="#52BBEF"></path>
                    <rect id="Rectangle" fill="#FFDB43" x="355.789474" y="287.368421" width="62.1052632" height="62.1052632"></rect>
                    <rect id="Rectangle" fill="#FFC5FF" x="355.789474" y="348.421053" width="62.1052632" height="62.1052632"></rect>
                    <path d="M200.657565,284.210526 L156.842105,284.210526 L156.842105,267.368421 L200.218997,267.368421 C200.218997,267.368421 208.421053,267.893113 208.421053,275.902626 C208.421053,283.912139 200.657565,284.210526 200.657565,284.210526 Z" id="Path" fill="#FFFFFF"></path>
                    <rect id="Rectangle" fill="#000000" x="173.684211" y="221.052632" width="70.5263158" height="46.3157895"></rect>
                    <path d="M84.3859079,304.210526 L77.0021541,331.891071 L57.653908,331.891071 C54.4321112,331.981258 51.808564,334.522336 51.5997261,337.754946 C51.1565355,343.987805 57.9499197,344.137394 57.9499197,344.137394 L91.4719963,344.210526 L102.105263,304.210526 L84.3859079,304.210526 Z" id="Path" fill="#FFFFFF"></path>
                    <polygon id="Path" fill="#000000" points="189.473684 360.178363 200.024787 382.105263 252.631579 358.480231 211.902834 349.473684"></polygon>
                    <path d="M409.836156,113.684211 L325.681371,113.684211 C325.681371,113.684211 309.902971,113.830799 302.494921,126.921616 C298.423295,134.125536 297.824611,142.763513 300.863988,150.453135 L336.644953,221.052632 L378.123397,201.782052 L351.238729,150.60137 L386.205057,150.380664 C386.205057,150.380664 401.243481,149.792664 408.279884,135.886553 C412.048775,129.069107 412.617593,120.95414 409.836156,113.684211 Z" id="Path" fill="#FFC5FF"></path>
                    <path d="M319.685,92.2658357 L319.906028,91.9697368 L321.60003,89.984716 L301.052632,78.2400094 L314.901548,52.160144 C314.901548,52.160144 321.603329,37.2410582 337.004394,36.870521 C345.569807,36.4759509 353.807743,40.2089929 359.173217,46.9163806 L399.604929,98.9867854 L405.275793,106.298279 L407.779683,109.992072 L409.473684,113.684211 L336.12028,113.46255 L319.685,92.2658357 Z" id="Path" fill="#52BBEF"></path>
                    <path d="M288.4203,29.4736842 C288.4203,29.4736842 278.374802,20.3055334 283.623377,9.94211757 C289.995208,-2.80348169 300.715667,0.401698473 302.065589,0.259802476 C303.789929,0.111229021 307.987446,2.71877664 308.96127,3.38986123 C310.260623,4.52778054 311.486493,5.7460531 312.631579,7.03742304 L288.4203,29.4736842 Z" id="Path" fill="#52BBEF"></path>
                    <polygon id="Path" fill="#52BBEF" points="276.664577 137.894737 190.526316 137.894737 193.93479 149.473684 280 149.473684"></polygon>
                    <polygon id="Path" fill="#000000" points="123.157895 80 143.412761 149.473684 193.684211 149.473684 190.309769 138.090191 150.751718 138.090191 134.606011 80"></polygon>
                    <polyline id="Path" fill="#FFFFFF" points="204.04019 79.4635508 134.736842 79.4635508 150.939403 137.894737 221.052632 137.894737 204.70327 79.4635508 203.965965 78.9473684"></polyline>
                    <path d="M340.509439,266.0797 L397.894737,237.935364 L378.640809,201.052632 L352.426011,213.420414 L357.235761,234.305977 L330.576476,248.1567 C325.744189,250.832551 323.882104,256.844021 326.355505,261.783488 C326.355505,261.783488 331.110524,270.598188 340.509439,266.0797 Z" id="Path" fill="#000000"></path>
                    <path d="M107.176804,239.662812 L104.70096,234.685318 C103.812988,232.939611 102.446831,231.4947 100.768641,230.526316 L87.3684211,251.843698 L95.0879005,267.368421 L122.105263,267.368421 L112.275282,249.02223 L115.989048,244.270986 L107.176804,239.662812 Z" id="Path" fill="#FFFFFF"></path>
                    <path d="M85.5246147,231.515312 C82.4746769,234.860357 81.3664832,239.573287 82.6003937,243.95145 L86.5479283,251.578947 L100,230.331392 C95.4576898,227.39793 89.5432333,227.881665 85.5246147,231.515312 Z" id="Path" fill="#000000"></path>
                    <path d="M322.639273,41.4020163 C320.107173,43.7566565 317.823774,46.3659665 315.825154,49.1887169 L312.270467,55.7894737 L301.67939,44.1459645 C301.67939,44.1459645 300.493388,45.4066526 298.27233,47.3350569 C296.115964,49.2634612 293.087098,47.1872292 293.087098,47.1872292 C291.415907,45.4801658 291.319542,42.7789956 292.864827,40.9568721 L295.976629,37.9903518 L288.421053,29.7585071 L312.270467,7.36842105 L337.894737,36.1366919 C332.397518,36.3211343 327.082514,38.1555734 322.639273,41.4020163 Z" id="Path" fill="#FFFFFF"></path>
                    <path d="M301.380275,77.8947368 L282.446683,113.066547 L275.094802,108.082561 C272.7061,106.406352 269.857179,105.486576 266.926229,105.445332 C262.172455,105.445332 258.533107,110.204489 257.418682,111.81932 C256.304256,113.434151 247.467028,126.03607 247.467028,126.03607 C247.467028,126.03607 243.679644,132.629964 249.843915,136.374929 C249.843915,136.374929 255.71045,138.508344 258.978877,133.737699 L262.693075,128.241694 L276.357263,136.888589 C279.476765,138.523302 283.017529,139.208625 286.531802,138.857896 C292.621222,138.345876 296.929226,133.363531 299.306112,129.339582 C301.682999,125.23686 322.105263,89.625238 322.105263,89.625238 L301.380275,77.8947368 Z" id="Path" fill="#FFFFFF"></path>
                    <path d="M27.3684211,180 C32.6005924,180 36.8421053,175.758487 36.8421053,170.526316 C36.8421053,165.294144 32.6005924,161.052632 27.3684211,161.052632 C22.1362497,161.052632 17.8947368,165.294144 17.8947368,170.526316 C17.9125114,175.751107 22.1436299,179.982225 27.3684211,180 Z M27.3684211,163.223043 C30.3231216,163.223043 32.9868529,165.002998 34.1174165,167.732848 C35.2479801,170.462699 34.6227075,173.60479 32.5331871,175.693847 C30.4436666,177.782904 27.3014366,178.40748 24.5718373,177.276311 C21.842238,176.145142 20.0628735,173.481016 20.0635284,170.526316 C20.0786326,166.498471 23.3405729,163.237254 27.3684211,163.223043 Z" id="Shape" fill="#000000"></path>
                    <path d="M56.8421053,180 C62.0742766,180 66.3157895,175.758487 66.3157895,170.526316 C66.3157895,165.294144 62.0742766,161.052632 56.8421053,161.052632 C51.6099339,161.052632 47.3684211,165.294144 47.3684211,170.526316 C47.3861956,175.751107 51.6173141,179.982225 56.8421053,180 Z M56.8421053,163.223043 C59.7968058,163.223043 62.4605371,165.002998 63.5911007,167.732848 C64.7216643,170.462699 64.0963918,173.60479 62.0068713,175.693847 C59.9173509,177.782904 56.7751208,178.40748 54.0455215,177.276311 C51.3159222,176.145142 49.5365577,173.481016 49.5372127,170.526316 C49.5514343,166.498103 52.8138898,163.236371 56.8421053,163.223043 L56.8421053,163.223043 Z" id="Shape" fill="#000000"></path>
                    <path d="M85.2631579,180 C90.4953292,180 94.7368421,175.758487 94.7368421,170.526316 C94.7368421,165.294144 90.4953292,161.052632 85.2631579,161.052632 C80.0309866,161.052632 75.7894737,165.294144 75.7894737,170.526316 C75.8072483,175.751107 80.0383668,179.982225 85.2631579,180 L85.2631579,180 Z M85.2631579,163.223043 C88.2178585,163.223043 90.8815897,165.002998 92.0121533,167.732848 C93.1427169,170.462699 92.5174444,173.60479 90.4279239,175.693847 C88.3384035,177.782904 85.1961734,178.40748 82.4665741,177.276311 C79.7369748,176.145142 77.9576103,173.481016 77.9582653,170.526316 C77.9733694,166.498471 81.2353097,163.237254 85.2631579,163.223043 Z" id="Shape" fill="#000000"></path>
                    <path d="M406.844399,422.105263 L371.045357,422.105263 C364.951611,422.120631 360.015512,427.0111 360,433.048512 L360,433.267278 C360.015512,439.30469 364.951611,444.195158 371.045357,444.210526 L406.84938,444.210526 C412.943125,444.195158 417.879225,439.30469 417.894737,433.267278 L417.894737,433.048512 C417.852184,427.02035 412.928827,422.144705 406.844399,422.105263 L406.844399,422.105263 Z M415.59037,433.194904 C415.578505,438.016519 411.636294,441.922287 406.76969,441.934041 L370.965667,441.934041 C366.099063,441.922287 362.156852,438.016519 362.144987,433.194904 L362.144987,432.974493 C362.156852,428.152878 366.099063,424.24711 370.965667,424.235356 L406.844399,424.235356 C411.711003,424.24711 415.653215,428.152878 415.665079,432.974493 L415.665079,433.194904 L415.59037,433.194904 Z" id="Shape" fill="#000000"></path>
                    <path d="M333.273304,422.105263 L231.009924,422.105263 C224.935727,422.120631 220.015462,427.0111 220,433.048512 L220,433.267278 C220.015462,439.30469 224.935727,444.195158 231.009924,444.210526 L333.20049,444.210526 C339.274687,444.195158 344.194952,439.30469 344.21047,433.267278 L344.21047,433.048512 C344.229639,427.025067 339.333443,422.126122 333.273304,422.105263 L333.273304,422.105263 Z M341.992873,433.194904 C341.981047,438.016519 338.051482,441.922287 333.20049,441.934041 L231.009924,441.934041 C226.158932,441.922287 222.229367,438.016519 222.217541,433.194904 L222.217541,432.974493 C222.229367,428.152878 226.158932,424.24711 231.009924,424.235356 L333.20049,424.235356 C338.051482,424.24711 341.981047,428.152878 341.992873,432.974493 L341.992873,433.194904 L341.992873,433.194904 Z" id="Shape" fill="#000000"></path>
                    <path d="M193.214077,422.105263 L39.4158491,422.105263 C33.3493556,422.120635 28.4355875,427.011366 28.4210526,433.048512 L28.4210526,433.267278 C28.4355875,439.304424 33.3493556,444.195154 39.4158491,444.210526 L193.214077,444.210526 C199.281216,444.196058 204.195988,439.305064 204.210526,433.267278 L204.210526,433.048512 C204.168194,427.022258 199.269627,422.147391 193.214077,422.105263 Z M201.922974,433.194904 C201.911162,438.016519 197.986407,441.922287 193.141351,441.934041 L39.4158491,441.934041 C34.5707939,441.922287 30.6460382,438.016519 30.6342265,433.194904 L30.6342265,432.974493 C30.6460382,428.152878 34.5707939,424.24711 39.4158491,424.235356 L193.214077,424.235356 C198.059778,424.246207 201.985537,428.152238 201.997352,432.974493 L201.997352,433.194904 L201.922974,433.194904 Z" id="Shape" fill="#000000"></path>
                    <path d="M276.298167,404.210518 L289.942847,404.210518 C296.072137,404.195144 301.03703,399.305407 301.052632,393.268898 L301.052632,393.046875 C301.03703,387.010366 296.072137,382.120629 289.942847,382.105263 L276.373312,382.105263 C270.244022,382.120629 265.279129,387.010366 265.263527,393.046875 L265.263527,393.267253 C265.239462,396.16367 266.391834,398.949419 268.464233,401.004656 C270.536632,403.059892 273.357136,404.214117 276.298167,404.210518 L276.298167,404.210518 Z M267.426036,393.122527 C267.43797,388.301633 271.403176,384.39645 276.298167,384.384697 L289.942847,384.384697 C294.83849,384.395546 298.80471,388.300993 298.816648,393.122527 L298.816648,393.342905 C298.80471,398.164439 294.83849,402.069886 289.942847,402.080735 L276.373312,402.080735 C271.478321,402.068983 267.513115,398.163799 267.501181,393.342905 L267.501181,393.122527 L267.426036,393.122527 Z" id="Shape" fill="#000000"></path>
                    <path d="M39.4361872,404.210526 L119.509525,404.210526 C125.587511,404.19516 130.510844,399.30542 130.526316,393.268906 L130.526316,393.046883 C130.510844,387.01037 125.587511,382.120629 119.509525,382.105263 L39.4361872,382.105263 C33.358472,382.120633 28.4356144,387.010636 28.4210526,393.046883 L28.4210526,393.267262 C28.4347045,399.304151 33.3578274,404.195153 39.4361872,404.210526 L39.4361872,404.210526 Z M30.6383204,393.122536 C30.650154,388.301638 34.5821696,384.396452 39.4361872,384.384699 L119.509525,384.384699 C124.363543,384.396452 128.295559,388.301638 128.307392,393.122536 L128.307392,393.342914 C128.295559,398.163811 124.363543,402.068998 119.509525,402.080751 L39.4361872,402.080751 C34.5821696,402.068998 30.650154,398.163811 30.6383204,393.342914 L30.6383204,393.122536 Z" id="Shape" fill="#000000"></path>
                    <path d="M38.4668132,364.543415 L160.114936,364.543415 C166.197174,364.52889 171.124176,359.619331 171.138753,353.558626 L171.138753,353.337345 C171.12418,347.27637 166.197442,342.366337 160.114936,342.350904 L155.675248,342.350904 C156.9526,341.917047 158.190133,341.374505 159.374159,340.729277 L174.54268,332.764809 L187.417611,359.681837 L187.417611,359.681837 L187.93632,360.860901 L188.30588,361.671715 L188.30588,361.671715 L198.1481,382.021318 L157.228062,382.021318 C151.147219,382.036734 146.220801,386.943498 146.202587,393.002805 L146.202587,393.224086 C146.218071,399.285327 151.145285,404.195097 157.228062,404.210526 L238.111924,404.210526 C244.1947,404.195097 249.121915,399.285327 249.137399,393.224086 L249.137399,393.002805 C249.121005,386.942208 244.194056,382.03344 238.111924,382.018015 L202.365721,382.018015 L255.789474,358.129566 L214.796517,349.212269 L229.298836,342.355858 L205.990058,305.636409 C198.155075,293.319688 182.095784,289.137176 169.214723,296.058571 L145.388893,308.813609 C143.761504,305.791636 138.360629,295.911601 132.441045,284.997819 L200.221281,284.997819 C205.367974,284.993269 209.53931,280.837439 209.544792,275.708968 L209.544792,275.487687 C209.569772,272.746552 208.344438,270.142367 206.213783,268.408344 L245.135216,268.408344 L245.135216,219.733111 L172.101597,219.733111 L172.101597,266.179019 L122.15469,266.179019 C117.642084,257.922262 113.941515,251.13686 112.831178,249.07267 L117.270867,243.837887 L107.133661,238.603103 L104.692578,234.179132 C103.031319,231.139067 100.20058,228.90309 96.8510914,227.985211 C93.5016032,227.067332 89.9215172,227.546513 86.9338251,229.3126 L86.7117578,229.45957 C86.4896905,229.60654 86.3421981,229.680851 86.1201308,229.827822 C86.802245,228.322754 87.1553099,226.690332 87.1558923,225.038903 C87.1558923,218.767879 82.0541617,213.684211 75.760858,213.684211 C69.4675544,213.684211 64.3658237,218.767879 64.3658237,225.038903 C64.3648378,227.261598 65.0069656,229.437447 66.2152796,231.305781 C61.5285172,227.399076 54.5875322,227.854352 50.4551318,232.339527 C50.6667106,231.495801 50.7658912,230.62799 50.7501167,229.758465 C50.7239944,224.323491 46.818735,219.676943 41.4537004,218.69742 C36.0886658,217.717898 30.7838312,220.682911 28.8256147,225.755593 C26.8673982,230.828276 28.8105846,236.571479 33.4513434,239.427209 C38.0921021,242.28294 44.1156534,241.442137 47.7903244,237.425689 C47.5785936,238.269387 47.4794108,239.137218 47.4953396,240.006751 C47.4953396,246.277775 52.5970702,251.361443 58.8903739,251.361443 C65.1836775,251.361443 70.2854082,246.277775 70.2854082,240.006751 C70.2879886,237.781247 69.645796,235.602311 68.4359523,233.731616 C70.4946091,235.436315 73.0841745,236.374482 75.760858,236.385338 C77.8570356,236.401719 79.9130935,235.812666 81.6804425,234.6894 C79.7910806,238.41622 79.8742216,242.833057 81.9025097,246.486654 L92.773863,266.700846 L75.760858,330.185398 L57.1884105,330.185398 C53.2259493,330.18904 50.0146518,333.388969 50.0109972,337.337401 L50.0109972,337.484371 C50.0339475,339.357762 50.775086,341.151467 52.0825203,342.497874 L38.3938956,342.497874 C32.3111193,342.513303 27.3839047,347.423074 27.3684211,353.484315 L27.3684211,353.705596 C27.4823162,359.729806 32.4201327,364.55169 38.4668132,364.543415 L38.4668132,364.543415 Z M246.983041,393.078767 L246.983041,393.300048 C246.971172,398.140693 243.036057,402.061877 238.178213,402.073678 L157.305951,402.073678 C152.448107,402.061877 148.512992,398.140693 148.501149,393.300048 L148.501149,393.078767 C148.512992,388.238121 152.448107,384.316938 157.305951,384.30511 L238.178213,384.30511 C240.515146,384.299418 242.758018,385.221943 244.410484,386.868559 C246.062951,388.515176 246.988754,390.750107 246.983041,393.078767 L246.983041,393.078767 Z M39.4296572,238.830989 C35.7181533,238.831657 32.3717353,236.60433 30.9509398,233.187679 C29.5301443,229.771028 30.3147964,225.837961 32.9389889,223.222587 C35.5631815,220.607212 39.5100808,219.824628 42.9391274,221.239776 C46.3681741,222.654925 48.6040189,225.989093 48.6040189,229.687457 C48.6044583,232.11232 47.6380706,234.438018 45.9174964,236.15281 C44.1969222,237.867603 41.8631363,238.830989 39.4296572,238.830989 L39.4296572,238.830989 Z M103.951802,300.17539 L123.341258,331.143182 C126.651107,336.434202 131.69682,340.420539 137.62151,342.425215 L92.5567674,342.425215 L103.951802,300.17539 Z M211.540083,350.756282 L248.759553,358.94038 L199.995899,380.69198 L190.375746,360.710628 L210.651814,351.05848 L211.540083,350.756282 Z M144.500624,311.825674 L170.252142,297.96423 C182.129774,291.608688 196.916714,295.469411 204.140602,306.812171 L226.116977,341.46578 L211.318016,348.470812 L211.318016,348.470812 L210.578896,348.839063 L189.490791,358.79341 L175.578442,329.815496 L158.34337,338.884717 C146.653151,344.989903 132.216885,341.10591 125.199,329.96742 L104.702522,297.30369 L109.216785,280.418622 L107.070687,279.82909 L100.919092,302.756452 L85.4539289,302.756452 L94.6299477,268.471095 L120.823943,268.471095 C125.780684,277.612976 133.105589,291.033509 143.908997,310.866239 L144.500624,311.825674 Z M174.395188,221.945921 L242.987461,221.945921 L242.987461,266.179019 L174.395188,266.179019 L174.395188,221.939316 L174.395188,221.945921 Z M200.219623,268.396784 C204.142302,268.398607 207.321548,271.567336 207.322462,275.476127 L207.322462,275.623098 C207.321547,279.531621 204.142034,282.699878 200.219623,282.70079 L157.902549,282.70079 L157.902549,268.325776 L200.22791,268.325776 L200.219623,268.396784 Z M155.675248,268.396784 L155.675248,282.775101 L131.256133,282.775101 C128.592983,277.908568 125.928176,272.969376 123.412518,268.396784 L155.675248,268.396784 Z M102.768548,235.217832 L105.35878,239.935743 L105.506273,240.231335 L113.792365,244.508335 L110.388438,248.562403 L110.388438,248.932306 C111.050128,250.555434 111.867619,252.111076 112.829521,253.577557 C108.829068,256.18445 103.484204,255.244621 100.620793,251.4308 L98.8459115,252.751881 C100.96525,255.597032 104.316967,257.267264 107.872781,257.250162 C110.002128,257.266078 112.088096,256.650436 113.865283,255.481565 C115.191057,257.988316 117.047142,261.378541 119.637375,266.098103 L95.072425,266.098103 L87.3779596,251.868408 L100.327465,232.180997 C101.337241,233.019971 102.167391,234.052722 102.768548,235.217832 Z M58.9666059,249.079276 C53.8988307,249.079276 49.7905872,244.985577 49.7905872,239.935743 C49.7905872,234.88591 53.8988307,230.792211 58.9666059,230.792211 C64.0343811,230.792211 68.1426253,234.88591 68.1426253,239.935743 C68.1435043,242.361027 67.1770304,244.68723 65.4560024,246.402165 C63.7349743,248.1171 61.4005069,249.080152 58.9666059,249.079276 Z M66.6627285,224.969546 C66.6620582,221.271182 68.8972984,217.936611 72.3260885,216.520846 C75.7548786,215.10508 79.7019196,215.886955 82.3265862,218.501857 C84.9512528,221.116759 85.7366178,225.049685 84.3164416,228.466591 C82.8962654,231.883498 79.5502512,234.111428 75.8387473,234.111428 C73.4046941,234.112741 71.0698819,233.150162 69.3482799,231.435584 C67.6266779,229.721006 66.6594141,227.394982 66.6594141,224.969546 L66.6627285,224.969546 Z M87.8983262,231.236424 L88.1203935,231.087803 C90.5938403,229.615636 93.5724669,229.241408 96.3352255,230.055708 C97.0794427,230.274345 97.7982797,230.571048 98.4796662,230.940832 L86.1930484,249.665506 L83.9740328,245.462816 C81.179634,240.447409 82.9218618,234.126126 87.8950118,231.236424 L87.8983262,231.236424 Z M52.3045876,337.484371 L52.3045876,337.337401 C52.3045876,334.609294 54.5235279,332.39747 57.2613281,332.396558 L77.535739,332.396558 L84.9352196,304.894952 L100.397068,304.894952 L90.3377518,342.425215 L57.2613281,342.425215 L57.2613281,342.350904 C54.5487165,342.359248 52.336413,340.187206 52.3045876,337.484371 L52.3045876,337.484371 Z M29.6620114,353.410004 C29.6738543,348.569359 33.6089694,344.648175 38.4668132,344.636374 L160.114936,344.636374 C164.97278,344.648175 168.907895,348.569359 168.919738,353.410004 L168.919738,353.631285 C168.908806,358.472575 164.973425,362.394762 160.114936,362.406566 L38.4668132,362.406566 C33.6083244,362.394762 29.6729437,358.472575 29.6620114,353.631285 L29.6620114,353.410004 Z" id="Shape" fill="#000000"></path>
                    <polygon id="Rectangle" fill="#000000" transform="translate(185.788787, 99.266443) rotate(-17.002000) translate(-185.788787, -99.266443) " points="184.679024 92.805001 186.89512 92.8055889 186.898551 105.727885 184.682455 105.727297"></polygon>
                    <polygon id="Rectangle" fill="#000000" transform="translate(164.067850, 99.336806) rotate(-16.984733) translate(-164.067850, -99.336806) " points="162.958532 92.8779503 165.173741 92.8785375 165.177168 105.795661 162.961958 105.795074"></polygon>
                    <polygon id="Path" fill="#000000" points="168.972122 128.421053 197.894737 128.421053 194.037945 115.789474 191.888639 116.456834 194.92823 126.192636 170.603203 126.192636 167.414125 115.789474 165.263158 116.456834"></polygon>
                    <path d="M321.92738,35.1205505 C321.907154,36.0387583 321.616287,36.9322719 321.089009,37.6959446 L322.992385,38.9473684 C323.812419,37.8314172 324.239049,36.4895205 324.209046,35.1205505 C324.21654,32.1800211 322.236588,29.5803043 319.331656,28.7164396 C316.426723,27.852575 313.27955,28.9275947 311.578947,31.3646301 L313.480619,32.616054 C314.319978,31.3736456 315.751642,30.626112 317.285666,30.6292743 C319.844947,30.6392141 321.917108,32.644216 321.92738,35.1205505 L321.92738,35.1205505 Z" id="Path" fill="#000000"></path>
                    <circle id="Oval" fill="#000000" cx="300.526316" cy="30" r="2.63157895"></circle>
                    <circle id="Oval" fill="#000000" cx="102.105263" cy="242.105263" r="2.10526316"></circle>
                    <polygon id="Path" fill="#FFFFFF" points="222.807018 260 236.842105 243.684211 222.807018 227.368421 221.052632 228.851675 233.866311 243.684211 221.052632 258.589829"></polygon>
                    <polygon id="Path" fill="#FFFFFF" points="191.929825 227.368421 177.894737 243.684211 191.929825 260 193.684211 258.589829 180.870531 243.684211 193.684211 228.851675"></polygon>
                    <polygon id="Rectangle" fill="#FFFFFF" transform="translate(207.679536, 244.108849) rotate(-69.416000) translate(-207.679536, -244.108849) " points="189.845479 242.994441 225.512901 243.005587 225.513594 245.223258 189.846171 245.212111"></polygon>
                    <path d="M480,286.600945 L452.358621,286.600945 L452.358621,176.722744 C452.34038,161.641261 440.10898,149.419849 425.015172,149.401624 L395.304828,149.401624 C403.495399,145.94546 409.603248,138.869013 411.821145,130.266108 C414.039043,121.663204 412.113022,112.518943 406.612966,105.538988 L360.349241,46.1668201 C355.190466,39.5352693 347.249656,35.6636751 338.843586,35.6815961 L312.09269,5.777208 C309.000081,2.3033354 304.633425,0.226049713 299.98497,0.0173779544 C295.336514,-0.191293804 290.801022,1.48636948 287.409103,4.66914805 L287.18731,4.89076004 C280.36272,11.3859583 279.969,22.1346675 286.300138,29.110966 L287.409103,30.2934479 L272.628414,44.0201607 L274.106483,45.6442128 L288.81269,31.9092308 L294.872276,38.4815148 L292.50869,40.6959809 C291.47491,41.6465823 290.885155,42.9851869 290.881655,44.3889627 C290.842989,45.7925295 291.376434,47.1516123 292.359724,48.1547128 L292.434207,48.2291347 C293.385126,49.2615396 294.724329,49.8502599 296.128552,49.8531867 C297.539584,49.9263841 298.913693,49.3881588 299.899034,48.3763248 L302.11531,46.3090487 L311.42731,56.4254707 L281.799724,112.028581 L274.336552,106.933159 C268.881224,103.189749 261.425517,104.541473 257.634207,109.961305 L246.253241,126.353977 C245.001487,128.106089 244.545509,130.30368 244.996966,132.408615 C245.402536,134.493061 246.627001,136.328259 248.39669,137.504037 L248.544,137.578458 L222.160552,137.578458 L205.075862,79.1770838 L121.718069,79.1770838 L142.263724,149.327202 L27.3434483,149.327202 C12.2496406,149.345427 0.0182402709,161.566839 0,176.648322 L0,435.836775 C0.0182402709,450.918257 12.2496406,463.139669 27.3434483,463.157895 L424.942345,463.157895 C440.03653,463.140579 452.268463,450.918634 452.285793,435.836775 L452.285793,350.474813 L479.927172,350.474813 L479.927172,286.600945 L480,286.600945 Z M356.582069,350.474813 L416.073931,350.474813 L416.073931,409.918095 L356.582069,409.918095 L356.582069,350.474813 Z M356.582069,348.258693 L356.582069,288.815411 L416.073931,288.815411 L416.073931,348.258693 L356.582069,348.258693 Z M464.481103,288.815411 L464.481103,348.258693 L418.217379,348.258693 L418.217379,288.815411 L464.481103,288.815411 Z M424.942345,151.61609 C438.802721,151.65696 450.028613,162.873686 450.069517,176.722744 L450.069517,190.753759 L373.653517,190.753759 L353.256828,151.61609 L424.942345,151.61609 Z M407.870897,134.633004 C403.509569,143.711313 394.299883,149.462666 384.221793,149.401624 L349.62869,149.401624 L376.824828,201.533364 L337.431724,219.920543 L303.067034,151.912124 C299.03374,143.962844 299.423994,134.490574 304.097546,126.899427 C308.771099,119.30828 317.056541,114.688813 325.976276,114.70113 L409.117241,114.70113 C411.366167,121.247013 410.917778,128.417754 407.870897,134.633004 L407.870897,134.633004 Z M395.971862,238.382145 L339.144828,266.220911 C334.886899,268.31781 329.731168,266.730271 327.393103,262.602351 L327.320276,262.453507 C326.135177,260.313835 325.843122,257.793283 326.507586,255.439653 C327.175433,253.084494 328.814136,251.124226 331.014621,250.048197 L358.359724,235.871645 L353.478621,214.973965 L377.865931,203.602293 L395.971862,238.382145 Z M195.103448,149.406585 L192.289655,139.880577 L275.799724,139.880577 L278.613517,149.406585 L195.103448,149.406585 Z M280.905931,149.406585 L278.092138,139.733387 C281.319256,140.996749 284.864535,141.20349 288.216828,140.323801 C292.763567,139.222029 296.646025,136.278708 298.932414,132.200233 L299.672276,130.877176 C297.4442,136.84582 297.391459,143.407918 299.52331,149.411546 L280.905931,149.406585 Z M320.299034,94.6882693 L334.192552,112.485035 L325.986207,112.485035 C317.584193,112.447831 309.619425,116.22317 304.333241,122.748647 L320.299034,94.6882693 Z M358.576552,47.4981459 L404.840276,106.870313 C406.207641,108.589376 407.350092,110.475604 408.24,112.483381 L336.993103,112.483381 L321.477517,92.5416098 L332.785655,72.6047998 L330.864,71.4967399 L321.264,88.4070578 L302.565517,77.7729899 L316.75531,51.1167059 C320.746922,43.649415 328.246217,38.7047025 336.687215,37.9744653 C345.128214,37.2442282 353.366475,40.8274728 358.583172,47.4981459 L358.576552,47.4981459 Z M287.925517,27.5613359 C282.405165,21.4838466 282.733239,12.1189786 288.665379,6.44204397 L288.887172,6.22043198 C291.840115,3.4436456 295.791885,1.97886443 299.842851,2.15954953 C303.893816,2.34023463 307.699247,4.15100996 310.392828,7.17964806 L311.131034,8.06609602 L288.96,28.7388563 L287.925517,27.5613359 Z M306.703448,47.9413699 C312.888097,47.0318257 317.547529,41.8501824 317.793103,35.608828 L315.575172,35.4616379 C315.520023,38.2634388 314.351312,40.9281501 312.326962,42.8676922 C310.302613,44.8072344 307.589039,45.8621658 304.785103,45.7996719 L302.272552,43.0675599 L298.427586,46.6811584 C297.201901,47.8200988 295.285238,47.7542904 294.14069,46.5339684 L294.066207,46.4595464 C293.503678,45.8786085 293.201773,45.0940753 293.229868,44.2862241 C293.257963,43.478373 293.613642,42.7166714 294.215172,42.1761505 L298.13131,38.4848224 L290.593655,30.2884864 L312.772966,9.61572613 L336.036414,35.6832499 C327.05348,36.6138428 319.126511,41.958891 314.901517,49.934224 L312.609103,54.2176199 L306.703448,47.9413699 Z M247.132138,132.048082 C246.818261,130.535904 247.138948,128.961275 248.01931,127.691918 L259.473103,111.224824 C262.578674,106.796589 268.66645,105.678708 273.144828,108.714324 L282.605793,115.212186 L301.524414,79.6930759 L320.227862,90.3271437 L297.090207,131.088866 C295.104045,134.670465 291.69423,137.245414 287.703724,138.177142 C283.736141,139.150875 279.542511,138.456891 276.100966,136.257056 L262.207448,127.395884 L257.625931,134.18978 C255.863591,136.779691 252.35928,137.499327 249.717517,135.813832 L249.570207,135.73941 C248.31614,134.864644 247.443979,133.544158 247.132138,132.048082 L247.132138,132.048082 Z M259.545931,135.44503 L262.945655,130.42403 L274.252138,137.659496 L257.329655,137.659496 C258.176112,137.03687 258.92382,136.290331 259.547586,135.44503 L259.545931,135.44503 Z M219.859862,137.659496 L152.388414,137.659496 L135.98069,81.4659718 L203.455448,81.4659718 L219.859862,137.659496 Z M124.674207,81.4659718 L133.612138,81.4659718 L150.688552,139.875616 L189.931034,139.875616 L192.744828,149.401624 L144.48,149.401624 L124.674207,81.4659718 Z M27.3434483,151.61609 L300.413793,151.61609 C300.635586,152.059314 300.782897,152.502538 301.00469,152.939146 L320.146759,190.747144 L2.21627586,190.747144 L2.21627586,176.716128 C2.26081264,162.869654 13.4856467,151.656941 27.3434483,151.61609 L27.3434483,151.61609 Z M450.144,435.907889 C450.103096,449.756947 438.877203,460.973673 425.016828,461.014543 L27.417931,461.014543 C13.5588424,460.973682 2.33347906,449.758963 2.29075862,435.911197 L2.29075862,192.964918 L321.330207,192.964918 L336.407172,222.87096 L351.335172,215.855452 L355.694897,234.611434 L329.902345,248.052036 C327.209052,249.474174 325.208661,251.927525 324.359068,254.850508 C323.509474,257.773491 323.883421,260.91584 325.39531,263.55826 L325.468138,263.70545 C327.461061,267.214756 331.185521,269.385479 335.223724,269.391286 C336.93437,269.377917 338.62256,269.000752 340.176,268.28488 L399.076966,239.412476 L374.83531,192.964918 L450.145655,192.964918 L450.145655,286.600945 L354.372414,286.600945 L354.372414,412.125946 L418.300138,412.125946 L418.300138,350.474813 L450.152276,350.474813 L450.144,435.907889 Z M477.785379,348.255385 L466.773517,348.255385 L466.773517,288.815411 L477.785379,288.815411 L477.785379,348.255385 Z" id="Shape" fill="#000000"></path>
                </g>
            </g>
        </g>
    </g>
</svg>