<?xml version="1.0" encoding="UTF-8"?>
<svg width="200px" height="165px" viewBox="0 0 200 165" version="1.1" xmlns="http://www.w3.org/2000/svg" xmlns:xlink="http://www.w3.org/1999/xlink">
    <title>day10-canvas-stand</title>
    <g id="Foundation:-niceverynice.com" stroke="none" stroke-width="1" fill="none" fill-rule="evenodd">
        <g id="Main-Page" transform="translate(-1038.000000, -4154.000000)" fill-rule="nonzero">
            <g id="Block-with-Categories" transform="translate(130.000000, 3645.000000)">
                <g id="Categories" transform="translate(0.000000, 465.000000)">
                    <g id="Item-4" transform="translate(877.000000, 0.000000)">
                        <g id="day10-canvas-stand" transform="translate(31.000000, 44.000000)">
                            <path d="M185.24424,31.9508449 L129.066052,31.9508449 L129.066052,15.9754224 L147.499232,15.9754224 C149.617705,15.9754224 151.64941,15.1338624 153.147397,13.635876 C154.645383,12.1378895 155.486943,10.1061839 155.486943,7.98771121 L155.486943,7.98771121 C155.486943,3.57622012 151.910723,0 147.499232,0 L54.344086,0 C49.9325949,0 46.3563748,3.57622012 46.3563748,7.98771121 L46.3563748,7.98771121 C46.3563748,10.1061839 47.1979348,12.1378895 48.6959213,13.635876 C50.1939077,15.1338624 52.2256133,15.9754224 54.344086,15.9754224 L72.7772657,15.9754224 L72.7772657,31.9508449 L16.6113671,31.9508449 C12.199876,31.9508449 8.62365591,35.527065 8.62365591,39.9385561 L8.62365591,39.9385561 C8.62365591,44.3500472 12.199876,47.9262673 16.6113671,47.9262673 L37.6774194,47.9262673 L37.6774194,63.9016897 L38.7987711,63.9016897 C34.38728,63.9016897 30.8110599,67.4779098 30.8110599,71.8894009 L30.8110599,71.8894009 C30.8110599,76.300892 34.38728,79.8771121 38.7987711,79.8771121 L69.1029186,79.8771121 L69.1029186,95.8525346 L45.7542243,95.8525346 C41.3427332,95.8525346 37.7665131,99.4287547 37.7665131,103.840246 L37.7665131,103.840246 C37.7665131,105.958719 38.6080731,107.990424 40.1060595,109.488411 C41.6040459,110.986397 43.6357515,111.827957 45.7542243,111.827957 L69.1029186,111.827957 L69.1029186,127.803379 L36.3102919,127.803379 C31.8988008,127.803379 28.3225806,131.3796 28.3225806,135.791091 L28.3225806,135.791091 C28.3225806,140.202582 31.8988008,143.778802 36.3102919,143.778802 L155.652842,143.778802 C160.064333,143.778802 163.640553,140.202582 163.640553,135.791091 L163.640553,135.791091 C163.640553,131.3796 160.064333,127.803379 155.652842,127.803379 L132.752688,127.803379 L132.752688,111.827957 L140.015361,111.827957 C144.426852,111.827957 148.003072,108.251737 148.003072,103.840246 L148.003072,103.840246 C148.003072,99.4287547 144.426852,95.8525346 140.015361,95.8525346 L132.752688,95.8525346 L132.752688,79.8771121 L163.056836,79.8771121 C167.468327,79.8771121 171.044547,76.300892 171.044547,71.8894009 L171.044547,71.8894009 C171.044547,67.4779098 167.468327,63.9016897 163.056836,63.9016897 L164.178187,63.9016897 L164.178187,47.9262673 L185.24424,47.9262673 C189.655731,47.9262673 193.231951,44.3500472 193.231951,39.9385561 L193.231951,39.9385561 C193.231951,37.8200833 192.390391,35.7883777 190.892404,34.2903913 C189.394418,32.7924049 187.362712,31.9508449 185.24424,31.9508449 Z" id="Path" fill="#825D7E" opacity="0.5"></path>
                            <rect id="Rectangle" fill="#825D7E" opacity="0.5" x="2.20890937" y="64.6850998" width="24.3195084" height="15.9754224" rx="7.98771121"></rect>
                            <rect id="Rectangle" fill="#684463" x="75.7757296" y="47.9262673" width="50.3010753" height="15.9754224" rx="7.98771121"></rect>
                            <rect id="Rectangle" fill="#684463" x="149.548387" y="47.9262673" width="50.3010753" height="15.9754224" rx="7.98771121"></rect>
                            <rect id="Rectangle" fill="#684463" x="118.291859" y="79.8771121" width="50.3010753" height="15.9754224" rx="7.98771121"></rect>
                            <rect id="Rectangle" fill="#684463" x="12.6113671" y="47.9262673" width="50.3010753" height="15.9754224" rx="7.98771121"></rect>
                            <rect id="Rectangle" fill="#684463" x="34.749616" y="15.9754224" width="50.3010753" height="15.9754224" rx="7.98771121"></rect>
                            <rect id="Rectangle" fill="#684463" x="110.150538" y="15.9754224" width="50.3010753" height="15.9754224" rx="7.98771121"></rect>
                            <rect id="Rectangle" fill="#684463" x="118.291859" y="111.827957" width="50.3010753" height="15.9754224" rx="7.98771121"></rect>
                            <rect id="Rectangle" fill="#684463" x="31.109063" y="111.827957" width="50.3010753" height="15.9754224" rx="7.98771121"></rect>
                            <path d="M179.708141,97.1397849 L185.545315,97.1397849 C186.313932,97.1397849 186.93702,97.7628725 186.93702,98.53149 L186.93702,99.827957 L178.304147,99.827957 L178.304147,98.53149 C178.304147,98.1602478 178.452444,97.804387 178.716104,97.5430356 C178.979763,97.2816841 179.336914,97.1365069 179.708141,97.1397849 L179.708141,97.1397849 Z" id="Path" fill="#96628A"></path>
                            <path d="M186.049155,97.1397849 L185.105991,97.1397849 C185.565723,97.1061552 185.966997,97.4485388 186.006144,97.9078341 L186.006144,99.827957 L186.949309,99.827957 L186.949309,97.9078341 C186.910161,97.4485388 186.508887,97.1061552 186.049155,97.1397849 L186.049155,97.1397849 Z" id="Path" fill="#84517A"></path>
                            <rect id="Rectangle" fill="#CC83B4" x="176.506912" y="99.827957" width="12.2519201" height="13.3425499" rx="6.12596006"></rect>
                            <path d="M186.83871,99.827957 L185.431644,99.827957 C186.492098,99.827957 187.351767,100.687625 187.351767,101.74808 L187.351767,111.250384 C187.351767,112.310839 186.492098,113.170507 185.431644,113.170507 L186.83871,113.170507 C187.899164,113.170507 188.758833,112.310839 188.758833,111.250384 L188.758833,101.74808 C188.758833,100.687625 187.899164,99.827957 186.83871,99.827957 Z" id="Path" fill="#BC71A7"></path>
                            <rect id="Rectangle" fill="#684463" x="30.8079877" y="143.778802" width="140.233487" height="15.9754224"></rect>
                            <rect id="Rectangle" fill="#AB8FB8" x="77.843318" y="18.2396313" width="11.7173579" height="19.8156682"></rect>
                            <rect id="Rectangle" fill="#DFCCE2" x="75.9078341" y="18.2396313" width="11.7173579" height="19.8156682"></rect>
                            <rect id="Rectangle" fill="#A380AF" opacity="0.82" x="75.9078341" y="35.7511521" width="11.7173579" height="1.9969278"></rect>
                            <rect id="Rectangle" fill="#A380AF" opacity="0.82" x="87.6221198" y="35.7511521" width="1.93548387" height="1.9969278"></rect>
                            <rect id="Rectangle" fill="#AB8FB8" x="71.6620584" y="37.7480799" width="26.5253456" height="12.5407066"></rect>
                            <polygon id="Path" fill="#AC91BA" points="61.6835637 156.473118 80.3410138 105.207373 69.2380952 101.164363 49.109063 156.473118"></polygon>
                            <polygon id="Path" fill="#DFCCE2" points="56.8571429 156.473118 75.5176651 105.207373 64.4116743 101.164363 44.2826421 156.473118"></polygon>
                            <polygon id="Path" fill="#A380AF" opacity="0.82" points="68.6728111 102.715822 64.4116743 101.164363 56.2611367 123.563748 73.6620584 123.563748 80.3410138 105.207373 69.2380952 101.164363"></polygon>
                            <rect id="Rectangle" fill="#DFCCE2" x="34.9001536" y="156.473118" width="17.2872504" height="7.98156682"></rect>
                            <rect id="Rectangle" fill="#B39FC1" x="50.0276498" y="156.473118" width="17.2872504" height="7.98156682"></rect>
                            <path d="M157.032258,75.9201229 L154.752688,76.5345622 C154.461316,76.6374102 154.269977,76.9169646 154.27957,77.2258065 C154.179135,79.3522957 154.325529,81.4832599 154.715822,83.5760369 C155.735791,89.4807988 158.35023,96.546851 162.193548,102.90937 C162.669739,103.695853 163.569892,103.459293 163.59447,102.537634 C163.791091,95.1059908 162.574501,87.6743472 160.543779,82.0337942 C159.846638,80.021534 158.918798,78.0967814 157.778802,76.2980031 C157.63785,76.0238599 157.336638,75.8713945 157.032258,75.9201229 L157.032258,75.9201229 Z" id="Path" fill="#F7CD84"></path>
                            <path d="M160.543779,82.0215054 C159.846638,80.0092452 158.918798,78.0844926 157.778802,76.2857143 C157.633369,76.0138986 157.329671,75.866388 157.026114,75.9201229 L155.993856,76.1904762 C156.25192,76.5192012 156.534562,76.9001536 156.826421,77.3394777 C156.826421,77.3394777 157.253456,78.015361 157.674347,78.7680492 C160.073733,83.047619 160.998464,86.9646697 161.766513,90.3256528 C162.316436,92.7219662 162.522273,94.4116743 162.930876,97.7880184 C163.075269,98.9615975 163.443932,102.15361 163.059908,103.351767 C163.401547,103.22609 163.617603,102.888188 163.588326,102.525346 C163.791091,95.093702 162.574501,87.6620584 160.543779,82.0215054 Z" id="Path" fill="#F8B461"></path>
                            <path d="M153.241167,67.2227343 C153.245095,67.1736338 153.216952,67.1275907 153.171463,67.1086953 C153.125974,67.0897999 153.073491,67.1023524 153.041475,67.1397849 C152.331797,68.0122888 150.654378,70.4270353 151.176651,73.3978495 C151.231951,73.7050691 151.831029,76.8602151 154.193548,77.9385561 C154.646649,78.1613424 155.148377,78.2669693 155.652842,78.2457757 C157.072197,78.141321 158.353303,76.8448541 158.65745,75.453149 C159.044547,73.6589862 157.784946,71.7665131 156.457757,70.9861751 C155.77573,70.5898618 155.176651,70.5499232 154.365591,69.797235 C153.86867,69.3720046 153.505817,68.8117161 153.321045,68.1843318 C153.241532,67.8704042 153.214541,67.5454785 153.241167,67.2227343 L153.241167,67.2227343 Z" id="Path" fill="#6F5A66"></path>
                            <path d="M156.457757,70.9831029 C155.77573,70.5867896 155.176651,70.546851 154.365591,69.7941628 C153.86867,69.3689324 153.505817,68.8086439 153.321045,68.1812596 C153.244866,67.8803534 153.216868,67.5692733 153.238095,67.2596006 C153.242657,67.1989474 153.202161,67.1440826 153.142857,67.1305684 C153.049706,67.5336276 153.035103,67.9508615 153.099846,68.359447 C153.232763,69.0275754 153.552333,69.6443458 154.021505,70.1382488 C154.78341,70.9984639 155.391705,71.0967742 156.0553,71.5760369 C157.34255,72.4976959 158.466974,74.6021505 157.917051,76.4362519 C157.804138,76.8060936 157.633022,77.155584 157.410138,77.4715822 C158.024184,76.9467402 158.454698,76.2396206 158.639017,75.453149 C159.044547,73.655914 157.784946,71.7542243 156.457757,70.9831029 Z" id="Path" fill="#6B4C5F"></path>
                            <path d="M154.365591,69.7941628 C153.86867,69.3689324 153.505817,68.8086439 153.321045,68.1812596 C153.241755,67.8672948 153.214767,67.5424062 153.241167,67.2196621 C153.24362,67.1711413 153.214965,67.1264254 153.169858,67.1083822 C153.12475,67.0903391 153.073161,67.1029577 153.041475,67.1397849 C152.387097,67.9416283 150.918587,70.0552995 151.096774,72.703533 C151.096774,72.703533 151.115207,72.9308756 151.121352,72.9800307 L151.121352,78.0399386 C151.121352,78.3589233 151.37994,78.6175115 151.698925,78.6175115 L151.698925,78.6175115 C152.017909,78.6175115 152.276498,78.3589233 152.276498,78.0399386 L152.276498,73.2442396 C152.295005,73.0298018 152.474473,72.8651557 152.689708,72.8651557 C152.904943,72.8651557 153.084411,73.0298018 153.102919,73.2442396 L153.102919,74.141321 C153.097957,74.3843659 153.267243,74.5962964 153.505376,74.6451613 C153.646213,74.6686573 153.790251,74.6289547 153.899159,74.5366192 C154.008068,74.4442836 154.0708,74.3086814 154.070661,74.1658986 L154.070661,73.843318 C154.070661,73.4777266 154.052227,72.5652842 154.6851,72.40553 C156.086022,72.0552995 156.144393,71.827957 156.445469,70.9831029 L156.445469,70.9831029 C155.77573,70.5867896 155.176651,70.546851 154.365591,69.7941628 Z" id="Path" fill="#ED4A5E"></path>
                            <rect id="Rectangle" fill="#DE6173" transform="translate(189.062980, 141.127496) rotate(-180.000000) translate(-189.062980, -141.127496) " x="187.526882" y="118.086022" width="3.07219662" height="46.0829493"></rect>
                            <rect id="Rectangle" fill="#F37F82" transform="translate(185.683564, 141.127496) rotate(-180.000000) translate(-185.683564, -141.127496) " x="183.840246" y="118.086022" width="3.68663594" height="46.0829493"></rect>
                            <rect id="Rectangle" fill="#DD6B80" x="167.864823" y="153.671275" width="17.8187404" height="3.99385561"></rect>
                            <rect id="Rectangle" fill="#DD6B80" x="167.864823" y="118.086022" width="17.8187404" height="12.2887865"></rect>
                            <rect id="Rectangle" fill="#F37F82" opacity="0.34" x="179.738863" y="121.883257" width="3.30875576" height="1.84331797" rx="0.921658986"></rect>
                            <rect id="Rectangle" fill="#F37F82" opacity="0.34" x="175.3149" y="124.737327" width="8.96466974" height="1.84331797" rx="0.921658986"></rect>
                            <rect id="Rectangle" fill="#F37F82" opacity="0.34" x="172.955453" y="121.883257" width="6.04608295" height="1.84331797" rx="0.921658986"></rect>
                            <polygon id="Path" fill="#D1B9D6" points="69.4285714 127.843318 65.6067588 138.347158 98.0337942 138.347158 98.0337942 127.843318"></polygon>
                            <polygon id="Path" fill="#A380AF" opacity="0.87" points="69.4285714 127.843318 65.6067588 138.347158 67.7019969 138.347158 71.5238095 127.843318"></polygon>
                            <polygon id="Path" fill="#C5E1DF" points="169.477727 68.8049155 167.984639 68.5837174 166.135177 71.9078341 170.288786 72.5222734"></polygon>
                            <path d="M164.101553,72.0486314 L168.301246,72.0486314 L168.301246,97.9257435 C168.301246,98.9437799 167.475964,99.7690615 166.457928,99.7690615 L165.944871,99.7690615 C164.926835,99.7690615 164.101553,98.9437799 164.101553,97.9257435 L164.101553,72.0486314 L164.101553,72.0486314 Z" id="Path" fill="#F7CD84" transform="translate(166.201399, 85.908846) rotate(8.390000) translate(-166.201399, -85.908846) "></path>
                            <path d="M164.116282,71.8356179 L165.206912,71.8356179 L165.206912,99.5468314 L165.206912,99.5468314 C164.604574,99.5468314 164.116282,99.0585398 164.116282,98.4562016 L164.116282,71.8356179 Z" id="Path" fill="#F8B461" transform="translate(164.661597, 85.691225) rotate(8.390000) translate(-164.661597, -85.691225) "></path>
                            <path d="M167.194542,72.2769072 L168.285172,72.2769072 L168.285172,98.9097797 C168.285172,99.5121179 167.79688,100.00041 167.194542,100.00041 L167.194542,100.00041 L167.194542,72.2769072 Z" id="Path" fill="#F8B461" transform="translate(167.739857, 86.138658) rotate(8.390000) translate(-167.739857, -86.138658) "></path>
                            <path d="M169.477727,68.8049155 L169.145929,67.2688172 C169.138614,67.1718109 169.065308,67.0926933 168.969141,67.0780113 C168.872973,67.0633292 168.7794,67.1169691 168.743472,67.2073733 L167.984639,68.5714286 L169.477727,68.8049155 Z" id="Path" fill="#6F5A66"></path>
                            <polygon id="Path" fill="#A5CECA" points="169.477727 68.8049155 168.771121 68.7004608 169.213518 72.3625192 170.288786 72.5222734"></polygon>
                            <rect id="Rectangle" fill="#DE6173" transform="translate(143.594470, 141.127496) rotate(-180.000000) translate(-143.594470, -141.127496) " x="142.058372" y="118.086022" width="3.07219662" height="46.0829493"></rect>
                            <rect id="Rectangle" fill="#F37F82" transform="translate(140.215054, 141.127496) rotate(-180.000000) translate(-140.215054, -141.127496) " x="138.371736" y="118.086022" width="3.68663594" height="46.0829493"></rect>
                            <rect id="Rectangle" fill="#DE6173" transform="translate(169.400922, 141.127496) rotate(-180.000000) translate(-169.400922, -141.127496) " x="167.864823" y="118.086022" width="3.07219662" height="46.0829493"></rect>
                            <rect id="Rectangle" fill="#F37F82" transform="translate(166.021505, 141.127496) rotate(-180.000000) translate(-166.021505, -141.127496) " x="164.178187" y="118.086022" width="3.68663594" height="46.0829493"></rect>
                            <rect id="Rectangle" fill="#F37F82" x="143.44086" y="118.086022" width="20.7373272" height="12.2887865"></rect>
                            <rect id="Rectangle" fill="#F37F82" x="143.44086" y="153.671275" width="20.7373272" height="3.99385561"></rect>
                            <polygon id="Path" fill="#AC91BA" points="117.354839 156.473118 97.2227343 101.164363 86.1198157 105.207373 104.780338 156.473118"></polygon>
                            <polygon id="Path" fill="#DFCCE2" points="113.806452 156.473118 93.6743472 101.164363 82.5714286 105.207373 101.228879 156.473118"></polygon>
                            <polygon id="Path" fill="#A380AF" opacity="0.82" points="97.2227343 101.164363 94.0890937 102.30722 93.6743472 101.164363 82.5714286 105.207373 89.2534562 123.563748 105.376344 123.563748"></polygon>
                            <path d="M38.1474654,111.339476 L40.7158218,111.339476 L40.7158218,119.791091 L34.8049155,119.791091 L34.8049155,114.678955 C34.8049155,113.792738 35.1571737,112.942863 35.7841118,112.316501 C36.41105,111.690139 37.2612487,111.338662 38.1474654,111.339476 Z" id="Path" fill="#AB8FB8"></path>
                            <path d="M38.1474654,111.339476 L126.267281,111.339476 L126.267281,119.791091 L34.8049155,119.791091 L34.8049155,114.678955 C34.8049155,113.792738 35.1571737,112.942863 35.7841118,112.316501 C36.41105,111.690139 37.2612487,111.338662 38.1474654,111.339476 Z" id="Path" fill="#DFCCE2"></path>
                            <path d="M123.708141,111.339478 L126.267281,111.339478 L126.267281,119.791091 L120.368664,119.791091 L120.368664,114.678955 C120.368664,112.834613 121.863799,111.339478 123.708141,111.339478 Z" id="Path" fill="#AB8FB8"></path>
                            <rect id="Rectangle" fill="#AB8FB8" x="47.0168971" y="50.2887865" width="73.8494624" height="61.0506912"></rect>
                            <rect id="Rectangle" fill="#FFFDFF" x="42.3348694" y="50.2887865" width="73.8494624" height="61.0506912"></rect>
                            <rect id="Rectangle" fill="#DFCCE2" x="93.6620584" y="156.473118" width="17.2872504" height="7.98156682"></rect>
                            <rect id="Rectangle" fill="#B39FC1" x="108.789555" y="156.473118" width="17.2872504" height="7.98156682"></rect>
                            <rect id="Rectangle" fill="#F37F82" x="135.299539" y="113.170507" width="32.5652842" height="4.91551459"></rect>
                            <rect id="Rectangle" fill="#DE6173" x="167.864823" y="113.170507" width="24.577573" height="4.91551459"></rect>
                            <rect id="Rectangle" fill="#E26971" x="143.44086" y="118.086022" width="20.7373272" height="1.70506912"></rect>
                            <polygon id="Rectangle" fill="#CE5F78" transform="translate(171.551459, 124.233487) rotate(-90.000000) translate(-171.551459, -124.233487) " points="165.407066 123.619048 177.695853 123.619048 177.695853 124.847926 165.407066 124.847926"></polygon>
                            <polygon id="Rectangle" fill="#CE5F78" transform="translate(171.551459, 155.671275) rotate(-90.000000) translate(-171.551459, -155.671275) " points="169.554531 155.056836 173.548387 155.056836 173.548387 156.285714 169.554531 156.285714"></polygon>
                            <rect id="Rectangle" fill="#CE5F78" transform="translate(178.617512, 118.938556) rotate(-180.000000) translate(-178.617512, -118.938556) " x="171.551459" y="118.086022" width="14.1321045" height="1.70506912"></rect>
                            <rect id="Rectangle" fill="#E26971" x="164.178187" y="118.086022" width="3.68663594" height="1"></rect>
                            <rect id="Rectangle" fill="#E26971" x="138.371736" y="118.086022" width="3.68663594" height="1"></rect>
                            <circle id="Oval" fill="#E26971" cx="154.65745" cy="124.543779" r="1.68970814"></circle>
                            <circle id="Oval" fill="#633047" cx="153.809524" cy="124.384025" r="1.68970814"></circle>
                            <ellipse id="Oval" fill="#F4CEE1" transform="translate(153.297808, 123.712835) rotate(-5.090000) translate(-153.297808, -123.712835) " cx="153.297808" cy="123.712835" rx="1" ry="1"></ellipse>
                            <rect id="Rectangle" fill="#E26971" opacity="0.4" x="158.427035" y="120.608295" width="5.21351767" height="1.84331797" rx="0.921658986"></rect>
                            <rect id="Rectangle" fill="#E26971" opacity="0.4" x="157.701997" y="123.462366" width="4.10752688" height="1.84331797" rx="0.921658986"></rect>
                            <rect id="Rectangle" fill="#E26971" opacity="0.2" x="144.78341" y="126.866359" width="12.9185868" height="1.84331797" rx="0.921658986"></rect>
                            <rect id="Rectangle" fill="#E26971" opacity="0.39" x="148.411674" y="126.866359" width="3.4562212" height="1.84331797" rx="0.921658986"></rect>
                            <rect id="Rectangle" fill="#E26971" opacity="0.4" x="145.130568" y="120.608295" width="9.52688172" height="1.84331797" rx="0.921658986"></rect>
                            <path d="M153.505376,88.8479263 L173.781874,88.8479263 C174.290892,88.8479263 174.703533,89.2605671 174.703533,89.7695853 L174.703533,110.71275 C174.703533,112.070131 173.603158,113.170507 172.245776,113.170507 L155.041475,113.170507 C153.684093,113.170507 152.583717,112.070131 152.583717,110.71275 L152.583717,89.7695853 C152.583717,89.2605671 152.996358,88.8479263 153.505376,88.8479263 Z" id="Path" fill="#EA3268"></path>
                            <path d="M169.486943,88.8479263 L169.486943,110.71275 C169.486943,112.070131 168.386568,113.170507 167.029186,113.170507 L172.25192,113.170507 C173.609302,113.170507 174.709677,112.070131 174.709677,110.71275 L174.709677,89.7695853 C174.709677,89.2605671 174.297037,88.8479263 173.788018,88.8479263 L169.486943,88.8479263 Z" id="Path" fill="#AA235B" opacity="0.69"></path>
                            <path d="M11.8156682,135.376344 L22.374808,135.376344 C23.1434255,135.376344 23.7665131,135.999432 23.7665131,136.768049 L23.7665131,140.245776 L10.4239597,140.245776 L10.4239597,136.771121 C10.4231472,136.401486 10.5694125,136.046711 10.8304963,135.785051 C11.0915802,135.52339 11.4460322,135.376344 11.8156682,135.376344 L11.8156682,135.376344 Z" id="Path" fill="#F8B461"></path>
                            <path d="M22.374808,135.376341 L20.9155146,135.376341 C21.2851497,135.375528 21.6399251,135.521793 21.9015853,135.782877 C22.1632455,136.043961 22.3102928,136.398413 22.3102919,136.768049 L22.3102919,140.245776 L23.7695853,140.245776 L23.7695853,136.768049 C23.7695853,136.398413 23.6225389,136.043961 23.3608787,135.782877 C23.0992185,135.521793 22.7444431,135.375528 22.374808,135.376341 Z" id="Path" fill="#E29C50"></path>
                            <rect id="Rectangle" fill="#F7CD84" x="7.62826421" y="140.245776" width="18.9339478" height="24.1628264" rx="6.25"></rect>
                            <path d="M24.3102919,140.245776 L21.7849462,140.245776 C23.0303441,140.245776 24.0399386,141.25537 24.0399386,142.500768 L24.0399386,162.162826 C24.0382435,163.407024 23.0291453,164.414747 21.7849462,164.414747 L24.3102919,164.414747 C25.553993,164.414747 26.5622309,163.406528 26.5622309,162.162826 L26.5622309,142.509985 C26.5646613,141.91086 26.3285859,141.33539 25.9060918,140.91059 C25.4835976,140.485791 24.9094207,140.246587 24.3102919,140.245776 L24.3102919,140.245776 Z" id="Path" fill="#F8B461"></path>
                            <path d="M10.4239631,140.245776 L12.0030722,140.245776 L12.0030722,146.184332 C11.9997005,146.553513 11.6994581,146.850998 11.3302611,146.850998 L11.0967742,146.850998 C10.7251909,146.850998 10.4239631,146.549771 10.4239631,146.178187 L10.4239631,140.245776 L10.4239631,140.245776 Z" id="Path" fill="#ED4A5E"></path>
                            <rect id="Rectangle" fill="#ED4A5E" x="12" y="140.245776" width="1.57910906" height="2.16282642"></rect>
                            <rect id="Rectangle" fill="#F7CD84" x="12" y="141.357911" width="1.57910906" height="1.86482335" rx="0.789554531"></rect>
                            <path d="M13.5791091,140.245776 L15.1582181,140.245776 L15.1582181,142.669739 C15.1582181,143.041322 14.8569904,143.34255 14.4854071,143.34255 L14.2519201,143.34255 C13.8803368,143.34255 13.5791091,143.041322 13.5791091,142.669739 L13.5791091,140.245776 L13.5791091,140.245776 Z" id="Path" fill="#ED4A5E"></path>
                            <rect id="Rectangle" fill="#DFCCE2" x="67.2780338" y="37.7480799" width="26.5253456" height="12.5407066"></rect>
                            <circle id="Oval" fill="#A380AF" opacity="0.82" cx="82.4208909" cy="44.0184332" r="3.16129032"></circle>
                            <circle id="Oval" fill="#736177" cx="81.6006144" cy="44.0184332" r="3.16129032"></circle>
                            <rect id="Rectangle" fill="#EA3268" x="7.62826421" y="148" width="18.9339478" height="8.05529954"></rect>
                            <rect id="Rectangle" fill="#D33167" x="24.172043" y="148" width="2.39016897" height="8.05529954"></rect>
                            <path d="M149.834101,152.912442 C149.240247,152.912442 148.758833,152.431028 148.758833,151.837174 C148.758833,151.243319 149.240247,150.761905 149.834101,150.761905 L162.75576,150.761905 L162.75576,150 L149.834101,150 C148.904512,150.10788 148.203276,150.895201 148.203276,151.831029 C148.203276,152.766858 148.904512,153.554178 149.834101,153.662058 L162.75576,153.662058 L162.75576,152.903226 L149.834101,152.912442 Z" id="Path" fill="#ED4A5E"></path>
                            <path d="M149.834101,152.912442 C149.240247,152.912442 148.758833,152.431028 148.758833,151.837174 C148.758833,151.243319 149.240247,150.761905 149.834101,150.761905 L162.18126,150.761905 L162.18126,152.912442 L149.834101,152.912442 Z" id="Path" fill="#F4E1E4"></path>
                            <rect id="Rectangle" fill="#442228" opacity="0.2" x="156.949309" y="150.771121" width="5.23195084" height="2.14132104"></rect>
                            <rect id="Rectangle" fill="#442228" opacity="0.2" x="156.949309" y="150.009217" width="5.80645161" height="1"></rect>
                            <rect id="Rectangle" fill="#442228" opacity="0.2" x="156.949309" y="152.912442" width="5.80645161" height="1"></rect>
                            <path d="M0,164.408602 C0,163.293852 0.903683316,162.390169 2.01843318,162.390169 C3.13318304,162.390169 4.03686636,163.293852 4.03686636,164.408602 L0,164.408602 Z" id="Path" fill="#ED4A5E"></path>
                            <path d="M3.02918587,164.408602 C3.02918587,163.852076 3.48033979,163.400922 4.03686636,163.400922 C4.59339293,163.400922 5.04454685,163.852076 5.04454685,164.408602 L3.02918587,164.408602 Z" id="Path" fill="#E0445E"></path>
                        </g>
                    </g>
                </g>
            </g>
        </g>
    </g>
</svg>