<?xml version="1.0" encoding="UTF-8"?>
<svg width="200px" height="124px" viewBox="0 0 200 124" version="1.1" xmlns="http://www.w3.org/2000/svg" xmlns:xlink="http://www.w3.org/1999/xlink">
    <title>104-dumbbell</title>
    <g id="Foundation:-niceverynice.com" stroke="none" stroke-width="1" fill="none" fill-rule="evenodd">
        <g id="Main-Page" transform="translate(-746.000000, -4167.000000)">
            <g id="Block-with-Categories" transform="translate(130.000000, 3645.000000)">
                <g id="Categories" transform="translate(0.000000, 465.000000)">
                    <g id="104-dumbbell" transform="translate(616.000000, 60.000000)">
                        <g id="Group" opacity="0.2" transform="translate(45.221445, 0.000000)" stroke="#592D2D" stroke-linecap="round" stroke-linejoin="round" stroke-width="6">
                            <polyline id="Path" points="39.016317 0 39.016317 14.4195804 10.1771562 14.4195804"></polyline>
                            <polyline id="Path" points="67.8554779 14.4195804 39.016317 14.4195804 39.016317 0"></polyline>
                            <rect id="Rectangle" x="24.5967366" y="14.4195804" width="28.8391608" height="14.4195804"></rect>
                            <polyline id="Path" points="47.2074592 43.2587413 39.016317 43.2587413 39.016317 28.8391608 67.8554779 28.8391608"></polyline>
                            <polyline id="Path" points="10.1771562 28.8391608 39.016317 28.8391608 39.016317 43.2587413 15.6270396 43.2587413"></polyline>
                            <polyline id="Path" points="0.344988345 14.4195804 24.5920746 14.4195804 24.5920746 28.8391608 10.1771562 28.8391608"></polyline>
                            <polyline id="Path" points="74.2470862 28.8391608 53.4358974 28.8391608 53.4358974 14.4195804 63.4312354 14.4195804"></polyline>
                        </g>
                        <path d="M5.12820513,74 L11.5011655,74 L11.5011655,85.9114219 L5.12820513,85.9114219 C2.29597564,85.9114219 -1.90991691e-05,83.6154463 -1.90991691e-05,80.7832168 L-1.90991691e-05,79.1421911 C-0.00371593983,77.7796849 0.534934663,76.47171 1.49706273,75.5069579 C2.4591908,74.5422059 3.76569386,74 5.12820513,74 L5.12820513,74 Z" id="Path" fill="#FFFFFF" fill-rule="nonzero"></path>
                        <path d="M22.4941725,61.7902098 L13.5804196,61.7902098 C9.25407925,61.7902098 5.74825175,69.9207459 5.74825175,79.972028 C5.74825175,90.02331 9.25407925,98.1538462 13.5804196,98.1538462 C13.7363371,98.1524167 13.8920239,98.1415186 14.04662,98.1212121 L22.4941725,98.1212121 L22.4941725,61.7902098 Z" id="Path" fill="#D16F6F" fill-rule="nonzero"></path>
                        <path d="M60.4895105,39.3473193 L35.5011655,39.3473193 C23.3799534,39.3473193 13.5337995,57.5291375 13.5337995,79.95338 C13.5337995,102.377622 23.3706294,120.564103 35.5011655,120.564103 C35.9389411,120.561073 36.3762409,120.534617 36.8111888,120.484848 L60.4895105,120.484848 L60.4895105,39.3473193 Z" id="Path" fill="#E08484" fill-rule="nonzero"></path>
                        <path d="M60.4895105,39.3473193 L35.5011655,39.3473193 C23.3799534,39.3473193 13.5337995,57.5291375 13.5337995,79.95338 C13.5337995,102.377622 23.3706294,120.564103 35.5011655,120.564103 C35.9389411,120.561073 36.3762409,120.534617 36.8111888,120.484848 L60.4895105,120.484848 L60.4895105,39.3473193 Z" id="Path" fill="#E08484" fill-rule="nonzero"></path>
                        <path d="M60.4895105,39.3473193 L35.5011655,39.3473193 C23.3799534,39.3473193 13.5337995,57.5291375 13.5337995,79.95338 C13.5337995,102.377622 23.3706294,120.564103 35.5011655,120.564103 C35.9389411,120.561073 36.3762409,120.534617 36.8111888,120.484848 L60.4895105,120.484848 L60.4895105,39.3473193 Z" id="Path" fill="#E08484" fill-rule="nonzero"></path>
                        <path d="M21.6456876,111.463869 C25.4265734,117.151515 30.2470862,120.564103 35.5011655,120.564103 C35.9389456,120.561207 36.3762526,120.534751 36.8111888,120.484848 L60.4895105,120.484848 L60.4895105,111.463869 L21.6456876,111.463869 Z" id="Path" fill="#D87171" fill-rule="nonzero"></path>
                        <path d="M21.4079254,48.8065268 L60.4895105,48.8065268 L60.4895105,39.3473193 L35.5011655,39.3473193 C30.1351981,39.3473193 25.2214452,42.9044289 21.4079254,48.8065268 Z" id="Path" fill="#E99697" fill-rule="nonzero"></path>
                        <ellipse id="Oval" fill="#D87171" fill-rule="nonzero" cx="61.1561772" cy="79.95338" rx="21.967366" ry="40.6060606"></ellipse>
                        <ellipse id="Oval" fill="#4E5A7D" fill-rule="nonzero" cx="61.1561772" cy="79.95338" rx="4.31235431" ry="9.51515152"></ellipse>
                        <ellipse id="Oval" fill="#C46565" fill-rule="nonzero" cx="61.1561772" cy="79.95338" rx="15.4405594" ry="32.8251748"></ellipse>
                        <ellipse id="Oval" fill="#D16F6F" fill-rule="nonzero" cx="61.1561772" cy="79.95338" rx="8.04195804" ry="15.4265734"></ellipse>
                        <ellipse id="Oval" fill="#4E5A7D" fill-rule="nonzero" cx="61.1561772" cy="79.95338" rx="4.31235431" ry="9.51515152"></ellipse>
                        <path d="M60.4428904,74.0745921 C59.1062794,77.8798237 59.1062794,82.0269362 60.4428904,85.8321678 C60.7147942,85.8848244 60.9911097,85.9114219 61.2680653,85.9114219 L142.386946,85.9114219 L142.386946,74 L61.2680653,74 C60.9913628,74.0008557 60.7152609,74.0258141 60.4428904,74.0745921 L60.4428904,74.0745921 Z" id="Path" fill="#B9B9BA" fill-rule="nonzero"></path>
                        <path d="M60.4428904,74.0745921 C59.1062794,77.8798237 59.1062794,82.0269362 60.4428904,85.8321678 C60.7147942,85.8848244 60.9911097,85.9114219 61.2680653,85.9114219 L142.386946,85.9114219 L142.386946,74 L61.2680653,74 C60.9913628,74.0008557 60.7152609,74.0258141 60.4428904,74.0745921 L60.4428904,74.0745921 Z" id="Path"></path>
                        <path d="M175.55711,39.3473193 L150.592075,39.3473193 C138.470862,39.3473193 128.624709,57.5291375 128.624709,79.95338 C128.624709,102.377622 138.456876,120.564103 150.592075,120.564103 C151.0283,120.561067 151.464048,120.534611 151.897436,120.484848 L175.55711,120.484848 L175.55711,39.3473193 Z" id="Path" fill="#E08484" fill-rule="nonzero"></path>
                        <path d="M137.403263,111.463869 C141.184149,117.151515 146.004662,120.564103 151.258741,120.564103 C151.696517,120.561073 152.133817,120.534617 152.568765,120.484848 L176.247086,120.484848 L176.247086,111.463869 L137.403263,111.463869 Z" id="Path" fill="#D87171" fill-rule="nonzero"></path>
                        <path d="M137.165501,48.8065268 L176.247086,48.8065268 L176.247086,39.3473193 L151.258741,39.3473193 C145.892774,39.3473193 140.979021,42.9044289 137.165501,48.8065268 Z" id="Path" fill="#E99697" fill-rule="nonzero"></path>
                        <ellipse id="Oval" fill="#E08484" fill-rule="nonzero" cx="176.247086" cy="79.95338" rx="21.967366" ry="40.6060606"></ellipse>
                        <ellipse id="Oval" fill="#D87171" fill-rule="nonzero" cx="176.247086" cy="79.95338" rx="21.967366" ry="40.6060606"></ellipse>
                        <ellipse id="Oval" fill="#4E5A7D" fill-rule="nonzero" cx="176.247086" cy="79.95338" rx="4.31235431" ry="9.51515152"></ellipse>
                        <ellipse id="Oval" fill="#C46565" fill-rule="nonzero" cx="176.247086" cy="79.95338" rx="15.4405594" ry="34.0792541"></ellipse>
                        <path d="M191.235431,64.2237762 L180.979021,64.2237762 C175.990676,64.2237762 171.948718,71.5944056 171.948718,80.6853147 C171.948718,89.7762238 175.990676,97.146854 180.979021,97.146854 C181.158099,97.146854 181.337057,97.1376195 181.515152,97.1188811 L191.249417,97.1188811 L191.235431,64.2237762 Z" id="Path" fill="#E08484" fill-rule="nonzero"></path>
                        <ellipse id="Oval" fill="#E08484" fill-rule="nonzero" cx="190.34965" cy="80.6853147" rx="7.86480186" ry="16.4615385"></ellipse>
                        <path d="M194.95573,74.7319347 L194.95573,74.7319347 C197.556232,74.7319347 199.664355,76.8400578 199.664355,79.4405594 L199.664355,81.9347319 C199.664355,84.5352336 197.556232,86.6433566 194.95573,86.6433566 L194.95573,86.6433566 C192.123501,86.6433566 189.827506,84.347381 189.827506,81.5151515 L189.827506,79.8741259 C189.823809,78.5116197 190.36246,77.2036447 191.324588,76.2388927 C192.286716,75.2741406 193.593219,74.7319347 194.95573,74.7319347 Z" id="Path" fill="#B9B9BA" fill-rule="nonzero" transform="translate(194.745930, 80.687646) rotate(-180.000000) translate(-194.745930, -80.687646) "></path>
                        <path d="M60.9277389,53.1888112 L59.1375291,53.1888112 L59.1375291,55.95338 L60.3682984,55.95338 C61.3799534,55.95338 62.1958042,56.974359 62.1958042,58.2284382 C62.1958042,59.4825175 61.3799534,60.5081585 60.3682984,60.5081585 C59.6067364,60.4639985 58.9517328,59.9537266 58.7226107,59.2261072" id="Path" stroke="#4E5A7D" stroke-width="2" stroke-linecap="round" stroke-linejoin="round"></path>
                    </g>
                </g>
            </g>
        </g>
    </g>
</svg>