<?xml version="1.0" encoding="UTF-8"?>
<svg width="180px" height="170px" viewBox="0 0 180 170" version="1.1" xmlns="http://www.w3.org/2000/svg" xmlns:xlink="http://www.w3.org/1999/xlink">
    <title>day42-imac</title>
    <g id="Foundation:-niceverynice.com" stroke="none" stroke-width="1" fill="none" fill-rule="evenodd">
        <g id="Main-Page" transform="translate(-171.000000, -4143.000000)">
            <g id="Block-with-Categories" transform="translate(130.000000, 3645.000000)">
                <g id="Categories" transform="translate(0.000000, 465.000000)">
                    <g id="day42-imac" transform="translate(41.000000, 33.000000)">
                        <path d="M7.68555858,0 L164.697548,0 C169.085728,0 172.643052,3.55732335 172.643052,7.94550409 L172.643052,100.054496 L0,100.054496 L0,7.68555858 C0,3.44094178 3.44094178,0 7.68555858,0 Z" id="Path" fill="#383939" fill-rule="nonzero"></path>
                        <path d="M48.2370572,-33.3514986 L124.405995,-33.3514986 C129.376557,-33.3514986 133.405995,-29.3220614 133.405995,-24.3514986 L133.405995,124.405995 C133.405995,129.376557 129.376557,133.405995 124.405995,133.405995 L48.2370572,133.405995 C43.2664945,133.405995 39.2370572,129.376557 39.2370572,124.405995 L39.2370572,-24.3514986 C39.2370572,-29.3220614 43.2664945,-33.3514986 48.2370572,-33.3514986 Z" id="Rectangle" fill="#3A3A3A" fill-rule="nonzero" transform="translate(86.321526, 50.027248) rotate(90.000000) translate(-86.321526, -50.027248) "></path>
                        <path d="M7.68555858,0 L164.697548,0 C169.085728,0 172.643052,3.55732335 172.643052,7.94550409 L172.643052,100.054496 L0,100.054496 L0,7.68555858 C0,3.44094178 3.44094178,0 7.68555858,0 Z" id="Path"></path>
                        <polygon id="Rectangle" fill="#4F4F4F" fill-rule="nonzero" transform="translate(86.321526, 50.027248) rotate(90.000000) translate(-86.321526, -50.027248) " points="46.1035422 -26.4850136 126.53951 -26.4850136 126.53951 126.53951 46.1035422 126.53951"></polygon>
                        <path d="M0,100.054496 L172.643052,100.054496 L172.643052,115.587466 C172.643052,120.01086 169.057182,123.59673 164.633787,123.59673 L7.7493188,123.59673 C5.69407167,123.59673 3.72300211,122.780287 2.26972293,121.327007 C0.816443744,119.873728 0,117.902659 0,115.847411 L0,100.054496 Z" id="Path" fill="#D4E8DC" fill-rule="nonzero"></path>
                        <path d="M77.3166213,28.2702997 L91.2408719,28.2702997 C92.3244294,28.2702997 93.3636073,28.7007413 94.1297981,29.4669321 C94.895989,30.233123 95.3264305,31.2723008 95.3264305,32.3558583 L95.3264305,189.240327 C95.3264305,191.353155 93.6136452,193.06594 91.5008174,193.06594 L77.3166213,193.06594 L77.3166213,28.2702997 Z" id="Path" fill="#EBF2EE" fill-rule="nonzero" transform="translate(86.321526, 110.668120) rotate(90.000000) translate(-86.321526, -110.668120) "></path>
                        <polygon id="Path" fill="#CAD8D0" fill-rule="nonzero" points="112.316076 141.253406 60.3269755 141.253406 68.0174387 123.59673 104.625613 123.59673"></polygon>
                        <polygon id="Path" fill="#A1ADA6" fill-rule="nonzero" points="108.044142 131.444142 104.625613 123.59673 68.0174387 123.59673 64.5989101 131.444142"></polygon>
                        <path d="M122.125341,149.100817 L50.5177112,149.100817 L51.2435967,146.516076 C52.1792639,143.364402 55.0924169,141.216077 58.3798365,141.253406 L114.292643,141.253406 C117.580063,141.216077 120.493216,143.364402 121.428883,146.516076 L122.125341,149.100817 Z" id="Path" fill="#DAEDE2" fill-rule="nonzero"></path>
                        <rect id="Rectangle" fill="#DAEDE2" fill-rule="nonzero" transform="translate(84.698093, 165.889373) rotate(180.000000) translate(-84.698093, -165.889373) " x="19.1771117" y="162.578747" width="131.041962" height="6.62125341" rx="3.3106267"></rect>
                        <path d="M60.6604905,157.674114 L120.497003,157.674114 L120.497003,159.635967 C120.497003,161.261219 119.179476,162.578747 117.554223,162.578747 L63.6032698,162.578747 C61.9780176,162.578747 60.6604905,161.261219 60.6604905,159.635967 L60.6604905,157.674114 L60.6604905,157.674114 Z" id="Path" fill="#383939" fill-rule="nonzero" transform="translate(90.578747, 160.126431) rotate(-180.000000) translate(-90.578747, -160.126431) "></path>
                        <path d="M48.7667575,157.674114 L59.1891008,157.674114 L59.1891008,159.635967 C59.1891008,161.261219 57.8715737,162.578747 56.2463215,162.578747 L51.7095368,162.578747 C50.0842847,162.578747 48.7667575,161.261219 48.7667575,159.635967 L48.7667575,157.674114 L48.7667575,157.674114 Z" id="Path" fill="#383939" fill-rule="nonzero" transform="translate(53.977929, 160.126431) rotate(-180.000000) translate(-53.977929, -160.126431) "></path>
                        <path d="M36.6817439,157.674114 L47.1040872,157.674114 L47.1040872,159.635967 C47.1040872,161.261219 45.78656,162.578747 44.1613079,162.578747 L39.6245232,162.578747 C37.999271,162.578747 36.6817439,161.261219 36.6817439,159.635967 L36.6817439,157.674114 L36.6817439,157.674114 Z" id="Path" fill="#383939" fill-rule="nonzero" transform="translate(41.892916, 160.126431) rotate(-180.000000) translate(-41.892916, -160.126431) "></path>
                        <path d="M134.377112,157.674114 L144.799455,157.674114 L144.799455,159.635967 C144.799455,161.261219 143.481928,162.578747 141.856676,162.578747 L137.319891,162.578747 C135.694639,162.578747 134.377112,161.261219 134.377112,159.635967 L134.377112,157.674114 Z" id="Path" fill="#383939" fill-rule="nonzero" transform="translate(139.588283, 160.126431) rotate(-180.000000) translate(-139.588283, -160.126431) "></path>
                        <path d="M122.287193,157.674114 L132.709537,157.674114 L132.709537,159.635967 C132.709537,161.261219 131.39201,162.578747 129.766757,162.578747 L125.229973,162.578747 C123.604721,162.578747 122.287193,161.261219 122.287193,159.635967 L122.287193,157.674114 Z" id="Path" fill="#383939" fill-rule="nonzero" transform="translate(127.498365, 160.126431) rotate(-180.000000) translate(-127.498365, -160.126431) "></path>
                        <path d="M24.586921,157.674114 L35.0092643,157.674114 L35.0092643,159.635967 C35.0092643,161.261219 33.6917371,162.578747 32.066485,162.578747 L27.5297003,162.578747 C25.9044481,162.578747 24.586921,161.261219 24.586921,159.635967 L24.586921,157.674114 L24.586921,157.674114 Z" id="Path" fill="#383939" fill-rule="nonzero" transform="translate(29.798093, 160.126431) rotate(-180.000000) translate(-29.798093, -160.126431) "></path>
                        <path d="M179.725341,169.185286 C179.695913,165.438147 175.580926,161.705722 168.415259,161.705722 C161.249591,161.705722 157.134605,165.438147 157.100272,169.185286 L179.725341,169.185286 Z" id="Path" fill="#DAEDE2" fill-rule="nonzero"></path>
                        <path d="M93.266485,110.623978 C91.0385721,110.62703 89.1519894,108.981511 88.8523161,106.773758 L88.7640327,106.773758 C86.5862689,106.761378 84.6417542,108.135509 83.9263864,110.192462 C83.2110185,112.249416 83.8832448,114.533598 85.5987794,115.875146 C87.3143141,117.216694 89.6931824,117.318468 91.517029,116.128345 C93.3408756,114.938221 94.2057358,112.719801 93.6686649,110.609264 C93.5656676,110.614169 93.4038147,110.623978 93.266485,110.623978 Z" id="Path" fill="#383939" fill-rule="nonzero"></path>
                        <path d="M91.6430518,49.2572207 C90.2236349,49.2582375 89.0214609,48.2110476 88.8277929,46.8049046 L88.7689373,46.8049046 C86.9838687,46.8049046 85.5367847,48.2519886 85.5367847,50.0370572 C85.5367847,51.8221258 86.9838687,53.2692098 88.7689373,53.2692098 C90.5540059,53.2692098 92.00109,51.8221258 92.00109,50.0370572 C92.00109,49.7740318 91.9681878,49.5120394 91.9029973,49.2572207 L91.6430518,49.2572207 Z" id="Path" fill="#E7F7F7" fill-rule="nonzero"></path>
                        <polygon id="Path" fill="#C2D3C9" fill-rule="nonzero" opacity="0.16" points="27.1716621 90.2452316 45.8877384 90.2452316 86.8708447 9.80926431 68.1547684 9.80926431"></polygon>
                        <polygon id="Path" fill="#C2D3C9" fill-rule="nonzero" opacity="0.16" points="61.0430518 90.2452316 102.031063 9.80926431 95.0223433 9.80926431 54.0392371 90.2452316"></polygon>
                        <g id="Group" opacity="0.38" transform="translate(77.002725, 60.326975)" fill="#C2D3C9" fill-rule="nonzero">
                            <path d="M20.7318801,1.9373297 L1.02997275,1.9373297 C0.623659721,1.9373297 0.294277929,1.60794791 0.294277929,1.20163488 C0.294277929,0.795321846 0.623659721,0.465940054 1.02997275,0.465940054 L20.7318801,0.465940054 C21.1381931,0.465940054 21.4675749,0.795321846 21.4675749,1.20163488 C21.4675749,1.60794791 21.1381931,1.9373297 20.7318801,1.9373297 Z" id="Path"></path>
                        </g>
                        <path d="M84.8305177,60.7929155 L78.0326975,60.7929155 C77.6263845,60.7929155 77.2970027,61.1222973 77.2970027,61.5286104 C77.2970027,61.9349234 77.6263845,62.2643052 78.0326975,62.2643052 L84.8305177,62.2643052 L84.8305177,60.7929155 Z" id="Path" fill="#C2D3C9" fill-rule="nonzero"></path>
                    </g>
                </g>
            </g>
        </g>
    </g>
</svg>