<?xml version="1.0" encoding="UTF-8"?>
<svg width="180px" height="154px" viewBox="0 0 180 154" version="1.1" xmlns="http://www.w3.org/2000/svg" xmlns:xlink="http://www.w3.org/1999/xlink">
    <title>day4-polariod</title>
    <defs>
        <radialGradient cx="-289.320292%" cy="510.051579%" fx="-289.320292%" fy="510.051579%" r="810.257645%" gradientTransform="translate(-2.893203,5.100516),scale(0.822294,1.000000),translate(2.893203,-5.100516)" id="radialGradient-1">
            <stop stop-color="#F9C200" offset="0%"></stop>
            <stop stop-color="#FF4C50" offset="45%"></stop>
            <stop stop-color="#B53E93" offset="80%"></stop>
            <stop stop-color="#423E93" offset="100%"></stop>
        </radialGradient>
    </defs>
    <g id="Foundation:-niceverynice.com" stroke="none" stroke-width="1" fill="none" fill-rule="evenodd">
        <g id="Main-Page" transform="translate(-463.000000, -4154.000000)">
            <g id="Block-with-Categories" transform="translate(130.000000, 3645.000000)">
                <g id="Categories" transform="translate(0.000000, 465.000000)">
                    <g id="day4-polariod" transform="translate(333.000000, 44.000000)">
                        <ellipse id="Oval" fill="#323845" fill-rule="nonzero" cx="89.9158879" cy="114.422804" rx="89.9158879" ry="12.468785"></ellipse>
                        <path d="M140.164486,153.494579 L37.9749533,153.494579 C34.6676636,153.494579 32.5042991,150.836636 33.1300935,147.626916 L40.4781308,109.863925 L137.664673,109.863925 L145.009346,147.626916 C145.63514,150.836636 143.471776,153.494579 140.164486,153.494579 Z" id="Path" fill="#323845" fill-rule="nonzero"></path>
                        <rect id="Rectangle" fill="#333E49" fill-rule="nonzero" x="113.420187" y="0" width="33.1940187" height="16.8224299" rx="8.41121495"></rect>
                        <path d="M28.3121495,6.96785047 L149.433645,6.96785047 C155.008108,6.96785047 159.527103,11.4868455 159.527103,17.0613084 L159.527103,64.8370093 L18.2186916,64.8370093 L18.2186916,17.0613084 C18.2186916,11.4868455 22.7376866,6.96785047 28.3121495,6.96785047 Z" id="Path" fill="#484E5C" fill-rule="nonzero"></path>
                        <path d="M149.423551,6.96785047 L148.568972,6.96785047 L148.568972,64.8370093 L159.517009,64.8370093 L159.517009,17.0613084 C159.500381,11.4937476 154.991112,6.98447844 149.423551,6.96785047 Z" id="Path" fill="#454B56" fill-rule="nonzero"></path>
                        <path d="M28.9749533,6.96785047 L28.3020561,6.96785047 C22.7344953,6.98447844 18.2252261,11.4937476 18.2085981,17.0613084 L18.2085981,64.8370093 L28.9413084,64.8370093 L28.9413084,17.0613084 C28.9413084,16.8224299 28.9413084,16.5869159 28.9682243,16.3514019 L28.9749533,6.96785047 Z" id="Path" fill="#555A66" fill-rule="nonzero"></path>
                        <rect id="Rectangle" fill="#38424F" fill-rule="nonzero" x="64.3895327" y="11.2508411" width="48.5831776" height="22.3166355" rx="11.1583178"></rect>
                        <rect id="Rectangle" fill="#3B4351" fill-rule="nonzero" x="64.5813084" y="15.6818692" width="48.5831776" height="22.3166355" rx="11.1583178"></rect>
                        <path d="M28.3121495,19.08 L149.433645,19.08 C155.008108,19.08 159.527103,23.598995 159.527103,29.1734579 L159.527103,76.9491589 L18.2186916,76.9491589 L18.2186916,29.1734579 C18.2186916,26.4965065 19.2821064,23.9291959 21.174997,22.0363054 C23.0678875,20.1434148 25.635198,19.08 28.3121495,19.08 Z" id="Path" fill="#F76E6E" fill-rule="nonzero"></path>
                        <path d="M149.423551,19.08 L144.12785,19.08 C149.695411,19.096628 154.20468,23.6058971 154.221308,29.1734579 L154.221308,76.9491589 L159.517009,76.9491589 L159.517009,29.1734579 C159.500381,23.6058971 154.991112,19.096628 149.423551,19.08 Z" id="Path" fill="#DD5F5F" fill-rule="nonzero"></path>
                        <path d="M33.6852336,19.08 L28.3020561,19.08 C22.7344953,19.096628 18.2252261,23.6058971 18.2085981,29.1734579 L18.2085981,76.9491589 L23.5917757,76.9491589 L23.5917757,29.1734579 C23.6084037,23.6058971 28.1176728,19.096628 33.6852336,19.08 Z" id="Path" fill="#F48989" fill-rule="nonzero"></path>
                        <rect id="Rectangle" stroke="#DD5F5F" stroke-width="4" fill="#DD5F5F" fill-rule="nonzero" x="122.443738" y="57.9061682" width="27.2557009" height="13.7876636" rx="6.89383178"></rect>
                        <rect id="Rectangle" fill="#484E5C" fill-rule="nonzero" x="124.654206" y="60.0897196" width="22.8347664" height="10.7663551" rx="5.38317757"></rect>
                        <path d="M145.170841,60.0897196 L145.154019,60.0897196 L145.154019,70.8560748 L145.170841,70.8560748 C146.451655,70.8560748 147.49048,69.8187563 147.492336,68.5379439 L147.492336,62.411215 C147.492336,61.7955161 147.247751,61.2050347 146.812386,60.7696699 C146.377021,60.334305 145.78654,60.0897196 145.170841,60.0897196 L145.170841,60.0897196 Z" id="Path" fill="#404751" fill-rule="nonzero"></path>
                        <path d="M140.339439,60.0897196 L126.975701,60.0897196 C126.360311,60.0897196 125.770175,60.3344117 125.335344,60.7698735 C124.900514,61.2053353 124.656677,61.7958257 124.657568,62.411215 L124.657568,68.5379439 C124.657568,69.8182122 125.695433,70.8560748 126.975701,70.8560748 L140.339439,70.8560748 L140.339439,60.0897196 Z" id="Path" fill="#6A6D7A" fill-rule="nonzero"></path>
                        <path d="M126.975701,60.0897196 C126.360311,60.0897196 125.770175,60.3344117 125.335344,60.7698735 C124.900514,61.2053353 124.656677,61.7958257 124.657568,62.411215 L124.657568,68.5379439 C124.657568,69.8182122 125.695433,70.8560748 126.975701,70.8560748 L127.608224,70.8560748 L127.608224,60.0897196 L126.975701,60.0897196 Z" id="Path" fill="#777982" fill-rule="nonzero"></path>
                        <rect id="Rectangle" stroke="#DD5F5F" stroke-width="4" fill="#DD5F5F" fill-rule="nonzero" x="122.443738" y="22.2964486" width="27.2557009" height="27.2557009" rx="6"></rect>
                        <path d="M105.87028,66.2971963 L95.3764486,66.2971963 L95.3764486,71.6803738 L105.87028,71.6803738 C107.356804,71.6803738 108.561869,70.4753085 108.561869,68.988785 L108.561869,68.988785 C108.561869,67.5022616 107.356804,66.2971963 105.87028,66.2971963 Z" id="Path" stroke="#DD5F5F" stroke-width="4" fill="#DD5F5F" fill-rule="nonzero" stroke-linecap="round" stroke-linejoin="round"></path>
                        <path d="M83.028785,66.2971963 L93.5226168,66.2971963 L93.5226168,71.6803738 L83.028785,71.6803738 C81.5422616,71.6803738 80.3371963,70.4753085 80.3371963,68.988785 L80.3371963,68.988785 C80.3371963,67.5022616 81.5422616,66.2971963 83.028785,66.2971963 Z" id="Path" stroke="#DD5F5F" stroke-width="4" fill="#DD5F5F" fill-rule="nonzero" stroke-linecap="round" stroke-linejoin="round"></path>
                        <path d="M105.197383,65.2878505 L94.7035514,65.2878505 L94.7035514,70.671028 L105.197383,70.671028 C106.683907,70.671028 107.888972,69.4659627 107.888972,67.9794393 L107.888972,67.9794393 C107.888972,66.4929158 106.683907,65.2878505 105.197383,65.2878505 Z" id="Path" fill="#484E5C" fill-rule="nonzero"></path>
                        <path d="M82.3558879,65.2878505 L92.8497196,65.2878505 L92.8497196,70.671028 L82.3558879,70.671028 C80.8693644,70.671028 79.6642991,69.4659627 79.6642991,67.9794393 L79.6642991,67.9794393 C79.6642991,66.4929158 80.8693644,65.2878505 82.3558879,65.2878505 Z" id="Path" fill="#484E5C" fill-rule="nonzero"></path>
                        <rect id="Rectangle" stroke="#DD5F5F" stroke-width="4" fill="#DD5F5F" fill-rule="nonzero" x="31.6968224" y="30.1457944" width="78.0560748" height="32.9719626" rx="12"></rect>
                        <rect id="Rectangle" fill="#484E5C" fill-rule="nonzero" x="31.6968224" y="25.0990654" width="78.0560748" height="32.9719626" rx="12"></rect>
                        <rect id="Rectangle" fill="#6A6D7A" fill-rule="nonzero" x="31.6968224" y="27.117757" width="78.0560748" height="32.9719626" rx="12"></rect>
                        <path d="M76.8381308,27.117757 L105.77271,27.117757 C108.002495,27.117757 109.810093,28.925355 109.810093,31.1551402 L109.810093,56.0523364 C109.810093,58.2821216 108.002495,60.0897196 105.77271,60.0897196 L76.8381308,60.0897196 L76.8381308,27.117757 Z" id="Path"></path>
                        <rect id="Rectangle" fill="#484E5C" fill-rule="nonzero" x="79.5028037" y="29.7824299" width="27.6426168" height="27.6426168" rx="8"></rect>
                        <path d="M93.4216822,45.7603738 L79.5499065,55.2145794 C79.7879194,56.4878334 80.8990836,57.4109761 82.1943925,57.4115888 L104.450467,57.4115888 C105.790141,57.4115888 106.925911,56.426429 107.11514,55.1001869 L93.4216822,45.7603738 Z" id="Path" fill="#636672" fill-rule="nonzero"></path>
                        <path d="M93.4216822,41.4504673 L79.5499065,31.9996262 C79.7864924,30.7250348 80.8980302,29.8001674 82.1943925,29.7992523 L104.450467,29.7992523 C105.790141,29.7992523 106.925911,30.7844121 107.11514,32.1106542 L93.4216822,41.4504673 Z" id="Path" fill="#2D3039" fill-rule="nonzero" opacity="0.2"></path>
                        <rect id="Rectangle" fill="#3C4252" fill-rule="nonzero" x="83.9035514" y="34.1831776" width="18.8411215" height="18.8411215" rx="9.42056075"></rect>
                        <rect id="Rectangle" fill="#3C4252" fill-rule="nonzero" x="89.0714019" y="39.351028" width="8.50542056" height="8.50542056" rx="4.25271028"></rect>
                        <path d="M93.3241121,37.3323364 C96.7877118,37.3323364 99.595514,40.1401387 99.595514,43.6037383 C99.595514,47.0673379 96.7877118,49.8751402 93.3241121,49.8751402 C89.8605125,49.8751402 87.0527103,47.0673379 87.0527103,43.6037383 C87.0527103,40.1401387 89.8605125,37.3323364 93.3241121,37.3323364 Z" id="Rectangle" fill="#3C4252" fill-rule="nonzero" transform="translate(93.324112, 43.603738) rotate(90.000000) translate(-93.324112, -43.603738) "></path>
                        <rect id="Rectangle" fill="#323845" fill-rule="nonzero" x="90.3465421" y="40.6261682" width="5.95514019" height="5.95514019" rx="2.97757009"></rect>
                        <rect id="Rectangle" fill="#484E5C" fill-rule="nonzero" x="124.654206" y="25.1764486" width="22.8347664" height="22.8347664" rx="4"></rect>
                        <circle id="Oval" stroke="#323845" stroke-width="3" stroke-linecap="round" stroke-linejoin="round" cx="136.073271" cy="36.595514" r="8.46504673"></circle>
                        <circle id="Oval" fill="#6A6D7A" fill-rule="nonzero" cx="136.073271" cy="36.595514" r="6.05607477"></circle>
                        <circle id="Oval" fill="#30B2C4" fill-rule="nonzero" cx="136.073271" cy="36.595514" r="4.26280374"></circle>
                        <path d="M133.916636,36.595514 C133.918488,35.4052053 134.882962,34.4407311 136.073271,34.4388785" id="Path" stroke="#FFFFFF" stroke-width="3" stroke-linecap="round" stroke-linejoin="round"></path>
                        <polygon id="Path" fill="#DD5F5F" fill-rule="nonzero" points="162.891589 84.0145794 14.8542056 84.0145794 18.2186916 76.9491589 159.527103 76.9491589"></polygon>
                        <polygon id="Path" fill="#DD5F5F" fill-rule="nonzero" points="162.891589 84.0145794 14.8542056 84.0145794 18.2186916 76.9491589 159.527103 76.9491589"></polygon>
                        <polygon id="Path" fill="#D35959" fill-rule="nonzero" points="159.190654 76.9491589 154.271776 76.9491589 157.636262 84.0145794 162.55514 84.0145794"></polygon>
                        <polygon id="Path" fill="#F27979" fill-rule="nonzero" points="18.2186916 76.9491589 14.8542056 84.0145794 20.3921495 84.0145794 23.7566355 76.9491589"></polygon>
                        <polygon id="Path" points="162.891589 84.0145794 14.8542056 84.0145794 18.2186916 76.9491589 159.527103 76.9491589"></polygon>
                        <rect id="Rectangle" fill="#F76E6E" fill-rule="nonzero" x="14.8542056" y="84.0145794" width="148.037383" height="7.06542056"></rect>
                        <rect id="Rectangle" fill="#DD5F5F" fill-rule="nonzero" x="157.84486" y="84.0145794" width="5.04672897" height="7.06542056"></rect>
                        <rect id="Rectangle" fill="#F48989" fill-rule="nonzero" x="14.8542056" y="84.0145794" width="5.71962617" height="7.06542056"></rect>
                        <rect id="Rectangle" x="14.8542056" y="84.0145794" width="148.037383" height="7.06542056"></rect>
                        <path d="M149.423551,120.004486 L28.3020561,120.004486 C22.7271028,120.004486 17.7039252,115.660935 17.0714019,110.217196 L14.8441121,91.08 L162.881495,91.08 L160.65757,110.217196 C160.031776,115.660935 155.008598,120.004486 149.423551,120.004486 Z" id="Path" fill="#484E5C" fill-rule="nonzero"></path>
                        <path d="M157.834766,91.08 L155.610841,110.217196 C154.974953,115.660935 149.951776,120.004486 144.376822,120.004486 L149.423551,120.004486 C154.998505,120.004486 160.021682,115.660935 160.65757,110.217196 L162.881495,91.08 L157.834766,91.08 Z" id="Path" fill="#454B56" fill-rule="nonzero"></path>
                        <path d="M22.8011215,110.217196 L20.5637383,91.08 L14.8441121,91.08 L17.0714019,110.217196 C17.7039252,115.660935 22.7271028,120.004486 28.3020561,120.004486 L34.0216822,120.004486 C28.4568224,120.004486 23.4336449,115.660935 22.8011215,110.217196 Z" id="Path" fill="#555A66" fill-rule="nonzero"></path>
                        <path d="M29.9271028,96.597757 L148.357009,96.597757 C149.100271,96.597757 149.702804,97.2002897 149.702804,97.9435514 L149.702804,107.700561 C149.702804,109.558715 148.196472,111.065047 146.338318,111.065047 L31.9457944,111.065047 C30.0876401,111.065047 28.5813084,109.558715 28.5813084,107.700561 L28.5813084,97.9435514 C28.5813084,97.2002897 29.1838411,96.597757 29.9271028,96.597757 Z" id="Path" fill="#2D3039" fill-rule="nonzero"></path>
                        <path d="M139.969346,144.400374 L37.7798131,144.400374 C34.4725234,144.400374 32.3091589,141.745794 32.9315888,138.53271 L40.2796262,100.773084 L137.466168,100.773084 L144.814206,138.53271 C145.44,141.745794 143.276636,144.400374 139.969346,144.400374 Z" id="Path" fill="#DCDBD7" fill-rule="nonzero"></path>
                        <path d="M139.969346,144.400374 L37.7798131,144.400374 C34.4725234,144.400374 32.3091589,141.745794 32.9315888,138.53271 L40.2796262,100.773084 L137.466168,100.773084 L144.814206,138.53271 C145.44,141.745794 143.276636,144.400374 139.969346,144.400374 Z" id="Path" stroke="#323845" stroke-width="6" stroke-linecap="round" stroke-linejoin="round"></path>
                        <path d="M46.806729,128.398879 L50.9349533,101.183551 L126.807477,101.183551 L130.935701,128.398879 C131.208224,130.202243 129.879252,131.679252 127.961495,131.679252 L49.7842991,131.679252 C47.8699065,131.679252 46.5409346,130.202243 46.806729,128.398879 Z" id="Path" fill="#F9D176" fill-rule="nonzero"></path>
                        <path d="M88.6878505,96.5708411 C81.9992523,96.5708411 76.3469159,101.197009 76.0474766,107.145421 C75.7345794,113.386542 81.3801869,118.67215 88.671028,118.67215 C95.9618692,118.67215 101.61757,113.386542 101.311402,107.145421 C101.022056,101.197009 95.3730841,96.5708411 88.684486,96.5708411 L88.6878505,96.5708411 Z M96.2680374,101.954019 C97.5387805,103.253301 98.3290901,104.946652 98.508785,106.75514 C97.1775233,106.503494 95.8262154,106.372867 94.4714019,106.36486 L94.4714019,106.36486 C93.5185592,106.365147 92.5670885,106.437126 91.6250467,106.580187 C91.4029907,106.119252 91.1809346,105.67514 90.9521495,105.254579 C92.9374663,104.542461 94.7492585,103.417544 96.2680374,101.954019 L96.2680374,101.954019 Z M88.6878505,98.8351402 C90.8156714,98.8228647 92.8990919,99.4435577 94.673271,100.618318 C93.3409761,101.92661 91.731012,102.917888 89.9629907,103.518505 C89.0073665,101.917717 87.8986163,100.413467 86.6523364,99.0269159 C87.3177803,98.9001746 87.9936226,98.8359696 88.671028,98.8351402 L88.6878505,98.8351402 Z M84.4586916,99.6762617 C85.7554749,101.036226 86.8943001,102.538482 87.8534579,104.154393 C85.3206993,104.774477 82.7227003,105.088496 80.1151402,105.08972 L79.9603738,105.08972 C79.6575701,105.08972 79.3985047,105.08972 79.1798131,105.08972 C79.9671028,102.680748 81.9252336,100.715888 84.4418692,99.6728972 L84.4586916,99.6762617 Z M78.8231776,107.158879 L78.8231776,107.034393 C79.1057944,107.034393 79.4657944,107.034393 79.8998131,107.034393 L79.8998131,107.034393 C82.9228569,107.048833 85.9352134,106.67455 88.8628037,105.920748 C89.0545794,106.284112 89.2429907,106.664299 89.4314019,107.054579 C86.0810594,108.029909 83.1265888,110.043143 80.993271,112.804486 C79.5493099,111.280464 78.7720039,109.243971 78.833271,107.145421 L78.8231776,107.158879 Z M88.6743925,116.064673 C86.5340285,116.078031 84.4387361,115.449912 82.6586916,114.261308 C83.3403795,113.305792 84.1420921,112.441887 85.0441121,111.690841 C86.5625061,110.410589 88.3337236,109.464794 90.242243,108.91514 C91.1058297,111.028515 91.7901113,113.210788 92.2878505,115.438879 C91.1251425,115.838805 89.9039572,116.042335 88.6743925,116.041121 L88.6743925,116.064673 Z M94.4108411,114.429533 C93.9085664,112.391278 93.2563222,110.392937 92.4594393,108.450841 C93.1290039,108.366084 93.8032232,108.323384 94.4781308,108.322991 L94.5084112,108.322991 C95.8184235,108.333676 97.1243259,108.471139 98.4078505,108.733458 C97.9442575,111.113351 96.4911695,113.184124 94.4108411,114.429533 Z" id="Shape" fill="#F55090" fill-rule="nonzero"></path>
                        <path d="M139.969346,144.400374 L37.7798131,144.400374 C34.4725234,144.400374 32.3091589,141.745794 32.9315888,138.53271 L40.2796262,100.773084 L137.466168,100.773084 L144.814206,138.53271 C145.44,141.745794 143.276636,144.400374 139.969346,144.400374 Z" id="Path" fill="#DCDBD7" fill-rule="nonzero"></path>
                        <path d="M139.969346,144.400374 L37.7798131,144.400374 C34.4725234,144.400374 32.3091589,141.745794 32.9315888,138.53271 L40.2796262,100.773084 L137.466168,100.773084 L144.814206,138.53271 C145.44,141.745794 143.276636,144.400374 139.969346,144.400374 Z" id="Path"></path>
                        <path d="M46.806729,128.398879 L50.9349533,101.183551 L126.807477,101.183551 L130.935701,128.398879 C131.208224,130.202243 129.879252,131.679252 127.961495,131.679252 L49.7842991,131.679252 C47.8699065,131.679252 46.5409346,130.202243 46.806729,128.398879 Z" id="Path" fill="#FFFFFF" fill-rule="nonzero"></path>
                        <path d="M94.8818692,95.524486 L84.593271,95.524486 C81.1009346,95.524486 77.9383178,97.8056075 77.5278505,100.789907 L76.077757,110.950654 C75.5125234,114.964486 78.6583178,118.483738 83.1431776,118.483738 L96.3252336,118.483738 C100.8,118.483738 103.945794,114.964486 103.390654,110.950654 L101.960748,100.789907 C101.540187,97.8056075 98.3775701,95.524486 94.8953271,95.524486 L94.8818692,95.524486 Z M100.974953,110.950654 C101.284486,113.642243 99.1413084,115.936822 96.1771963,115.936822 L83.3080374,115.936822 C80.3439252,115.936822 78.2007477,113.638879 78.5102804,110.950654 L79.6878505,100.789907 C79.9233645,98.7442991 82.0766355,97.1461682 84.4923364,97.1461682 L94.9828037,97.1461682 C97.4018692,97.1461682 99.5517757,98.7442991 99.7872897,100.789907 L100.974953,110.950654 Z" id="Shape" fill="#000000" fill-rule="nonzero"></path>
                        <path d="M89.7375701,100.113645 C86.2923364,100.113645 83.3181308,102.468785 83.0927103,105.591028 C82.8504673,108.918505 85.8246729,111.811963 89.7375701,111.811963 C93.6504673,111.811963 96.6246729,108.918505 96.3824299,105.591028 C96.1570093,102.485607 93.1828037,100.113645 89.7375701,100.113645 Z M89.7375701,109.574579 C87.231028,109.574579 85.2796262,107.744299 85.3637383,105.591028 C85.4613084,103.531963 87.4160748,101.923738 89.7375701,101.923738 C92.0590654,101.923738 93.9970093,103.531963 94.0945794,105.591028 C94.1988785,107.744299 92.2441121,109.574579 89.7375701,109.574579 L89.7375701,109.574579 Z" id="Shape" fill="#000000" fill-rule="nonzero"></path>
                        <path d="M96.1368224,98.633271 C95.7469888,98.6285425 95.3676153,98.7593609 95.0635514,99.0033645 C94.7934634,99.2242571 94.6437489,99.5598671 94.6598131,99.9084112 C94.6921631,100.276758 94.8807889,100.613589 95.1779439,100.833645 C95.5086633,101.088169 95.9146433,101.225468 96.3319626,101.223925 C96.7328667,101.231547 97.122806,101.092795 97.428785,100.833645 C97.6957105,100.60366 97.8358999,100.259445 97.8056075,99.9084112 C97.7603882,99.543966 97.5637515,99.2154241 97.2639252,99.0033645 C96.937876,98.7618548 96.542573,98.6320538 96.1368224,98.633271 L96.1368224,98.633271 Z" id="Path" fill="url(#radialGradient-1)" fill-rule="nonzero"></path>
                        <path d="M29.9271028,96.597757 L148.357009,96.597757 C149.100271,96.597757 149.702804,97.2002897 149.702804,97.9435514 L149.702804,106.741682 L28.5813084,106.741682 L28.5813084,97.9435514 C28.5813084,97.5866245 28.7230971,97.2443165 28.9754825,96.9919311 C29.2278679,96.7395457 29.5701759,96.597757 29.9271028,96.597757 Z" id="Path" fill="#2D3039" fill-rule="nonzero" opacity="0.2"></path>
                        <rect id="Rectangle" fill="#6A6D7A" fill-rule="nonzero" x="28.5813084" y="95.524486" width="121.121495" height="6.4564486" rx="3.2282243"></rect>
                        <path d="M29.9271028,96.597757 L148.357009,96.597757 C149.100271,96.597757 149.702804,97.2002897 149.702804,97.9435514 L149.702804,101.980935 L28.5813084,101.980935 L28.5813084,97.9435514 C28.5813084,97.5866245 28.7230971,97.2443165 28.9754825,96.9919311 C29.2278679,96.7395457 29.5701759,96.597757 29.9271028,96.597757 Z" id="Path"></path>
                        <rect id="Rectangle" fill="#30B2C4" fill-rule="nonzero" opacity="0.81" x="83.9035514" y="34.1831776" width="18.8411215" height="18.8411215" rx="9.42056075"></rect>
                        <path d="M86.2586916,40.0979439 C86.2605425,38.1340969 87.8511089,36.5420258 89.8149533,36.5383178" id="Path" stroke="#FFFFFF" stroke-width="3" stroke-linecap="round" stroke-linejoin="round"></path>
                        <line x1="100.389533" y1="46.3962617" x2="100.389533" y2="47.7857944" id="Path" stroke="#FFFFFF" stroke-width="3" stroke-linecap="round" stroke-linejoin="round"></line>
                        <line x1="100.389533" y1="39.4216822" x2="100.389533" y2="44.1656075" id="Path" stroke="#FFFFFF" stroke-width="3" stroke-linecap="round" stroke-linejoin="round"></line>
                        <rect id="Rectangle" fill="#484E5C" fill-rule="nonzero" x="34.6373832" y="53.0242991" width="27.9252336" height="2.52672897" rx="1.26336449"></rect>
                        <rect id="Rectangle" fill="#484E5C" fill-rule="nonzero" x="65.4224299" y="52.3917757" width="8.52224299" height="3.7917757" rx="1.89588785"></rect>
                        <line x1="72.4878505" y1="30.0549533" x2="72.4878505" y2="49.5386916" id="Path" stroke="#323845" stroke-width="3" stroke-linecap="round" stroke-linejoin="round"></line>
                        <line x1="70.4691589" y1="30.0549533" x2="70.4691589" y2="49.5386916" id="Path" stroke="#323845" stroke-width="3" stroke-linecap="round" stroke-linejoin="round"></line>
                        <line x1="68.4504673" y1="30.0549533" x2="68.4504673" y2="49.5386916" id="Path" stroke="#323845" stroke-width="3" stroke-linecap="round" stroke-linejoin="round"></line>
                        <line x1="66.4317757" y1="30.0549533" x2="66.4317757" y2="49.5386916" id="Path" stroke="#323845" stroke-width="3" stroke-linecap="round" stroke-linejoin="round"></line>
                        <line x1="64.4130841" y1="30.0549533" x2="64.4130841" y2="49.5386916" id="Path" stroke="#323845" stroke-width="3" stroke-linecap="round" stroke-linejoin="round"></line>
                        <line x1="62.3943925" y1="30.0549533" x2="62.3943925" y2="49.5386916" id="Path" stroke="#323845" stroke-width="3" stroke-linecap="round" stroke-linejoin="round"></line>
                        <line x1="60.3757009" y1="30.0549533" x2="60.3757009" y2="49.5386916" id="Path" stroke="#323845" stroke-width="3" stroke-linecap="round" stroke-linejoin="round"></line>
                        <line x1="58.3570093" y1="30.0549533" x2="58.3570093" y2="49.5386916" id="Path" stroke="#323845" stroke-width="3" stroke-linecap="round" stroke-linejoin="round"></line>
                        <line x1="56.3383178" y1="30.0549533" x2="56.3383178" y2="49.5386916" id="Path" stroke="#323845" stroke-width="3" stroke-linecap="round" stroke-linejoin="round"></line>
                        <line x1="54.3196262" y1="30.0549533" x2="54.3196262" y2="49.5386916" id="Path" stroke="#323845" stroke-width="3" stroke-linecap="round" stroke-linejoin="round"></line>
                        <line x1="52.3009346" y1="30.0549533" x2="52.3009346" y2="49.5386916" id="Path" stroke="#323845" stroke-width="3" stroke-linecap="round" stroke-linejoin="round"></line>
                        <line x1="50.282243" y1="30.0549533" x2="50.282243" y2="49.5386916" id="Path" stroke="#323845" stroke-width="3" stroke-linecap="round" stroke-linejoin="round"></line>
                        <line x1="48.2635514" y1="30.0549533" x2="48.2635514" y2="49.5386916" id="Path" stroke="#323845" stroke-width="3" stroke-linecap="round" stroke-linejoin="round"></line>
                        <line x1="46.2448598" y1="30.0549533" x2="46.2448598" y2="49.5386916" id="Path" stroke="#323845" stroke-width="3" stroke-linecap="round" stroke-linejoin="round"></line>
                        <line x1="44.2261682" y1="30.0549533" x2="44.2261682" y2="49.5386916" id="Path" stroke="#323845" stroke-width="3" stroke-linecap="round" stroke-linejoin="round"></line>
                        <line x1="42.2074766" y1="30.0549533" x2="42.2074766" y2="49.5386916" id="Path" stroke="#323845" stroke-width="3" stroke-linecap="round" stroke-linejoin="round"></line>
                        <line x1="40.188785" y1="30.0549533" x2="40.188785" y2="49.5386916" id="Path" stroke="#323845" stroke-width="3" stroke-linecap="round" stroke-linejoin="round"></line>
                        <line x1="38.1700935" y1="30.0549533" x2="38.1700935" y2="49.5386916" id="Path" stroke="#323845" stroke-width="3" stroke-linecap="round" stroke-linejoin="round"></line>
                        <line x1="36.1514019" y1="30.0549533" x2="36.1514019" y2="49.5386916" id="Path" stroke="#323845" stroke-width="3" stroke-linecap="round" stroke-linejoin="round"></line>
                        <rect id="Rectangle" x="79.5028037" y="29.7824299" width="27.6426168" height="27.6426168" rx="8"></rect>
                        <path d="M146.146542,25.1798131 L131.309159,25.1798131 L147.492336,41.3596262 L147.492336,26.5256075 C147.492336,25.7823458 146.889804,25.1798131 146.146542,25.1798131 Z" id="Path" fill="#FFFFFF" fill-rule="nonzero" opacity="0.22"></path>
                        <path d="M126.107664,25.1798131 L126.003364,25.1798131 C125.260103,25.1798131 124.65757,25.7823458 124.65757,26.5256075 L124.65757,27.3700935 L145.302056,48.0145794 L146.146542,48.0145794 C146.889804,48.0145794 147.492336,47.4120468 147.492336,46.668785 L147.492336,46.5611215 L126.107664,25.1798131 Z" id="Path" fill="#FFFFFF" fill-rule="nonzero" opacity="0.22"></path>
                        <rect id="Rectangle" x="124.654206" y="25.1764486" width="22.8347664" height="22.8347664" rx="4"></rect>
                    </g>
                </g>
            </g>
        </g>
    </g>
</svg>