<?xml version="1.0" encoding="UTF-8"?>
<svg width="250px" height="200px" viewBox="0 0 250 200" version="1.1" xmlns="http://www.w3.org/2000/svg" xmlns:xlink="http://www.w3.org/1999/xlink">
    <title>Message Sent</title>
    <g id="Foundation:-niceverynice.com" stroke="none" stroke-width="1" fill="none" fill-rule="evenodd">
        <g id="Main-Page" transform="translate(-1115.000000, -4849.000000)" fill-rule="nonzero">
            <g id="Reviews" transform="translate(0.000000, 4714.000000)">
                <g id="Message-Sent" transform="translate(1115.000000, 135.000000)">
                    <path d="M104.330756,147.117698 C103.15113,145.247817 101.273488,143.926571 99.1151203,143.447595 C98.5578611,143.284654 97.9760659,143.222111 97.3969072,143.262887 C92.3668385,143.238832 93.2731959,136.247423 91.362543,133.167526 C88.9452198,129.278133 84.7397845,126.858806 80.1623711,126.724227 C78.0365382,126.764074 75.9601123,127.372171 74.1486254,128.485395 C71.95189,129.781787 69.9690722,129.916667 67.9390034,128.169244 C64.2800687,125.020619 60.6426117,122.680412 55.6537801,122.370275 C50.9420351,122.153237 46.3362157,123.811765 42.8445017,126.982818 C41.011631,128.608359 39.4785929,130.543267 38.3152921,132.699313 C37.1271478,134.907216 35.975945,137.087629 33.3599656,135.085052 C29.3926117,132.047251 24.983677,130.825601 20.1108247,132.637457 C15.7833351,134.346656 12.3305044,137.732562 10.5369416,142.025773 C9.70813522,144.117032 9.14894327,146.3053 8.87285223,148.537801 C8.39347079,151.446735 7.18041237,152.067869 4.76202749,153.434708 C0.638316151,155.763746 0.18556701,161.064433 1.53092784,165.204467 C2.75601375,168.972509 5.99828179,172.469072 10.2731959,171.94244 C12.4579038,171.674399 13.9879725,170.860825 15.7637457,172.698454 C17.5395189,174.536082 18.911512,176.469931 21.0798969,177.956186 C28.9484536,183.347938 39.242268,182.460481 47.5343643,178.54811 C52.2508591,176.323024 56.097079,173.085911 60.0420962,169.757732 C64.5756014,165.934708 67.1563574,172.335052 70.6091065,174.498282 C74.7036151,177.113194 79.8553929,177.437756 84.2457045,175.357388 C86.328683,174.323853 88.1499159,172.831029 89.5721649,170.991409 C90.8745704,169.319588 91.492268,166.659794 93.3402062,165.508591 C95.0584192,164.434708 97.2362543,165.067869 99.0919244,164.219931 C101.201536,163.127841 102.926729,161.416736 104.036082,159.316151 C106.176976,155.627148 106.734536,150.823024 104.330756,147.117698 Z M97.5618557,163.775773 C95.266323,164.324742 93.2379725,163.752577 91.5369416,165.853093 C89.8359107,167.953608 89.152921,170.426117 87.0652921,172.311856 C83.6402571,175.474086 78.790501,176.573268 74.3367698,175.196735 C72.1634519,174.490135 70.18612,173.283727 68.5635739,171.674399 C66.9450172,170.072165 66.0128866,167.78866 63.4819588,167.523196 C61.1434708,167.277491 59.6640893,168.849656 58.0695876,170.277491 C56.1496324,172.002024 54.0968999,173.572741 51.9304124,174.975086 C47.9392393,177.633111 43.467595,179.486496 38.766323,180.431271 C33.941089,181.3999 28.9335103,180.828944 24.4501718,178.798969 C22.3111519,177.795494 20.3665242,176.421515 18.7061856,174.74055 C17.1597938,173.167526 16.1597938,170.906357 13.766323,170.497423 C11.5635739,170.121134 9.70446735,171.465636 7.43986254,170.69244 C5.36888482,169.884764 3.7265411,168.253 2.90549828,166.187285 C1.31443299,162.649485 1.00687285,157.004296 4.66065292,154.581615 C6.69415808,153.232818 8.69845361,152.878866 9.49828179,150.2311 C10.2242268,147.813574 10.2199313,145.314433 11.1915808,142.92354 C12.8358983,138.643015 16.1851648,135.238358 20.4381443,133.524055 C22.7215594,132.6368 25.2186141,132.454848 27.6065292,133.001718 C30.1718213,133.631443 31.5695876,135.453608 33.7920962,136.537801 C35.8728522,137.554124 37.5343643,136.271478 38.4785223,134.496564 C39.5821924,132.227036 41.0370842,130.145886 42.7895189,128.329897 C46.1225663,124.962385 50.7115731,123.141484 55.4467354,123.30756 C57.776428,123.434371 60.0567898,124.028638 62.1520619,125.054983 C64.5575601,126.2311 66.0652921,128.27921 68.2706186,129.640893 C70.6761168,131.12457 72.6907216,130.362543 74.935567,129.11512 C76.9539301,127.951316 79.2979159,127.480587 81.6091065,127.774914 C86.2913884,128.46477 90.1906617,131.723403 91.7010309,136.208763 C92.4089347,138.498282 92.1091065,141.10567 94.0128866,142.853952 C94.7425771,143.579705 95.6951051,144.039024 96.717354,144.158076 C96.9320989,144.196972 97.1505632,144.211383 97.3685567,144.201031 C98.0008357,144.32754 98.6408655,144.411633 99.2843643,144.452749 C103.081615,145.483677 105.168385,149.560997 104.991409,153.295533 C104.797251,157.377148 101.813574,162.75945 97.5618557,163.775773 Z" id="Shape" fill="#B5E6D2"></path>
                    <path d="M120.262887,95.0017182 C120.068729,93.2835052 119.878007,91.5721649 119.669244,89.8599656 C118.952749,83.9876861 118.150916,78.126575 117.263746,72.2766323 C117.195876,71.8264605 116.511168,72.0189003 116.57646,72.4656357 C117.628007,79.419244 118.556128,86.3900344 119.360825,93.3780069 C119.625891,93.9382803 119.927218,94.4806686 120.262887,95.0017182 L120.262887,95.0017182 Z" id="Path" fill="#000000"></path>
                    <path d="M121.937285,100.15378 C121.845454,97.8701897 121.171172,95.6480187 119.978522,93.6984536 C118.562144,91.3978215 116.089135,89.9578661 113.389175,89.8616838 C109.971649,89.9020619 107.149485,92.5515464 103.828179,93.3591065 C101.886598,93.8316151 99.6778351,93.717354 98.1314433,94.9828179 C97.4656357,95.5266323 96.9871134,96.516323 97.4604811,97.233677 C97.9011526,97.7446133 98.5815902,97.9806032 99.2439863,97.8522337 C99.8934913,97.7177738 100.55753,97.6669604 101.219931,97.7010309 C101.368506,97.7089985 101.505946,97.782279 101.595361,97.9012027 C101.756873,98.1812715 101.391753,98.4613402 101.09622,98.588488 C100.148107,99.008942 99.2681208,99.5686697 98.4853952,100.249141 C98.0090369,100.56425 97.7195217,101.094706 97.7121993,101.665808 C97.8084192,102.32646 98.580756,102.676117 99.2474227,102.658076 C99.9140893,102.640034 100.55756,102.381443 101.223368,102.365979 C101.421526,102.336852 101.620974,102.409907 101.753436,102.560137 C101.885739,102.762887 101.753436,103.034364 101.600515,103.219931 C101.014096,103.741386 100.395464,104.225445 99.7482818,104.669244 C99.1701031,105.201031 98.8264605,106.18299 99.3745704,106.746564 C99.8814433,107.268041 100.749141,107.061856 101.42268,106.785223 C102.376289,106.392612 103.293814,105.926117 104.204467,105.439003 C104.176117,105.696735 104.15378,105.960481 104.139175,106.221649 C103.946528,108.361052 104.346911,110.512182 105.296392,112.439003 C107.333333,116.194158 111.952749,117.004296 115.852234,116.46134 C117.870295,116.233362 119.769423,115.390271 121.292096,114.046392 C122.731643,112.645442 123.642239,110.789646 123.869416,108.793814 C123.945376,108.230541 123.98412,107.662872 123.985576,107.094502 C123.998602,104.63007 123.286313,102.216235 121.937285,100.15378 L121.937285,100.15378 Z M121.456186,112.459622 C120.368861,113.841091 118.851297,114.819843 117.14433,115.24055 C115.142829,115.77769 113.043052,115.836549 111.014605,115.412371 C109.344784,115.108623 107.833414,114.231396 106.741409,112.932131 C105.683518,111.468236 105.103812,109.713214 105.081615,107.907216 C104.935004,105.824489 105.294916,103.737233 106.130584,101.823883 C106.888573,100.104672 108.194514,98.6848439 109.844502,97.7860825 C111.701722,96.8657192 113.8189,96.6118398 115.841065,97.0670103 C119.878866,97.9347079 122.456186,101.517182 122.939863,105.486254 C123.0034,106.021995 123.035242,106.56102 123.035223,107.100515 C123.094725,109.008877 122.541339,110.886113 121.456186,112.457045 L121.456186,112.459622 Z" id="Shape" fill="#F97580"></path>
                    <ellipse id="Oval" fill="#FCAFB7" cx="153.752577" cy="48.6778351" rx="53.4252577" ry="48.4080756"></ellipse>
                    <circle id="Oval" fill="#000000" cx="109.560997" cy="107.376289" r="1"></circle>
                    <path d="M147.030069,118.402062 C146.354919,118.951408 145.732256,119.56228 145.170103,120.226804 C143.682111,122.093942 142.07358,123.861748 140.354811,125.5189 C138.620061,127.183482 136.423079,128.285417 134.051546,128.680412 C131.481982,128.891743 128.916291,128.229736 126.769759,126.801546 C124.595361,125.458763 122.878007,123.515464 120.939863,121.849656 C119.80756,120.87543 117.171821,121.146048 116.359966,122.399485 C115.645556,123.72753 115.437074,125.26962 115.773196,126.739691 C116.743986,133.020619 121.585052,138.42354 127.584192,140.524914 C133.723844,142.521468 140.437554,141.627718 145.841065,138.094502 C147.832311,136.80891 149.583471,135.185096 151.015464,133.296392 C148.695971,128.651253 147.340308,123.584833 147.030069,118.402062 Z" id="Path" fill="#B7E9D4"></path>
                    <circle id="Oval" fill="#000000" cx="119.508591" cy="105.914948" r="1"></circle>
                    <path d="M119.168385,109.106529 C119.141188,110.310178 118.816531,111.488387 118.223368,112.536082 C117.631605,113.409764 116.674759,113.967055 115.622852,114.050687 C114.691395,114.043054 113.789839,113.72094 113.064433,113.136598 C112.066125,112.294122 111.292192,111.217345 110.811856,110.002577 C113.625481,110.516259 116.527633,110.20507 119.168385,109.106529 Z" id="Path" fill="#F97580"></path>
                    <path d="M107.799828,106.026632 C108.129895,105.159805 109.061544,104.682484 109.957904,104.920962 C110.401203,105.030928 110.591065,104.34622 110.146907,104.233677 C108.873893,103.89999 107.557151,104.595487 107.11512,105.835052 C106.952749,106.264605 107.638316,106.446735 107.802405,106.024055 L107.799828,106.026632 Z" id="Path" fill="#000000"></path>
                    <path d="M118.24055,103.795533 C118.9484,103.646122 119.684776,103.848786 120.216495,104.339347 C120.553265,104.647766 121.056701,104.146907 120.718213,103.837629 C120.002524,103.174808 119.008154,102.903441 118.054983,103.110825 C117.608247,103.204467 117.797251,103.889175 118.243986,103.79811 L118.24055,103.795533 Z" id="Path" fill="#000000"></path>
                    <path d="M115.482818,152.013746 L145.973368,154.063574 C145.335052,151.181271 144.411512,148.221649 142.342784,146.117698 C140.033505,143.766323 136.629725,142.831615 133.34622,142.551546 C128.626655,142.213406 123.887555,142.836518 119.415808,144.383162 C117.766043,144.856861 116.218007,145.631316 114.849656,146.667526 C113.472603,147.725522 112.62353,149.329917 112.523196,151.063574 C112.533565,151.459306 112.619288,151.849433 112.775773,152.213058 C113.664744,152.023018 114.5756,151.955954 115.482818,152.013746 Z" id="Path" fill="#F97580"></path>
                    <path d="M86.9802405,96.3573883 C86.7147766,95.7070447 86.2139175,92.7207904 85.8840206,92.0816151 C85.6780114,91.7189069 85.2847728,91.5037047 84.8682244,91.5257145 C84.451676,91.5477243 84.0833056,91.8031687 83.9166667,92.185567 C83.7139175,92.6039519 83.7001718,95.2310997 83.3006873,95.4587629 C82.1379608,95.9922222 80.7962591,95.9707449 79.6512027,95.4003436 C78.1907216,94.7989691 76.9175258,93.7869416 75.3556701,93.4149485 C74.8153973,93.2751619 74.2417893,93.3541951 73.7594502,93.6348797 C72.6348797,94.3281787 72.9003436,95.5756014 73.4656357,96.4501718 C75.9132302,100.256873 82.5068729,99.5429553 84.7250859,103.49055 C85.1752577,104.290378 85.3823024,105.202749 85.7560137,106.040378 C86.0722671,106.916346 86.7622036,107.605968 87.6383162,107.921821 C88.5249141,108.152921 91.7079038,107.926117 86.9802405,96.3573883 Z" id="Path" fill="#FCAFB7"></path>
                    <path d="M193.664089,74.2766323 C189.737973,78.8109966 185.994559,83.4925544 182.433849,88.3213058 C178.866838,93.1586483 175.493986,98.1297251 172.315292,103.234536 C169.136598,108.339347 166.165521,113.555269 163.402062,118.882302 C160.644903,124.196163 158.099084,129.608534 155.764605,135.119416 C153.433562,140.621707 151.322451,146.208763 149.431271,151.880584 C149.193013,152.594215 148.958763,153.310137 148.728522,154.028351 C148.591065,154.452326 149.265464,154.63488 149.402062,154.212199 C151.234822,148.527778 153.290092,142.920389 155.567869,137.390034 C157.841638,131.871134 160.333047,126.446449 163.042096,121.115979 C165.733963,115.804983 168.632589,110.602234 171.737973,105.507732 C174.843356,100.41323 178.139175,95.4478809 181.62543,90.6116838 C185.124857,85.7611684 188.812715,81.0518328 192.689003,76.483677 C193.178121,75.9080756 193.66953,75.3353379 194.16323,74.7654639 C194.454467,74.4295533 193.962199,73.9372852 193.669244,74.2766323 L193.664089,74.2766323 Z" id="Path" fill="#000000"></path>
                    <path d="M157.130584,118.244845 C156.915808,116.622852 156.42354,114.808419 154.911512,114.264605 C153.676117,113.823024 152,114.360825 151.204467,113.319588 C150.696735,112.65378 150.676976,111.46134 149.850515,111.330756 C149.337357,111.31178 148.885073,111.665047 148.77921,112.167526 C148.690371,112.657037 148.704415,113.159683 148.820447,113.643471 C148.914771,114.278936 148.963864,114.920296 148.967354,115.562715 C148.758244,115.739266 148.659868,116.014392 148.709622,116.283505 C148.744383,116.440445 148.818601,116.585924 148.925258,116.706186 C148.650592,120.374173 147.038901,123.813692 144.396048,126.371993 C143.510214,127.210566 143.355114,128.564434 144.028351,129.581615 C144.532646,130.335911 145.099656,130.940722 145.81701,130.79811 C146.518593,130.589467 147.13872,130.169449 147.592784,129.595361 C148.61675,128.507257 149.54488,127.332794 150.366838,126.085052 C150.724635,125.458028 151.194304,124.901879 151.752577,124.444158 C152.857423,124.430187 153.9407,124.136387 154.901203,123.590206 C156.234768,122.802397 157.115786,121.428915 157.275773,119.888316 C157.323298,119.336218 157.274166,118.780061 157.130584,118.244845 L157.130584,118.244845 Z" id="Path" fill="#FCAFB7"></path>
                    <path d="M156.872852,116.706186 C156.534403,116.157422 156.061217,115.704347 155.498282,115.390034 C154.878726,115.099479 154.212123,114.92228 153.530069,114.866838 C152.829878,114.760228 152.123789,114.696821 151.415808,114.676976 C150.762817,114.632171 150.10695,114.698106 149.475945,114.871993 C148.960121,114.998623 148.544156,115.37898 148.371993,115.881443 C148.283046,116.401968 148.507245,116.926331 148.945017,117.221649 C149.543935,117.630466 150.210187,117.930585 150.91323,118.108247 L150.939003,118.114261 C150.725945,118.166667 150.50945,118.222509 150.304983,118.286082 C149.595361,118.513746 148.61512,118.828179 148.399485,119.648625 C148.183849,120.469072 148.969072,120.906357 149.609966,121.150344 C150.052535,121.317158 150.505712,121.454345 150.966495,121.560997 C150.786082,121.62457 150.603093,121.679553 150.425258,121.754296 C149.815735,121.928265 149.273267,122.282921 148.869416,122.771478 C148.60941,123.281409 148.742416,123.903777 149.188144,124.262887 C149.715821,124.640647 150.357389,124.825382 151.005155,124.786082 C153.660653,124.920103 156.385739,123.783505 157.353093,121.151203 C157.863063,119.671959 157.687002,118.042371 156.872852,116.706186 L156.872852,116.706186 Z M156.589347,121.17354 C156.068916,122.333367 155.104842,123.235852 153.91323,123.678694 C153.217804,123.934715 152.484847,124.074049 151.743986,124.091065 C151.071575,124.193059 150.384019,124.100033 149.762887,123.823024 C148.876289,123.208763 150.063574,122.693299 150.56701,122.469072 C151.256647,122.168143 151.979664,121.950402 152.72079,121.820447 C153.140034,121.743986 152.999141,121.155498 152.626289,121.123711 C151.892783,121.060738 151.16814,120.919323 150.464777,120.70189 C150.051546,120.573883 148.68299,120.267182 149.219931,119.610825 C149.750409,119.17425 150.393896,118.897193 151.075601,118.811856 C151.784895,118.637878 152.511977,118.546776 153.242268,118.540378 C153.431677,118.531061 153.580463,118.374776 153.580463,118.185137 C153.580463,117.995499 153.431677,117.839214 153.242268,117.829897 C152.021714,117.75356 150.82904,117.432163 149.735395,116.88488 C149.406357,116.713058 148.839347,116.332474 149.134021,115.896907 C149.376289,115.53866 149.957904,115.462199 150.347079,115.42268 C151.444711,115.339329 152.5485,115.397073 153.631443,115.594502 C154.68818,115.649862 155.659365,116.192583 156.260309,117.063574 C157.021633,118.300775 157.143057,119.828155 156.58677,121.170103 L156.589347,121.17354 Z" id="Shape" fill="#000000"></path>
                    <path d="M134.931271,80.0936426 C135.486254,89.6079611 135.758877,99.1328751 135.749141,108.668385 C135.738259,118.144903 135.446735,127.615693 134.87457,137.080756 C134.552692,142.402062 134.142325,147.717068 133.643471,153.025773 C133.602234,153.469931 134.311856,153.466495 134.353952,153.025773 C135.243986,143.534937 135.85252,134.024628 136.179553,124.494845 C136.502577,115.024055 136.545533,105.549255 136.308419,96.0704467 C136.174971,90.7439863 135.952749,85.4175258 135.641753,80.0910653 C135.61512,79.6477663 134.905498,79.645189 134.931271,80.0910653 L134.931271,80.0936426 Z" id="Path" fill="#000000"></path>
                    <path d="M148.408935,124.697595 C147.092784,128.533505 145.81701,132.382302 144.619416,136.256014 C143.06386,141.289805 141.609107,146.352234 140.255155,151.443299 C140.083333,152.088202 139.913517,152.733677 139.745704,153.379725 C139.700899,153.551702 139.802654,153.727749 139.974039,153.774769 C140.145423,153.821788 140.322768,153.72231 140.371993,153.551546 C141.699026,148.454181 143.128007,143.385452 144.658935,138.345361 C146.011741,133.886598 147.448454,129.453036 148.969072,125.044674 C148.765262,124.95917 148.576224,124.842036 148.408935,124.697595 L148.408935,124.697595 Z" id="Path" fill="#000000"></path>
                    <path d="M169.025773,75.362543 C166.598511,80.2434135 164.270332,85.1689576 162.041237,90.1391753 C159.831615,95.0681558 157.72079,100.037514 155.708763,105.047251 C154.433849,108.22079 153.217354,111.414948 152.021478,114.618557 C152.236254,114.665808 152.451031,114.712199 152.666667,114.753436 C153.598511,112.250573 154.555556,109.7563 155.537801,107.270619 C157.536655,102.213345 159.637457,97.1953036 161.840206,92.2164948 C164.0252,87.2817869 166.308419,82.389748 168.689863,77.540378 C168.993414,76.9229668 169.29811,76.3064147 169.603952,75.6907216 C169.791237,75.3152921 169.213918,74.983677 169.025773,75.362543 Z" id="Path" fill="#000000"></path>
                    <path d="M146.477663,95.5438144 C146.159794,98.5850515 145.710481,101.612543 145.253436,104.63488 C144.631443,108.745704 143.964777,112.847938 143.271478,116.947595 C142.5189,121.430985 141.745704,125.910939 140.95189,130.387457 C140.214204,134.559851 139.463631,138.730527 138.700172,142.899485 C138.119989,146.066724 137.531214,149.232818 136.933849,152.397766 L136.766323,153.27921 C136.680412,153.724227 137.363402,153.914948 137.448454,153.467354 C138.0252,150.446163 138.589633,147.422108 139.141753,144.395189 C139.896048,140.289805 140.638316,136.182417 141.368557,132.073024 C142.162944,127.595934 142.941008,123.116552 143.702749,118.63488 C144.409794,114.458763 145.098797,110.27921 145.743127,106.091924 C146.237973,102.880584 146.719931,99.6640893 147.088488,96.435567 C147.122852,96.1383162 147.155498,95.8410653 147.186426,95.5438144 C147.233677,95.0919244 146.525773,95.0945017 146.479381,95.5438144 L146.477663,95.5438144 Z" id="Path" fill="#000000"></path>
                    <path d="M233.682131,71.0300687 C233.057445,69.087682 231.941133,67.3398192 230.441581,65.9561856 C228.862543,64.5 227.152062,63.5455326 226.409794,61.4089347 C225.654639,59.2362543 226.409794,56.9415808 225.823024,54.7190722 C225.262375,52.5917636 223.970651,50.7297584 222.174399,49.459622 C218.761636,47.2154221 214.39315,47.0231216 210.796392,48.9587629 C209.012027,49.9037801 207.703608,51.2946735 205.560997,51.4140893 C203.226804,51.5446735 201.412371,50.1142612 199.399485,49.1683849 C190.63219,45.0042228 180.303727,45.8709974 172.353093,51.4381443 C168.762259,54.0211663 165.830774,57.4141543 163.796392,61.3419244 C162.889175,63.1022337 162.486254,65.2895189 161.150344,66.7895189 C159.432131,68.7225086 156.795533,68.5017182 154.613402,69.5790378 C150.628737,71.5330403 148.472562,75.9369405 149.372852,80.282646 C149.728522,82.2817869 150.116838,84.0300687 149.325601,86.0128866 C148.542096,87.9733677 146.784364,89.3496564 145.835911,91.2431271 C143.955521,94.8816103 144.299029,99.2713314 146.722509,102.573024 C149.507732,106.364261 153.66323,107.239691 158.062715,106.431271 C163.456186,105.439863 164.189003,110.599656 167.335052,113.626289 C170.482146,116.581214 174.733903,118.064334 179.036082,117.707904 C183.074582,117.408449 186.89834,115.772546 189.90378,113.058419 C191.480697,111.637418 192.826719,109.979527 193.893471,108.14433 C194.939003,106.359966 195.464777,104.278351 197.587629,103.497423 C199.845361,102.661512 202.140893,104.098797 204.439003,104.140034 C206.800412,104.149196 209.114315,103.476831 211.103093,102.203608 C213.160323,100.883451 214.887783,99.1095567 216.152921,97.0180412 C217.435567,94.9501718 217.902062,92.6941581 218.862543,90.5068729 C221.09622,85.4261168 226.872852,87.5756014 230.419244,84.0773196 C233.770205,80.6293244 235.01556,75.6495471 233.682131,71.0300687 L233.682131,71.0300687 Z M232.777491,77.9785223 C232.234476,80.1001871 231.124373,82.0341052 229.566151,83.5730241 C227.77921,85.2482818 226.129725,85.3857388 223.83677,85.6915808 C218.72079,86.378866 218.232818,90.5816151 216.434708,94.4888316 C214.75,98.1469072 211.7689,101.487113 207.835911,102.717354 C205.845096,103.323259 203.720412,103.332817 201.724227,102.744845 C199.562715,102.16323 197.428694,101.987973 195.60567,103.573024 C194.059278,104.91323 193.446735,107.201031 192.310137,108.872852 C191.072535,110.713542 189.518766,112.320538 187.72079,113.619416 C184.167492,116.178503 179.75805,117.254984 175.425258,116.621134 C171.605414,116.003365 168.211155,113.83329 166.047251,110.62543 C164.896907,108.907216 164.292096,106.998282 162.353093,105.981959 C160.296392,104.905498 158.521478,105.511168 156.386598,105.815292 C152.459015,106.316107 148.62805,104.348901 146.746564,100.86512 C144.611684,97.016323 145.575035,92.6941581 148.177835,89.3530928 C149.368557,87.8221649 150.385739,86.5292096 150.693299,84.5420962 C151.058419,82.1752577 149.996564,79.9965636 150.132302,77.6443299 C150.405498,72.9003436 153.957045,70.5695876 158.126289,69.5180412 C162.825601,68.3333333 163.250859,64.0137457 165.428694,60.3702749 C167.437439,57.0058739 170.149364,54.1151855 173.378866,51.8960481 C180.907119,46.8629959 190.508463,46.0989347 198.737973,49.8780069 C200.878866,50.8505155 202.716495,52.354811 205.17354,52.3651203 C207.973368,52.3771478 209.511168,50.5489691 211.882302,49.4810997 C216.061856,47.5987973 221.428694,48.645189 223.920962,52.6718213 C225.249141,54.8195876 225.084192,56.8075601 225.104811,59.1958763 C225.135318,61.5823703 226.247353,63.8260338 228.128007,65.2955326 C232.071306,68.6426117 234.271478,72.6554983 232.777491,77.9785223 Z" id="Shape" fill="#B5E6D2"></path>
                    <path d="M205.296392,123.34622 C202.718019,127.783353 201.508709,132.883615 201.820447,138.006014 C199.170477,134.46861 196.168261,131.209348 192.859966,128.278351 C192.177835,127.676976 191.170103,128.676117 191.85567,129.282646 C195.766045,132.733551 199.239969,136.649469 202.200172,140.943299 C202.385792,141.240054 202.759359,141.358203 203.081863,141.222153 C203.404367,141.086104 203.580437,140.736087 203.497423,140.396048 C202.576045,134.765502 203.645685,128.98987 206.522337,124.062715 C206.702632,123.725891 206.584288,123.306793 206.254447,123.11402 C205.924607,122.921247 205.501373,123.023824 205.296392,123.34622 Z" id="Path" fill="#000000"></path>
                    <path d="M227.132302,117.792955 C226.755519,117.69754 226.370515,117.916189 226.25945,118.28866 L224.18299,123.786942 C223.5486,123.026803 223.045947,122.165818 222.695876,121.239691 C222.58296,120.868276 222.198911,120.650384 221.822165,120.743986 C221.445945,120.850842 221.22519,121.239936 221.32646,121.617698 C221.882614,123.129737 222.77575,124.495294 223.938144,125.610825 C224.119242,125.783618 224.377093,125.849945 224.619091,125.785984 C224.86109,125.722024 225.052497,125.536958 225.12457,125.297251 L227.628007,118.666667 C227.729774,118.288842 227.508832,117.899417 227.132302,117.792955 L227.132302,117.792955 Z" id="Path" fill="#000000"></path>
                    <path d="M216.617698,149.043814 C215.960481,150.346503 215.477803,151.730121 215.182131,153.158935 L212.11512,147.402921 C211.685567,146.59622 210.459622,147.31701 210.889175,148.119416 L214.943299,155.727663 C215.110145,155.99588 215.433107,156.122984 215.738003,156.040425 C216.042899,155.957865 216.257605,155.685172 216.266323,155.369416 C216.417644,153.413822 216.953671,151.507362 217.843643,149.75945 C218.256873,148.947595 217.032646,148.228522 216.617698,149.043814 Z" id="Path" fill="#000000"></path>
                    <path d="M214.251718,82.5781787 C212.938227,83.7922174 211.909885,85.2820659 211.24055,86.9407216 C210.382445,85.8106503 209.666321,84.5795058 209.108247,83.2749141 C208.909715,82.9378039 208.477057,82.8229388 208.137457,83.0171821 C207.806438,83.2207029 207.693095,83.6480033 207.879725,83.9888316 C208.649193,85.7702982 209.697555,87.4178059 210.985395,88.8694158 C211.165391,89.0447129 211.424132,89.1127764 211.667086,89.0487392 C211.91004,88.984702 212.101616,88.7979454 212.171821,88.556701 C212.71858,86.6442684 213.785373,84.9211016 215.253436,83.5790378 C215.929553,82.9621993 214.92354,81.9587629 214.251718,82.5781787 Z" id="Path" fill="#000000"></path>
                    <path d="M174.305842,140.542955 C174.02728,140.26862 173.580108,140.26862 173.301546,140.542955 C172.4135,141.618461 171.768731,142.873416 171.411512,144.221649 C170.74368,143.64805 170.204936,142.939484 169.830756,142.142612 C169.631921,141.805901 169.19963,141.691133 168.859966,141.88488 C168.527546,142.086945 168.413815,142.51533 168.602234,142.85567 C169.238567,144.184567 170.254018,145.295375 171.520619,146.04811 C171.711377,146.157468 171.941852,146.172942 172.145517,146.090067 C172.349182,146.007192 172.50337,145.83519 172.563574,145.623711 C172.759046,144.130702 173.361832,142.720338 174.305842,141.547251 C174.572148,141.265447 174.572148,140.824759 174.305842,140.542955 L174.305842,140.542955 Z" id="Path" fill="#000000"></path>
                    <path d="M186.683849,34.9948454 C186.306912,34.899845 185.921952,35.1182542 185.810137,35.4905498 L183.734536,40.9888316 C183.099388,40.2290729 182.596397,39.3680052 182.246564,38.4415808 C182.133657,38.0705788 181.750177,37.852795 181.373711,37.9458763 C180.997491,38.0527317 180.776737,38.4418258 180.878007,38.8195876 C181.433857,40.3315722 182.326702,41.6971341 183.488832,42.8127148 C183.66993,42.9855082 183.92778,43.051835 184.169779,42.9878745 C184.411777,42.9239141 184.603184,42.7388479 184.675258,42.4991409 C185.510309,40.2895189 186.345074,38.0796105 187.179553,35.8694158 C187.281366,35.4913766 187.060495,35.1016951 186.683849,34.9948454 L186.683849,34.9948454 Z" id="Path" fill="#000000"></path>
                    <path d="M174.94244,20.1597938 C174.565656,20.0643784 174.180652,20.2830271 174.069588,20.6554983 L169.916667,31.6520619 C168.399233,30.027923 167.218187,28.1195636 166.441581,26.0369416 C166.329039,25.6656478 165.945258,25.4476929 165.568729,25.5412371 C165.192934,25.6480976 164.972296,26.0366052 165.073024,26.4140893 C166.050746,29.0788727 167.628709,31.4828551 169.684708,33.4398625 C169.865806,33.6126559 170.123657,33.6789827 170.365655,33.6150223 C170.607653,33.5510619 170.79906,33.3659957 170.871134,33.1262887 C172.393471,29.0953608 173.916094,25.064433 175.439003,21.0335052 C175.539714,20.6555499 175.318698,20.2666691 174.94244,20.1597938 L174.94244,20.1597938 Z" id="Path" fill="#000000"></path>
                    <path d="M163.750859,157.63488 C163.338555,157.204809 162.88923,156.811829 162.408076,156.460481 C162.359943,156.396335 162.293871,156.347902 162.218213,156.321306 C160.658983,155.23049 158.833534,154.582128 156.935567,154.445017 L152.933849,154.176117 L143.280928,153.527491 L131.501718,152.735395 L121.122852,152.03866 C119.308419,151.916094 117.493414,151.794101 115.677835,151.67268 C111.274726,151.350753 107.138866,153.811685 105.321306,157.835052 C104.305842,160.154639 104.363402,162.804983 104.195876,165.28866 L103.440722,176.527491 C103.254009,179.297251 103.067869,182.066724 102.882302,184.835911 C102.739566,186.473327 102.96894,188.121824 103.553265,189.658076 C104.528799,192.115502 106.394409,194.115159 108.778351,195.258591 C110.749141,196.189003 112.809278,196.252577 114.925258,196.395189 L123.504296,196.971649 L135.131443,197.753436 L146.135739,198.493127 L153.113402,198.96134 C153.676117,199 154.241409,199.047251 154.805842,199.042484 C160.212968,198.949284 164.647694,194.730002 165.00945,189.334192 C165.056701,188.670962 165.095361,188.007732 165.142612,187.345361 L165.839347,176.988832 L166.508591,167.023196 C166.556701,166.310997 166.629725,165.592784 166.635796,164.87543 C166.644616,162.180042 165.610912,159.585622 163.750859,157.63488 L163.750859,157.63488 Z M118.106529,152.545533 L126.713918,153.123711 L138.121134,153.890893 L149.016323,154.622852 L155.967354,155.090206 L156.935567,155.155498 C158.560819,155.278015 160.129067,155.807756 161.495704,156.695876 C154.775501,162.435129 147.681728,167.721952 140.261168,172.521478 C138.199313,173.855384 136.10882,175.150916 133.989691,176.408076 C127.465636,170.802119 121.211627,164.902921 115.227663,158.710481 C113.566724,156.992268 111.92984,155.249427 110.31701,153.481959 C110.98992,153.119353 111.703742,152.83844 112.443299,152.645189 C114.313686,152.310555 116.225527,152.276912 118.106529,152.545533 L118.106529,152.545533 Z M103.845361,181.067869 L104.590206,169.985395 L105.143471,161.764605 C105.213211,160.200955 105.636785,158.673503 106.382302,157.297251 C107.181225,155.890468 108.315718,154.703146 109.684708,153.841065 C114.387457,158.980241 119.281501,163.934422 124.366838,168.703608 C118.602806,172.598225 113.041523,176.772337 107.68299,181.225945 C106.308419,182.370275 104.951031,183.539519 103.603952,184.719072 C103.603952,184.657216 103.603952,184.595361 103.612543,184.532646 C103.691008,183.376861 103.768614,182.222222 103.845361,181.068729 L103.845361,181.067869 Z M160.652921,196.235395 C158.759821,197.729645 156.379904,198.468874 153.973368,198.310137 C152.547251,198.219931 151.121993,198.117698 149.695876,198.022337 L140.093643,197.377148 L128.511168,196.598797 L118.287801,195.911512 L112.778351,195.541237 C111.292503,195.460252 109.843338,195.049392 108.536082,194.338488 C106.22021,193.044209 104.528491,190.865776 103.847938,188.301546 C103.636192,187.438688 103.540845,186.551377 103.564433,185.66323 C103.598416,185.649546 103.630245,185.631028 103.658935,185.608247 C108.884955,181.002103 114.339446,176.661849 120.001718,172.603952 C121.59622,171.461913 123.206472,170.34307 124.832474,169.247423 C124.853775,169.230152 124.873081,169.210557 124.890034,169.189003 C125.972509,170.201031 127.051546,171.215636 128.154639,172.210481 C129.979381,173.861684 131.82646,175.487973 133.695876,177.089347 C133.774749,177.16217 133.883121,177.193951 133.988832,177.175258 C134.053654,177.178601 134.11799,177.162442 134.17354,177.128866 C137.395189,175.214777 140.560137,173.210195 143.668385,171.11512 L143.674399,171.121993 C149.407216,175.031787 154.489691,179.798969 159.623711,184.444158 C161.187285,185.858247 162.760309,187.261455 164.342784,188.65378 C164.324742,188.904639 164.310997,189.155498 164.292096,189.405498 C164.075409,192.087333 162.758022,194.559765 160.652921,196.235395 Z M165.900344,165.485395 C165.763746,167.671821 165.606529,169.856529 165.459622,172.042955 L164.699313,183.360825 C164.600802,184.823024 164.502291,186.284937 164.40378,187.746564 C159.12543,183.101375 154.060997,178.196735 148.544674,173.829038 C147.164376,172.735682 145.749427,171.687572 144.299828,170.684708 C148.46134,167.862829 152.514318,164.888889 156.458763,161.762887 C158.364261,160.250859 160.24055,158.703036 162.087629,157.119416 C164.704938,159.073083 166.142926,162.22836 165.900344,165.485395 L165.900344,165.485395 Z" id="Shape" fill="#000000"></path>
                    <path d="M57.9587629,193.945876 L67.9931271,192.847938 C68.3804827,192.837147 68.6919581,192.525672 68.7027491,192.138316 C68.7004039,191.747378 68.384065,191.431039 67.9931271,191.428694 L57.9587629,192.525773 C57.5715906,192.53699 57.2603573,192.848223 57.2491409,193.235395 C57.2514811,193.626475 57.5676861,193.943063 57.9587629,193.945876 L57.9587629,193.945876 Z" id="Path" fill="#000000"></path>
                    <path d="M36.2723368,157.783505 L53.3814433,156.481959 C54.2869416,156.41323 54.2946735,154.993127 53.3814433,155.062715 L36.2723368,156.363402 C35.3676976,156.432131 35.3599656,157.852234 36.2723368,157.783505 L36.2723368,157.783505 Z" id="Path" fill="#000000"></path>
                    <path d="M53.806701,142.037801 L70.5051546,141.768041 C70.8876968,141.754733 71.1909336,141.440763 71.1909336,141.05799 C71.1909336,140.675216 70.8876968,140.361246 70.5051546,140.347938 L53.806701,140.618557 C53.4283488,140.63718 53.1311487,140.949368 53.1311487,141.328179 C53.1311487,141.706989 53.4283488,142.019178 53.806701,142.037801 Z" id="Path" fill="#000000"></path>
                    <path d="M29.1804124,99.8075601 L36.693299,99.3900344 C37.6013746,99.3402062 37.6073883,97.9201031 36.693299,97.9707904 L29.1804124,98.3883162 C28.2714777,98.4381443 28.2654639,99.8582474 29.1804124,99.8075601 Z" id="Path" fill="#000000"></path>
                    <path d="M57.152921,71.088488 L70.0919244,69.8367698 C70.4794638,69.8264059 70.7911825,69.5146871 70.8015464,69.1271478 C70.7987385,68.7364033 70.4826688,68.4203336 70.0919244,68.4175258 L57.152921,69.6683849 C56.76523,69.6787283 56.4532524,69.9903287 56.4424399,70.3780069 C56.4452478,70.7692258 56.7617021,71.0856801 57.152921,71.088488 L57.152921,71.088488 Z" id="Path" fill="#000000"></path>
                    <path d="M131.146048,140.622852 C130.716081,136.58973 129.836031,132.617406 128.522337,128.780069 C127.120275,124.492268 124.140893,120.284364 119.747423,119.278351 C116.630124,118.716114 113.419528,119.478215 110.887457,121.381443 C110.939003,121.41323 110.991409,121.440722 111.042096,121.474227 C111.884423,122.000379 112.551746,122.764571 112.959622,123.670103 C113.780928,125.603093 113.045533,127.364261 111.865979,128.902062 C110.862154,130.206007 109.405632,131.085868 107.784364,131.367698 C105.980241,131.68299 104.140893,131.960481 102.318729,132.093643 C101.189286,134.007658 99.9128204,135.831016 98.5008591,137.547251 C97.080756,139.207045 95.4390034,140.682131 94.1718213,142.462199 C92.7942152,144.191604 92.1603575,146.39759 92.4097938,148.594502 C92.911512,151.379725 95.4974227,153.449313 98.2603093,154.060997 C101.023196,154.67268 103.91323,154.075601 106.593643,153.171821 C109.274055,152.268041 111.859107,151.058419 114.609966,150.395189 C119.184708,149.291237 124.090206,149.7311 128.274914,146.97079 C130.234285,145.468873 131.312022,143.08605 131.146048,140.622852 L131.146048,140.622852 Z" id="Path" fill="#B7E9D4"></path>
                    <path d="M112.332474,123.785223 C111.953743,122.944123 111.333939,122.234324 110.551546,121.745704 C107.931271,120.037801 104.714777,120.392612 101.960481,119.224227 C99.1606529,118.036082 97.2113402,115.420962 95.895189,112.679553 C94.5790378,109.938144 93.7611684,106.977663 92.4295533,104.243986 C91.9893712,103.300145 91.4282458,102.417592 90.7603093,101.618557 C90.2938144,101.902921 89.8376289,102.207045 89.3762887,102.501718 C90.7920962,108.628866 88.4312715,108.743127 87.637457,108.536082 C86.6156836,108.167547 85.8109164,107.363409 85.4415808,106.341924 C85.3109966,106.050687 85.1984536,105.750859 85.0902062,105.450172 C83.3848505,106.724924 81.7611035,108.105353 80.2285223,109.583333 C80.568373,111.751585 81.1306172,113.879074 81.9063574,115.932131 C83.6108247,120.937285 85.6091065,126.306701 90.0472509,129.181271 C92.9682131,131.071306 96.5661512,131.59622 100.044674,131.683849 C102.556314,131.677933 105.061359,131.42645 107.524055,130.93299 C109.029708,130.671574 110.382385,129.85451 111.314433,128.643471 C112.414089,127.213918 113.095361,125.579897 112.332474,123.785223 Z" id="Path" fill="#B7E9D4"></path>
                    <path d="M129.558419,91.5893471 C129.78866,94.9553265 129.929553,98.3273196 130.051546,101.699313 C130.206186,105.980527 130.322738,110.2626 130.401203,114.545533 C130.492841,119.16008 130.555269,123.774914 130.588488,128.390034 C130.619416,132.742841 130.619416,137.098797 130.588488,141.457904 C130.559278,144.964777 130.510309,148.471649 130.380584,151.976804 C130.367411,152.330183 130.353379,152.683276 130.338488,153.036082 C130.318729,153.493127 131.025773,153.492268 131.04811,153.036082 C131.19244,149.665808 131.248282,146.291237 131.284364,142.917526 C131.329611,138.634021 131.337342,134.350229 131.30756,130.066151 C131.282932,125.451031 131.22795,120.836197 131.142612,116.221649 C131.062428,111.868843 130.95189,107.514318 130.810997,103.158076 C130.693299,99.652921 130.553265,96.1477663 130.33677,92.6477663 C130.314433,92.2943872 130.291237,91.9415808 130.267182,91.5893471 C130.236254,91.1357388 129.525773,91.1323024 129.55756,91.5893471 L129.558419,91.5893471 Z" id="Path" fill="#000000"></path>
                    <path d="M119.597938,40.742268 C119.34803,40.7573449 119.153077,40.9644138 119.153077,41.2147766 C119.153077,41.4651395 119.34803,41.6722083 119.597938,41.6872852 C119.847847,41.6722083 120.0428,41.4651395 120.0428,41.2147766 C120.0428,40.9644138 119.847847,40.7573449 119.597938,40.742268 L119.597938,40.742268 Z" id="Path" fill="#000000"></path>
                    <path d="M125.719072,51.8728522 C125.469164,51.8879291 125.274211,52.094998 125.274211,52.3453608 C125.274211,52.5957237 125.469164,52.8027925 125.719072,52.8178694 C125.968981,52.8027925 126.163934,52.5957237 126.163934,52.3453608 C126.163934,52.094998 125.968981,51.8879291 125.719072,51.8728522 Z" id="Path" fill="#000000"></path>
                    <path d="M143.249141,39.9080756 C142.999232,39.9231525 142.804279,40.1302213 142.804279,40.3805842 C142.804279,40.6309471 142.999232,40.8380159 143.249141,40.8530928 C143.499049,40.8380159 143.694002,40.6309471 143.694002,40.3805842 C143.694002,40.1302213 143.499049,39.9231525 143.249141,39.9080756 Z" id="Path" fill="#000000"></path>
                    <path d="M147.979381,60.7766323 C147.729473,60.7917092 147.53452,60.998778 147.53452,61.2491409 C147.53452,61.4995038 147.729473,61.7065726 147.979381,61.7216495 C148.22929,61.7065726 148.424243,61.4995038 148.424243,61.2491409 C148.424243,60.998778 148.22929,60.7917092 147.979381,60.7766323 L147.979381,60.7766323 Z" id="Path" fill="#000000"></path>
                    <path d="M154.658076,49.3685567 C154.408167,49.3836336 154.213214,49.5907024 154.213214,49.8410653 C154.213214,50.0914282 154.408167,50.298497 154.658076,50.3135739 C154.907984,50.298497 155.102937,50.0914282 155.102937,49.8410653 C155.102937,49.5907024 154.907984,49.3836336 154.658076,49.3685567 Z" id="Path" fill="#000000"></path>
                    <path d="M166.065292,43.5249141 C165.815384,43.539991 165.620431,43.7470598 165.620431,43.9974227 C165.620431,44.2477855 165.815384,44.4548544 166.065292,44.4699313 C166.315201,44.4548544 166.510154,44.2477855 166.510154,43.9974227 C166.510154,43.7470598 166.315201,43.539991 166.065292,43.5249141 L166.065292,43.5249141 Z" id="Path" fill="#000000"></path>
                    <path d="M152.432131,25.9948454 C152.182222,26.0099223 151.987269,26.2169911 151.987269,26.467354 C151.987269,26.7177168 152.182222,26.9247856 152.432131,26.9398625 C152.682039,26.9247856 152.876992,26.7177168 152.876992,26.467354 C152.876992,26.2169911 152.682039,26.0099223 152.432131,25.9948454 Z" id="Path" fill="#000000"></path>
                    <path d="M136.292955,29.8908935 C136.043047,29.9059704 135.848094,30.1130392 135.848094,30.3634021 C135.848094,30.6137649 136.043047,30.8208338 136.292955,30.8359107 C136.542864,30.8208338 136.737817,30.6137649 136.737817,30.3634021 C136.737817,30.1130392 136.542864,29.9059704 136.292955,29.8908935 Z" id="Path" fill="#000000"></path>
                    <path d="M149.371134,6.79553265 C149.121226,6.81060954 148.926273,7.01767837 148.926273,7.26804124 C148.926273,7.5184041 149.121226,7.72547293 149.371134,7.74054983 C149.621043,7.72547293 149.815995,7.5184041 149.815995,7.26804124 C149.815995,7.01767837 149.621043,6.81060954 149.371134,6.79553265 L149.371134,6.79553265 Z" id="Path" fill="#000000"></path>
                    <path d="M163.283505,11.2474227 C163.033597,11.2624996 162.838644,11.4695684 162.838644,11.7199313 C162.838644,11.9702941 163.033597,12.177363 163.283505,12.1924399 C163.533414,12.177363 163.728367,11.9702941 163.728367,11.7199313 C163.728367,11.4695684 163.533414,11.2624996 163.283505,11.2474227 Z" id="Path" fill="#000000"></path>
                    <path d="M137.406357,19.8737113 C137.156449,19.8887882 136.961496,20.0958571 136.961496,20.3462199 C136.961496,20.5965828 137.156449,20.8036516 137.406357,20.8187285 C137.656266,20.8036516 137.851219,20.5965828 137.851219,20.3462199 C137.851219,20.0958571 137.656266,19.8887882 137.406357,19.8737113 Z" id="Path" fill="#000000"></path>
                    <path d="M177.475086,57.9939863 C177.225177,58.0090632 177.030225,58.216132 177.030225,58.4664948 C177.030225,58.7168577 177.225177,58.9239265 177.475086,58.9390034 C177.724994,58.9239265 177.919947,58.7168577 177.919947,58.4664948 C177.919947,58.216132 177.724994,58.0090632 177.475086,57.9939863 Z" id="Path" fill="#000000"></path>
                    <path d="M173.300687,75.2465636 C173.050779,75.2616405 172.855826,75.4687093 172.855826,75.7190722 C172.855826,75.969435 173.050779,76.1765039 173.300687,76.1915808 C173.550596,76.1765039 173.745549,75.969435 173.745549,75.7190722 C173.745549,75.4687093 173.550596,75.2616405 173.300687,75.2465636 Z" id="Path" fill="#000000"></path>
                    <path d="M159.666667,74.9682131 C159.416758,74.98329 159.221805,75.1903588 159.221805,75.4407216 C159.221805,75.6910845 159.416758,75.8981533 159.666667,75.9132302 C159.916575,75.8981533 160.111528,75.6910845 160.111528,75.4407216 C160.111528,75.1903588 159.916575,74.98329 159.666667,74.9682131 Z" id="Path" fill="#000000"></path>
                    <path d="M135.738832,69.1245704 C135.488923,69.1396473 135.29397,69.3467162 135.29397,69.597079 C135.29397,69.8474419 135.488923,70.0545107 135.738832,70.0695876 C135.98874,70.0545107 136.183693,69.8474419 136.183693,69.597079 C136.183693,69.3467162 135.98874,69.1396473 135.738832,69.1245704 Z" id="Path" fill="#000000"></path>
                    <path d="M115.70189,73.024055 C115.451982,73.0391319 115.257029,73.2462007 115.257029,73.4965636 C115.257029,73.7469264 115.451982,73.9539953 115.70189,73.9690722 C115.951799,73.9539953 116.146751,73.7469264 116.146751,73.4965636 C116.146751,73.2462007 115.951799,73.0391319 115.70189,73.024055 Z" id="Path" fill="#000000"></path>
                    <path d="M113.475945,63.2809278 C113.226037,63.2960047 113.031084,63.5030736 113.031084,63.7534364 C113.031084,64.0037993 113.226037,64.2108681 113.475945,64.225945 C113.725854,64.2108681 113.920806,64.0037993 113.920806,63.7534364 C113.920806,63.5030736 113.725854,63.2960047 113.475945,63.2809278 L113.475945,63.2809278 Z" id="Path" fill="#000000"></path>
                    <path d="M85.0936426,62.1683849 C84.8437341,62.1834618 84.6487812,62.3905306 84.6487812,62.6408935 C84.6487812,62.8912563 84.8437341,63.0983252 85.0936426,63.1134021 C85.3435511,63.0983252 85.538504,62.8912563 85.538504,62.6408935 C85.538504,62.3905306 85.3435511,62.1834618 85.0936426,62.1683849 Z" id="Path" fill="#000000"></path>
                    <path d="M76.4682131,36.5687285 C76.2183046,36.5838054 76.0233516,36.7908742 76.0233516,37.0412371 C76.0233516,37.2916 76.2183046,37.4986688 76.4682131,37.5137457 C76.7181215,37.4986688 76.9130745,37.2916 76.9130745,37.0412371 C76.9130745,36.7908742 76.7181215,36.5838054 76.4682131,36.5687285 L76.4682131,36.5687285 Z" id="Path" fill="#000000"></path>
                    <path d="M58.3814433,50.2036082 C58.1315348,50.2186851 57.9365819,50.425754 57.9365819,50.6761168 C57.9365819,50.9264797 58.1315348,51.1335485 58.3814433,51.1486254 C58.6313518,51.1335485 58.8263047,50.9264797 58.8263047,50.6761168 C58.8263047,50.425754 58.6313518,50.2186851 58.3814433,50.2036082 Z" id="Path" fill="#000000"></path>
                    <path d="M29.9991409,64.3943299 C29.7492324,64.4094068 29.5542795,64.6164756 29.5542795,64.8668385 C29.5542795,65.1172014 29.7492324,65.3242702 29.9991409,65.3393471 C30.2490494,65.3242702 30.4440023,65.1172014 30.4440023,64.8668385 C30.4440023,64.6164756 30.2490494,64.4094068 29.9991409,64.3943299 L29.9991409,64.3943299 Z" id="Path" fill="#000000"></path>
                    <path d="M27.2164948,37.6821306 C26.9665864,37.6972075 26.7716334,37.9042763 26.7716334,38.1546392 C26.7716334,38.405002 26.9665864,38.6120709 27.2164948,38.6271478 C27.4664033,38.6120709 27.6613563,38.405002 27.6613563,38.1546392 C27.6613563,37.9042763 27.4664033,37.6972075 27.2164948,37.6821306 Z" id="Path" fill="#000000"></path>
                    <path d="M46.6950172,39.6297251 C46.4451087,39.644802 46.2501558,39.8518708 46.2501558,40.1022337 C46.2501558,40.3525965 46.4451087,40.5596654 46.6950172,40.5747423 C46.9449257,40.5596654 47.1398786,40.3525965 47.1398786,40.1022337 C47.1398786,39.8518708 46.9449257,39.644802 46.6950172,39.6297251 Z" id="Path" fill="#000000"></path>
                    <path d="M61.4424399,15.4209622 C61.1925314,15.4360391 60.9975785,15.6431079 60.9975785,15.8934708 C60.9975785,16.1438337 61.1925314,16.3509025 61.4424399,16.3659794 C61.6923483,16.3509025 61.8873013,16.1438337 61.8873013,15.8934708 C61.8873013,15.6431079 61.6923483,15.4360391 61.4424399,15.4209622 L61.4424399,15.4209622 Z" id="Path" fill="#000000"></path>
                    <path d="M18.8694158,54.0987973 C18.6195073,54.1138741 18.4245544,54.320943 18.4245544,54.5713058 C18.4245544,54.8216687 18.6195073,55.0287375 18.8694158,55.0438144 C19.1193243,55.0287375 19.3142772,54.8216687 19.3142772,54.5713058 C19.3142772,54.320943 19.1193243,54.1138741 18.8694158,54.0987973 Z" id="Path" fill="#000000"></path>
                    <path d="M96.5025773,83.0378007 C96.2526688,83.0528776 96.0577159,83.2599464 96.0577159,83.5103093 C96.0577159,83.7606721 96.2526688,83.967741 96.5025773,83.9828179 C96.7524858,83.967741 96.9474387,83.7606721 96.9474387,83.5103093 C96.9474387,83.2599464 96.7524858,83.0528776 96.5025773,83.0378007 Z" id="Path" fill="#000000"></path>
                    <path d="M195.005155,85.2637457 C194.755246,85.2788226 194.560293,85.4858914 194.560293,85.7362543 C194.560293,85.9866172 194.755246,86.193686 195.005155,86.2087629 C195.255063,86.193686 195.450016,85.9866172 195.450016,85.7362543 C195.450016,85.4858914 195.255063,85.2788226 195.005155,85.2637457 L195.005155,85.2637457 Z" id="Path" fill="#000000"></path>
                    <path d="M214.482818,60.2233677 C214.232909,60.2384446 214.037956,60.4455134 214.037956,60.6958763 C214.037956,60.9462392 214.232909,61.153308 214.482818,61.1683849 C214.732726,61.153308 214.927679,60.9462392 214.927679,60.6958763 C214.927679,60.4455134 214.732726,60.2384446 214.482818,60.2233677 L214.482818,60.2233677 Z" id="Path" fill="#000000"></path>
                    <path d="M230.068729,34.064433 C229.81882,34.0795099 229.623867,34.2865787 229.623867,34.5369416 C229.623867,34.7873044 229.81882,34.9943733 230.068729,35.0094502 C230.318637,34.9943733 230.51359,34.7873044 230.51359,34.5369416 C230.51359,34.2865787 230.318637,34.0795099 230.068729,34.064433 L230.068729,34.064433 Z" id="Path" fill="#000000"></path>
                    <path d="M249.542955,62.7250859 C249.293047,62.7401628 249.098094,62.9472316 249.098094,63.1975945 C249.098094,63.4479574 249.293047,63.6550262 249.542955,63.6701031 C249.792864,63.6550262 249.987817,63.4479574 249.987817,63.1975945 C249.987817,62.9472316 249.792864,62.7401628 249.542955,62.7250859 Z" id="Path" fill="#000000"></path>
                    <path d="M243.420962,71.0721649 C243.171054,71.0872418 242.976101,71.2943107 242.976101,71.5446735 C242.976101,71.7950364 243.171054,72.0021052 243.420962,72.0171821 C243.670871,72.0021052 243.865824,71.7950364 243.865824,71.5446735 C243.865824,71.2943107 243.670871,71.0872418 243.420962,71.0721649 Z" id="Path" fill="#000000"></path>
                    <path d="M239.247423,52.4295533 C238.997514,52.4446302 238.802561,52.651699 238.802561,52.9020619 C238.802561,53.1524247 238.997514,53.3594935 239.247423,53.3745704 C239.497331,53.3594935 239.692284,53.1524247 239.692284,52.9020619 C239.692284,52.651699 239.497331,52.4446302 239.247423,52.4295533 L239.247423,52.4295533 Z" id="Path" fill="#000000"></path>
                    <path d="M189.718213,61.6116838 C189.468305,61.6267607 189.273352,61.8338296 189.273352,62.0841924 C189.273352,62.3345553 189.468305,62.5416241 189.718213,62.556701 C189.968122,62.5416241 190.163074,62.3345553 190.163074,62.0841924 C190.163074,61.8338296 189.968122,61.6267607 189.718213,61.6116838 Z" id="Path" fill="#000000"></path>
                </g>
            </g>
        </g>
    </g>
</svg>