<?xml version="1.0" encoding="UTF-8"?>
<svg width="386px" height="275px" viewBox="0 0 386 275" version="1.1" xmlns="http://www.w3.org/2000/svg" xmlns:xlink="http://www.w3.org/1999/xlink">
    <title>Searching</title>
    <g id="Symbols" stroke="none" stroke-width="1" fill="none" fill-rule="evenodd">
        <g id="CTA" transform="translate(-149.000000, -85.000000)" fill-rule="nonzero">
            <g id="Searching" transform="translate(149.000000, 85.000000)">
                <path d="M253,62.0371123 C250.783616,68.6250401 245.305444,73.5951855 238.525635,75.1691751 L238.525635,84 L229.450736,84 L229.450736,75.1691751 C220.999064,73.1907119 214.770665,66.0242305 214,57.3913479 L214.120374,53.0326888 C215.252806,44.5125948 221.698762,37.6610968 230.144895,36 L253,62.0371123 Z" id="Path" fill="#FFFFFF"></path>
                <rect id="Rectangle" fill="#FFFFFF" x="292" y="49" width="93" height="93"></rect>
                <path d="M193.998498,48.6060962 L220.657339,55.1313208 C220.85764,55.1759812 221,55.352757 221,55.5568215 C221,55.7608861 220.85764,55.9376618 220.657339,55.9823222 L130,78 L130,33 L153.17611,38.7878663 L176.124912,43.2146591 L183.659308,55.6982146 L183.659308,45.484877 L193.998498,48.6060962 Z" id="Path" fill="#FFC5FF"></path>
                <polygon id="Path" fill="#FFC5FF" points="81 33 103 38.2777941 103 72.6667058 81 78"></polygon>
                <rect id="Rectangle" fill="#000000" x="22" y="116" width="103" height="21"></rect>
                <rect id="Rectangle" fill="#FF553E" x="1" y="116" width="21" height="21"></rect>
                <rect id="Rectangle" fill="#FFFFFF" x="1" y="137" width="110" height="67"></rect>
                <circle id="Oval" fill="#FFFFFF" cx="120.5" cy="55.5" r="24.5"></circle>
                <path d="M120.5,47 C114.782007,47.0007204 109.402711,49.7833425 106,54.5006139 C109.402685,59.2177619 114.782119,62 120.5,62 C126.217881,62 131.597315,59.2177619 135,54.5006139 C131.597289,49.7833425 126.217993,47.0007204 120.5,47 L120.5,47 Z" id="Path" fill="#FFFFFF"></path>
                <circle id="Oval" fill="#FFFFFF" cx="70.5" cy="55.5" r="24.5"></circle>
                <path d="M85,54.4719059 C81.536865,59.2064611 76.0631705,61.999162 70.2449336,62 C68.4707106,61.9897904 66.7061468,61.7346465 65,61.2416182 L65,47.759276 C66.7002075,47.2385501 68.468758,46.9828297 70.2449336,47.0008943 C76.0611769,46.9536602 81.5475684,49.7316142 85,54.4719059 Z" id="Path" fill="#FFFFFF"></path>
                <rect id="Rectangle" fill="#FFC5FF" x="110" y="138" width="14" height="39"></rect>
                <rect id="Rectangle" fill="#FFDB43" x="110" y="177" width="14" height="27"></rect>
                <path d="M65,48 L65,61 C61.3883946,59.8992525 58.2266501,57.6061024 56,54.4724798 C58.2680363,51.3946791 61.4164583,49.130446 65,48 Z" id="Path" fill="#000000"></path>
                <path d="M115,48 L115,61 C111.388395,59.8992525 108.22665,57.6061024 106,54.4724798 C108.24601,51.371091 111.402632,49.1009604 115,48 Z" id="Path" fill="#000000"></path>
                <path d="M275.978205,176 L204.185119,148.565061 L205.099553,130.083533 L194.409855,141.104554 C187.556652,148.105609 176.508448,148.678578 168.973403,142.423709 L168.744462,142.251297 C164.466451,138.677252 161.994619,133.376736 162,127.788712 L162,90.710714 L194.650776,90.710714 L194.650776,107.417331 L220.207022,84 L251.01694,84 C251.01694,84 275.252781,168.60231 275.710663,170.783526 C275.956209,172.510703 276.045754,174.256633 275.978205,176 Z" id="Path" fill="#229C92"></path>
                <path d="M276,176.086192 L204.896864,149.167125 C201.164217,147.736146 197.198327,147.001502 193.197903,147 L192.854719,147 C176.553698,146.993633 162.72453,158.898982 160.396478,174.942875 L153,226.378847 L203.004679,244 L196.237149,184.807799 L238.55825,200.831495 C247.960314,204.374863 258.557177,202.53865 266.1999,196.041782 L266.485664,195.813384 C272.438267,190.963129 275.922661,183.738524 276,176.086192 L276,176.086192 Z" id="Path" fill="#FFDB43"></path>
                <path d="M225.292827,196 L238.108584,200.886708 C245.374763,203.670329 253.481146,203.232251 260.405352,199.681767 L260.405352,199.681767 L251.210712,236.880997 L275.69139,227.797075 L295,275 L236.959087,275 C228.801082,275 221.117835,271.16227 216.213986,264.639525 C211.310136,258.116781 209.75612,249.667195 212.018074,241.825275 L225.292827,196 Z" id="Path" fill="#FFDB43"></path>
                <polygon id="Path" fill="#FFC5FF" points="294.835208 274 334 274 298.58769 229 280 237.999736"></polygon>
                <path d="M252.191653,40 L228,33.0004402 L241.654557,4.96451126 C243.151345,1.89336341 246.575849,0.340708451 249.81299,1.26551314 L249.925129,1.32339412 C253.167454,2.25251801 255.291541,5.41828829 254.96742,8.83849838 L252.191653,40 Z" id="Path" fill="#000000"></path>
                <rect id="Rectangle" fill="#FFC5FF" x="162" y="91" width="33" height="9"></rect>
                <path d="M194,32.0866382 L194,91 L161.427918,91 L161.427918,74.6572804 L145.687825,48.3109323 C145.029215,47.2303388 144.833353,45.9292975 145.144549,44.7021415 C145.455745,43.4749856 146.2477,42.4254162 147.341252,41.7908764 L147.398358,41.7336596 C148.477121,41.0742585 149.775648,40.8784323 151.000342,41.1904572 C152.225037,41.5024821 153.272471,42.2960072 153.905822,43.3916167 C153.243476,42.3119675 153.045492,41.0096773 153.356971,39.7814067 C153.668449,38.5531361 154.462864,37.5034842 155.559248,36.8715608 L155.616355,36.814344 C156.689227,36.1602819 157.977835,35.961049 159.197584,36.2606468 C160.417333,36.5602446 161.46787,37.3340242 162.117178,38.4110924 C161.464152,37.3300648 161.271593,36.0316283 161.582698,34.8070657 C161.893803,33.5825031 162.682527,32.534331 163.771933,31.8976896 L163.829039,31.8404728 C164.907452,31.1802157 166.206104,30.9837632 167.431001,31.2955891 C168.655897,31.6074151 169.703447,32.4011483 170.336502,33.4970992 L183.682114,55.8396008 L183.682114,32.0866382 C183.687958,29.2803439 185.957061,27.0068502 188.757935,27.0009946 L188.872147,27.0009946 C190.231165,26.9739511 191.54321,27.499366 192.509236,28.4574853 C193.475263,29.4156047 194.012956,30.7247862 194,32.0866382 Z" id="Path" fill="#FFFFFF"></path>
                <polygon id="Path" fill="#FFC5FF" points="206 274 202.588519 243.724166 169.545092 232 134 274"></polygon>
                <path d="M253.999715,55.7257285 C254.011456,57.8591294 253.660509,59.9795541 252.961272,62 L230,36.3948652 C231.273969,36.1492702 232.568006,36.0171126 233.866285,36 C239.207533,35.9951133 244.331453,38.0717808 248.108287,41.7721326 C251.885121,45.4724843 254.004711,50.4926431 253.999715,55.7257285 L253.999715,55.7257285 Z" id="Path" fill="#FFDB43"></path>
                <path d="M280.450584,236.66368 L276.165575,226.155121 L252.563428,234.951716 L261.191998,199.935601 C263.062194,198.968967 264.808423,197.77954 266.392561,196.393285 L266.678672,196.164491 C272.710221,190.954053 276.276297,183.451791 276.507577,175.486573 L276.622022,175.20058 L276.507577,175.143382 C276.551795,172.464607 276.224878,169.792605 275.536131,167.203434 L251.305871,83.1708747 L238.90463,83.1708747 L238.90463,75.9173084 C247.035796,73.7436606 253.055846,66.8871643 254.15675,58.5460059 C255.257654,50.2048475 251.222522,42.0223211 243.933526,37.8151347 L269.650233,45.1312203 L270.10801,43.4737944 L253.134319,38.7901694 L255.878321,8.68647253 C256.220077,4.89404202 253.818489,1.39364055 250.156104,0.346134974 L250.04166,0.288936487 C249.337722,0.0779856417 248.604456,-0.0185750052 247.869879,0.00294405077 C244.858447,-0.0134999573 242.103967,1.69641463 240.783646,4.40190678 L227.418943,31.4794046 L210.445252,26.6813827 L209.988805,28.3374784 L226.623156,33.079632 L226.623156,33.079632 L234.167166,35.1933157 L233.593614,35.1933157 C232.425923,35.2005128 231.260436,35.2956697 230.107054,35.4779779 L230.107054,35.4779779 C221.524875,36.9784368 214.779777,43.6528492 213.191916,52.2158515 L195.304,47.8168888 L195.304,31.9888702 C195.305414,30.4128759 194.67972,28.901024 193.564862,27.7866274 C192.450004,26.6722307 190.937526,26.0467953 189.360879,26.0482087 L189.131991,26.0482087 C187.555344,26.0467953 186.042866,26.6722307 184.928008,27.7866274 C183.81315,28.901024 183.187456,30.4128759 183.18887,31.9888702 L183.18887,52.5523915 L171.417073,32.8455173 C169.814302,30.1894229 166.368532,29.3223984 163.698734,30.9034291 L163.641512,30.9606276 C161.980689,31.9723059 160.947649,33.757959 160.89884,35.7014511 C160.509512,35.5242012 160.109513,35.3713757 159.701167,35.2438632 C158.262935,34.9029788 156.748629,35.1282684 155.472049,35.8730465 L155.414827,35.930245 C154.712428,36.3283061 154.122661,36.8981473 153.700824,37.5863408 L126.898227,31.0178261 L126.898227,31.0178261 C124.685937,30.3943711 122.396571,30.086711 120.098105,30.1039805 C113.525376,30.1067912 107.21206,32.6679052 102.4963,37.24448 L77.2307174,31.0178261 L77.2307174,31.0178261 C75.0024021,30.3715074 72.6936007,30.0445663 70.3733727,30.046782 C56.3600458,30.0467823 45,41.4021274 45,55.4096554 C45,69.4171834 56.3600458,80.7725285 70.3733727,80.7725288 C73.0703321,80.7680665 75.7501599,80.3439771 78.3166078,79.5154923 L78.3166078,79.5154923 L102.489646,73.6320293 C107.213213,78.2322043 113.553928,80.796098 120.148673,80.7725288 C122.84528,80.7636606 125.524434,80.339678 128.091908,79.5154923 L128.091908,79.5154923 L159.35118,71.8602064 L161.066514,74.7174704 L161.066514,127.728496 C161.065804,133.558928 163.663272,139.086684 168.152748,142.808944 L168.381636,142.980539 C171.915996,145.906688 176.363984,147.503103 180.953213,147.492569 C181.582657,147.492569 182.267992,147.43537 182.896105,147.378172 C178.569757,148.753725 174.565816,150.988326 171.124308,153.948017 C165.017565,159.200929 161.01867,166.485261 159.866179,174.45567 L152.379391,226.665917 L168.49475,232.385766 L132.431478,274.999984 L207.580151,274.999984 L197.131117,185.766338 L224.447383,196.161831 L211.475251,240.946916 C209.134775,248.993983 210.721671,257.672932 215.758435,264.37223 C220.795198,271.071528 228.693798,275.009046 237.077512,274.999984 L336,274.999984 L298.910721,227.644942 L280.450584,236.66368 Z M242.391189,5.14149652 C243.432157,3.03454444 245.582914,1.7043624 247.933755,1.71357788 C248.513677,1.70512153 249.091676,1.78221587 249.649089,1.94237183 L249.763534,1.99957031 C252.632069,2.80685801 254.509607,5.55279208 254.220209,8.51753747 L251.477537,38.2780434 L229.075724,31.9316717 L242.391189,5.14149652 Z M233.53373,36.8454208 C244.067768,36.8629896 252.603532,45.3934369 252.623311,55.9231116 C252.63767,57.4841771 252.445259,59.0402755 252.05109,60.5508683 L231.36195,36.9584876 C232.104507,36.9012891 232.795165,36.8440906 233.53373,36.8440906 L233.53373,36.8454208 Z M229.419057,37.3016785 L251.534759,62.4942867 C249.326958,68.5493611 244.211759,73.0821505 237.933183,74.5472051 L237.247848,74.7188006 L237.247848,83.3438004 L229.928734,83.3438004 L229.928734,74.7188006 L229.243399,74.5472051 C225.828313,73.7664065 222.700389,72.0448018 220.214273,69.5775877 C220.611629,69.6250987 221.011869,69.6442134 221.411946,69.6347862 C225.390052,69.6526684 229.174032,67.9179062 231.755851,64.8926325 L230.442403,63.749993 C228.15886,66.3873202 224.845421,67.9080192 221.356055,67.9201618 C220.332635,67.9314248 219.312818,67.7970582 218.327272,67.5211025 C216.293283,64.8346707 214.996068,61.6640455 214.563917,58.3227877 L221.193704,56.7265508 C221.237097,56.7205538 221.277312,56.7004546 221.308148,56.6693523 L229.593385,59.9256755 L230.222829,58.3294387 L222.68148,55.3524569 L230.339935,50.440038 L229.425711,49.011406 L221.253587,54.2098174 C221.196365,54.2098174 221.196365,54.2098174 221.139143,54.1526189 L214.618478,52.556382 C216.101482,44.9937586 221.90242,39.0143102 229.419057,37.3003483 L229.419057,37.3016785 Z M162.615505,91.6841379 L193.532775,91.6841379 L193.532775,99.2250268 L162.612843,99.2250268 L162.615505,91.6841379 Z M195.189556,63.0649413 L212.967019,58.7218469 C214.048913,67.0410715 220.055698,73.8806006 228.168154,76.0303752 L228.168154,83.2852717 L219.538253,83.2852717 L195.193548,105.499568 L195.189556,63.0649413 Z M219.192259,55.4109856 L195.189556,61.2944486 L195.189556,49.5248622 L219.192259,55.4109856 Z M101.008524,38.6145833 C98.0397407,41.9701974 96.0090158,46.0492376 95.1212943,50.440038 C93.837687,44.0471845 90.1320188,38.3975688 84.7787204,34.6718783 L101.008524,38.6145833 Z M46.6035509,55.4096554 C46.6030126,45.8441725 52.3670917,37.2202695 61.2079496,33.5593449 C70.0488076,29.8984202 80.2253425,31.9214495 86.9921508,38.6850771 C93.758959,45.4487047 95.7833982,55.6209147 92.1214553,64.4583201 C88.4595124,73.2957255 79.8323634,79.0579044 70.2629206,79.0579044 C57.2073594,79.0322907 46.6299095,68.4598126 46.6035509,55.4096554 Z M95.1212943,60.4364713 C96.0137533,64.7968003 98.0225093,68.8511493 100.951302,72.2033973 L84.8359425,76.1447721 C90.1179964,72.387287 93.7902561,66.7788293 95.1212943,60.4364713 L95.1212943,60.4364713 Z M96.3189675,55.4096554 C96.3184293,45.8441725 102.082508,37.2202695 110.923366,33.5593449 C119.764224,29.8984202 129.940759,31.9214495 136.707567,38.6850771 C143.474376,45.4487047 145.498815,55.6209147 141.836872,64.4583201 C138.174929,73.2957255 129.54778,79.0579044 119.978337,79.0579044 C106.923815,79.0308277 96.3479826,68.4587766 96.321629,55.4096554 L96.3189675,55.4096554 Z M134.608581,76.0875737 C141.364277,71.3321754 145.37409,63.5812472 145.351298,55.3220131 C145.328506,47.0627791 141.275975,39.3340812 134.494137,34.61601 L152.895721,39.1293697 C152.895721,39.1865682 152.838499,39.299635 152.838499,39.3568335 C152.725444,39.7663169 152.66771,40.1890799 152.666832,40.61387 C150.949625,39.7263904 148.895071,39.7913237 147.23738,40.7854655 L147.180158,40.8426639 C144.523594,42.4452371 143.656357,45.8890026 145.237266,48.5578087 L158.273274,70.321168 L134.608581,76.0875737 Z M146.666489,47.697171 C146.14802,46.7989964 145.98471,45.7393474 146.208712,44.7268403 C146.427933,43.7112076 147.073681,42.8389372 147.981269,42.332485 L148.038491,42.2752865 C149.889171,41.1875258 152.269783,41.7694613 153.40939,43.5881913 L165.467298,63.6967851 L166.953744,62.8388078 L154.895835,42.7315442 C154.376745,41.8335879 154.213398,40.7736992 154.438058,39.7612135 C154.657923,38.7458718 155.303493,37.8738404 156.210615,37.3668582 L156.266506,37.3096597 C158.118041,36.2227558 160.498618,36.8051279 161.638736,38.6238947 L173.696644,58.7311583 L175.18309,57.8745112 L163.125181,37.8244461 C162.036837,35.9741277 162.618972,33.5940789 164.43863,32.4544393 L164.495852,32.3972408 C166.347278,31.3095897 168.728406,31.8920968 169.868082,33.7114758 L185.703984,60.1025918 L187.189099,59.2459447 L184.902873,55.4189668 L184.902873,31.9888702 C184.900393,30.8669444 185.345163,29.7902558 186.138815,28.9969326 C186.932466,28.2036093 188.009601,27.7590235 189.131991,27.7614926 L189.246435,27.7614926 C190.368825,27.7590235 191.44596,28.2036093 192.239611,28.9969326 C193.033263,29.7902558 193.478033,30.8669444 193.475563,31.9888702 L193.475563,90.026712 L162.555621,90.026712 L162.555621,74.3117602 L146.666489,47.697171 Z M169.239969,141.666304 L169.01108,141.494709 C164.916862,138.094755 162.549785,133.049063 162.552957,127.728496 L162.552957,100.936991 L193.470229,100.936991 L193.470229,110.647432 L195.184233,110.647432 L195.184233,107.791498 L220.158382,84.9426976 L249.98843,84.9426976 L273.819466,167.714229 C274.435018,169.92774 274.74265,172.215448 274.73388,174.512868 L205.130244,148.004695 C205.01713,147.947496 204.902686,147.947496 204.788242,147.890298 L205.702466,130.464712 L221.817824,113.955633 L220.620151,112.758455 L193.530113,140.409268 C186.979772,147.048125 176.443882,147.593426 169.24263,141.666304 L169.239969,141.666304 Z M194.727786,141.609106 L203.871356,132.297724 L203.072907,147.320973 C199.868841,146.341344 196.537375,145.841092 193.18678,145.836473 L192.844778,145.836473 C191.122264,145.827734 189.40197,145.961207 187.701437,146.235532 C190.354394,145.222099 192.754774,143.643388 194.735771,141.609106 L194.727786,141.609106 Z M135.864808,273.337222 L169.983857,233.064166 L202.100131,244.432033 L205.357802,273.337222 L135.864808,273.337222 Z M201.869911,242.547143 L153.980281,225.580476 L161.299395,174.740332 C163.664111,159.129807 177.051279,147.566942 192.846109,147.492404 L193.188111,147.492404 C197.077858,147.479922 200.935448,148.196886 204.560684,149.606253 L274.794905,176.397758 C274.335319,183.550973 271.020158,190.219769 265.594113,194.906124 L265.308002,195.133588 C257.944166,201.471834 247.690495,203.249921 238.62118,199.761345 L195.134995,183.195067 L201.869911,242.547143 Z M217.185491,263.396657 C212.442371,257.135124 210.957589,248.993431 213.185262,241.461702 L226.100172,196.791014 L237.986413,201.303043 C244.845966,203.901449 252.446572,203.737884 259.187891,200.846786 L250.101544,237.634724 L275.190137,228.323343 L293.591721,273.284014 L237.133404,273.284014 C229.281842,273.38477 221.860712,269.705686 217.189483,263.396657 L217.185491,263.396657 Z M295.477391,273.337222 L281.133258,238.262578 L298.448951,229.865042 L332.508117,273.337222 L295.477391,273.337222 Z" id="Shape" fill="#000000"></path>
                <path d="M70.5,46.0004576 C64.5326709,45.9588934 58.9100397,48.7509387 55.3937675,53.5018009 L55,54.0023216 L55.3937675,54.5015489 C58.9391017,59.2181784 64.5433048,62 70.5,62 C76.4566952,62 82.0608983,59.2181784 85.6062325,54.5015489 L86,54.0023216 L85.6062325,53.5018009 C82.089816,48.7511062 76.4672783,45.9591073 70.5,46.0004576 Z M57.1407825,53.9984415 C59.0654109,51.6063612 61.6197856,49.7810475 64.525235,48.7216345 L64.525235,59.2739552 C61.6279883,58.2001124 59.0773448,56.3779117 57.1407825,53.9984415 L57.1407825,53.9984415 Z M70.5,60.3293166 C69.0525999,60.3431988 67.6104115,60.1564226 66.21581,59.7744759 L66.21581,48.1667938 C67.6156948,47.8108777 69.0543304,47.6241273 70.5,47.6106597 C75.7052745,47.5824136 80.6336293,49.9181871 83.8605301,53.9428281 C80.6553152,58.0007093 75.7184212,60.3606019 70.5,60.3293166 L70.5,60.3293166 Z" id="Shape" fill="#000000"></path>
                <path d="M120.5,46.0004529 C114.532722,45.9591026 108.910184,48.7511024 105.393767,53.5017984 L105,54.0023192 L105.393767,54.5015467 C108.939102,59.2181776 114.543305,62 120.5,62 C126.456695,62 132.060898,59.2181776 135.606233,54.5015467 L136,54.0023192 L135.606233,53.5017984 C132.081497,48.7607715 126.46434,45.9714438 120.5,46.0004529 L120.5,46.0004529 Z M107.079092,53.9984392 C109.003721,51.6063582 111.558095,49.7810439 114.463545,48.7216307 L114.463545,59.2739544 C111.574087,58.18589 109.02695,56.3661944 107.079092,53.9984392 L107.079092,53.9984392 Z M120.49475,60.3293161 C119.047355,60.3431126 117.605179,60.1563379 116.21056,59.7744752 L116.21056,48.1667898 C117.610462,47.8109618 119.049087,47.6242127 120.49475,47.6106556 C125.700461,47.5840562 130.628409,49.9217757 133.853967,53.9479991 C130.633487,57.9830847 125.709698,60.3359627 120.5,60.3293161 L120.49475,60.3293161 Z" id="Shape" fill="#000000"></path>
                <path d="M20.9374004,116 L0,116 L0,205 L125,205 L125,116 L20.9374004,116 Z M12.5518121,127.292225 L20.9374004,118.906751 L20.9374004,135.679026 L12.5518121,127.292225 Z M11.2963652,126.096577 L2.9094484,117.712433 L19.683282,117.712433 L11.2963652,126.096577 Z M10.1007015,127.292225 L1.71378467,135.679026 L1.71378467,118.910737 L10.1007015,127.292225 Z M11.2963652,128.487872 L19.683282,136.874673 L2.9094484,136.874673 L11.2963652,128.487872 Z M1.71112764,203.282253 L1.71112764,138.648217 L109.602508,138.648217 L109.602508,203.287567 L1.71112764,203.282253 Z M123.288872,203.282253 L111.251196,203.282253 L111.251196,177.775111 L123.286215,177.775111 L123.288872,203.282253 Z M123.288872,176.067992 L111.251196,176.067992 L111.251196,138.648217 L123.286215,138.648217 L123.288872,176.067992 Z M123.288872,117.70579 L123.288872,136.931799 L22.6498565,136.931799 L22.6498565,117.712433 L123.288872,117.70579 Z" id="Shape" fill="#000000"></path>
                <path d="M354.904348,48 L291,48 L291,143 L386,143 L386,48 L354.904348,48 Z M323.810026,49.7157048 L353.189974,49.7157048 L353.189974,79.0956524 L323.810026,79.0956524 L323.810026,49.7157048 Z M353.189974,110.189974 L323.810026,110.189974 L323.810026,80.8113572 L353.189974,80.8113572 L353.189974,110.189974 Z M292.715705,49.7157048 L322.095652,49.7157048 L322.095652,79.0956524 L292.715705,79.0956524 L292.715705,49.7157048 Z M292.715705,80.8100262 L322.095652,80.8100262 L322.095652,110.189974 L292.715705,110.189974 L292.715705,80.8100262 Z M322.095652,141.342861 L292.715705,141.342861 L292.715705,111.905679 L322.095652,111.905679 L322.095652,141.342861 Z M353.189974,141.342861 L323.810026,141.342861 L323.810026,111.905679 L353.189974,111.905679 L353.189974,141.342861 Z M384.285626,141.342861 L354.904348,141.342861 L354.904348,111.905679 L384.285626,111.905679 L384.285626,141.342861 Z M384.285626,110.196629 L354.904348,110.196629 L354.904348,80.8113572 L384.285626,80.8113572 L384.285626,110.196629 Z M354.904348,79.1023076 L354.904348,49.7157048 L384.285626,49.7157048 L384.285626,79.0956524 L354.904348,79.1023076 Z" id="Shape" fill="#000000"></path>
                <path d="M68.5420778,153.919639 C64.7582788,150.107819 59.6020786,147.975161 54.2310256,148.000218 C48.8652216,148.001738 43.7188322,150.130338 39.9199734,153.919639 C36.1084343,157.703553 33.9757415,162.859221 34.0002082,168.229834 C34.0025959,173.595141 36.1311899,178.7409 39.9199734,182.540028 C47.5872092,190.204355 59.9352702,190.457631 67.9103733,183.114149 L77.7954786,193 L79,191.795551 L69.1135563,181.9097 C76.4848555,173.945382 76.2323172,161.576479 68.5420778,153.919639 Z M41.1847208,181.282048 C37.7045764,177.8121 35.7587916,173.09324 35.781572,168.178979 C35.7851719,163.269915 37.7269539,158.560763 41.1847208,155.07591 C44.6547918,151.595848 49.37399,149.650157 54.2885749,149.673083 C61.7848048,149.659031 68.5492447,154.16796 71.4198572,161.092373 C74.2904696,168.016787 72.7002036,175.98886 67.3924291,181.282048 C60.1415689,188.485278 48.435581,188.485278 41.1847208,181.282048 L41.1847208,181.282048 Z" id="Shape" fill="#000000"></path>
            </g>
        </g>
    </g>
</svg>